<?xml version="1.0" encoding="UTF-8"?>
<!-- Generated by Pixelmator Pro 2.4.1 -->
<svg width="1280" height="640" viewBox="0 0 1280 640" xmlns="http://www.w3.org/2000/svg" xmlns:xlink="http://www.w3.org/1999/xlink">
    <g id="164088611-44df82d9-1c1d-4a68-bfb8-300cca09ccc9">
        <path id="Path" fill="#10b9e8" stroke="none" d="M 81 206.833801 L 162.682007 206.833801 L 162.682007 260.797882 L 81 260.797882 Z"/>
        <path id="path1" fill="#10b9e8" stroke="none" d="M 219.834869 213.701935 C 212.72142 218.117218 206.098557 223.758911 200.211563 230.381805 C 194.32457 237.249908 190.154633 243.872803 188.192291 250.250336 C 186.229965 256.382599 185.248795 262.269653 185.248795 267.911316 L 185.248795 434.954712 L 241.175201 434.954712 L 241.175201 271.590698 C 241.175201 271.100098 241.420502 270.118927 242.156372 268.401947 C 242.892258 266.930176 243.873413 265.458405 244.854568 264.231964 C 245.835739 263.005493 247.062195 262.024353 248.533936 261.043213 C 249.269821 260.552582 250.250992 260.307281 251.232162 260.307281 L 325.31012 260.307281 L 325.31012 206.343201 L 247.30748 206.343201 C 236.514679 206.833801 227.438889 209.041412 219.834869 213.701935 Z"/>
        <path id="path2" fill="#10b9e8" stroke="none" d="M 579.186584 255.401459 C 579.186584 251.476776 577.714844 247.061554 575.016663 242.155731 C 572.31842 237.74054 568.393799 232.589386 562.506775 227.192963 C 556.619812 221.5513 550.242249 217.135986 543.374084 213.456635 C 536.01532 209.777252 526.448975 207.569672 514.184387 206.833801 L 335.121765 206.833801 L 335.121765 260.797882 L 579.431885 260.797882 L 579.431885 255.401459 L 579.186584 255.401459 Z"/>
        <path id="path3" fill="#10b9e8" stroke="none" d="M 338.310577 294.157532 L 394.72757 294.157532 L 394.72757 435.200012 L 338.310577 435.200012 Z"/>
        <path id="path4" fill="#10b9e8" stroke="none" d="M 511.976807 348.857452 L 512.467346 348.857452 C 526.448975 347.876312 537.732361 344.93277 546.317566 340.026947 C 554.657471 335.366425 561.770874 329.724762 566.922058 323.837708 C 573.299622 316.724274 577.469543 308.875 579.186584 300.780334 L 580.658386 294.157532 L 420.728424 294.157532 L 420.728424 339.536407 L 516.146729 435.200012 L 586.790649 435.200012 L 499.221619 348.857452 L 511.976807 348.857452 Z"/>
        <path id="path5" fill="#10b9e8" stroke="none" d="M 701.096375 343.706329 L 711.889221 372.650726 L 762.909729 372.650726 L 706.738037 206.833801 L 683.190063 206.833801 L 596.847534 435.200012 L 652.283386 435.200012 L 685.888306 343.706329 Z"/>
        <path id="path6" fill="#10b9e8" stroke="none" d="M 684.907166 389.821106 L 688.341248 397.42511 C 691.775269 405.029144 695.699951 411.406738 700.115173 416.557861 C 704.530457 421.708984 710.417419 426.369507 717.530884 429.803589 C 724.889587 433.482941 734.455933 435.200012 747.211121 435.200012 L 788.665344 435.200012 L 769.287354 389.821106 L 684.907166 389.821106 Z"/>
        <path id="path7" fill="#10b9e8" stroke="none" d="M 882.857178 206.833801 C 868.63031 207.569672 856.120422 210.022583 845.327637 214.437866 C 834.780151 218.853058 825.459045 224.004211 817.85498 229.891174 C 810.251038 235.778168 803.873413 242.155731 798.47699 249.023865 C 793.325867 255.646759 788.910645 262.269653 785.231262 268.892487 L 784.985962 269.137787 C 777.136719 285.081726 772.966736 302.742706 772.966736 321.875397 C 772.966736 339.781647 776.891357 356.706787 784.985962 372.650726 L 785.231262 372.895966 C 788.910645 379.51886 793.571167 386.141754 798.47699 392.764587 C 803.628113 399.632782 810.251038 406.010284 817.85498 411.897339 C 825.459045 417.784302 834.780151 422.935455 845.327637 427.350647 C 856.120422 431.765869 868.63031 434.218781 882.857178 434.954712 L 973.12439 434.954712 L 973.12439 381.235931 L 885.310059 381.235931 C 871.819092 380.00946 861.026245 376.330109 853.422241 370.688354 C 845.572937 364.801392 839.195374 357.197327 834.534851 348.366852 C 830.855469 340.272247 828.893066 331.196442 828.893066 321.630096 C 828.893066 310.837311 830.855469 301.025665 834.534851 292.931061 C 839.195374 284.100555 845.572937 276.496521 853.422241 270.609558 C 861.026245 264.722565 871.819092 261.288422 885.310059 260.061981 L 973.12439 260.061981 L 973.12439 206.343201 L 883.102478 206.343201 L 882.857178 206.833801 Z"/>
        <path id="path8" fill="#10b9e8" stroke="none" d="M 988.823059 206.833801 L 1201 206.833801 L 1201 260.797882 L 988.823059 260.797882 Z"/>
        <path id="path9" fill="#10b9e8" stroke="none" d="M 1045.485352 348.857452 L 1110.242188 348.857452 L 1110.487549 348.857452 C 1123.487915 348.121613 1134.280762 345.423401 1142.375366 340.762878 C 1150.224731 336.102264 1157.338135 330.215302 1162.979858 322.856567 C 1168.866821 315.497833 1172.546143 307.64856 1174.263306 299.799194 L 1175.734985 293.1763 L 988.823059 293.1763 L 988.823059 435.200012 L 1201 435.200012 L 1201 381.481171 L 1045.485352 381.481171 L 1045.485352 348.857452 Z"/>
    </g>
</svg>
