<?xml version="1.0" encoding="UTF-8"?>
<!-- Generated by Pixelmator Pro 3.5.3 -->
<svg width="1280" height="640" viewBox="0 0 1280 640" xmlns="http://www.w3.org/2000/svg">
    <g id="Group-copy">
        <g id="Group">
            <path id="Path" fill="#000001" stroke="none" d="M 356.31662 277.099915 C 365.363464 284.595856 373.634888 297.003021 373.634888 317.681519 C 373.634888 338.61853 365.363464 351.025604 356.31662 358.521576 C 347.52829 366.017517 333.570251 371.187134 314.959595 371.187134 L 278.513733 371.187134 L 278.513733 263.917358 L 314.959595 263.917358 C 333.570251 264.175842 347.52829 269.345459 356.31662 277.099915 Z M 338.739899 342.237274 C 343.134094 338.101532 348.303741 330.864044 348.303741 317.681519 C 348.303741 304.498962 343.392548 296.744507 338.739899 292.608795 C 334.345703 288.473083 326.849762 285.112854 316.252014 285.112854 L 303.586426 285.112854 L 303.586426 350.250214 L 316.252014 350.250214 C 326.849762 349.991699 334.345703 346.631409 338.739899 342.237274 Z"/>
            <path id="path1" fill="#000001" stroke="none" d="M 401.292419 372.996552 C 387.851349 372.996552 373.376404 365.759094 373.376404 348.69931 C 373.376404 331.639496 389.143768 325.952942 403.101776 325.17746 L 422.487885 324.402008 L 422.487885 322.592651 C 422.487885 314.579712 416.8013 310.444031 406.72052 310.444031 C 396.898193 310.444031 387.075928 314.838226 383.19873 317.16452 L 376.736694 300.880249 C 383.19873 297.519928 395.347351 293.125793 409.563812 293.125793 C 423.780304 293.125793 432.051697 296.486023 438.255219 301.914154 C 444.200317 307.600739 447.302094 314.838226 447.302094 327.762299 L 447.302094 370.928711 L 423.52179 370.928711 L 423.004852 362.915771 C 419.903076 366.534515 413.699493 372.996552 401.292419 372.996552 Z M 398.449097 347.665375 C 398.449097 353.610443 403.360229 357.229156 410.08078 357.229156 C 416.8013 357.229156 421.195496 352.835022 422.746338 350.250214 L 422.746338 337.584564 L 410.597717 338.360046 C 402.843292 338.876953 398.449097 341.97876 398.449097 347.665375 Z"/>
            <path id="path2" fill="#000001" stroke="none" d="M 485.298889 372.996552 C 476.510498 372.996552 470.565399 370.411713 466.688202 365.759094 C 462.810974 361.364868 461.260101 354.902832 461.260101 343.271179 L 461.260101 313.545807 L 450.4039 313.545807 L 450.4039 294.676697 L 461.260101 294.676697 L 461.260101 273.739685 L 486.332794 273.739685 L 486.332794 294.676697 L 503.392578 294.676697 L 503.392578 313.545807 L 486.332794 313.545807 L 486.332794 340.944855 C 486.332794 347.406891 487.366699 348.957794 488.400635 350.508636 C 489.43457 351.801025 490.985474 352.318024 494.345734 352.318024 C 498.222961 352.318024 501.841675 351.025604 501.841675 351.025604 L 503.134094 370.411713 C 501.066223 371.187134 494.345734 372.996552 485.298889 372.996552 Z"/>
            <path id="path3" fill="#000001" stroke="none" d="M 532.859436 372.996552 C 519.418396 372.996552 504.943451 365.759094 504.943451 348.69931 C 504.943451 331.639496 520.710815 325.952942 534.668823 325.17746 L 554.054932 324.402008 L 554.054932 322.592651 C 554.054932 314.579712 548.368347 310.444031 538.287598 310.444031 C 528.465271 310.444031 518.642944 314.838226 514.765747 317.16452 L 508.303711 300.880249 C 514.765747 297.519928 526.914368 293.125793 541.130859 293.125793 C 555.347351 293.125793 563.618713 296.486023 569.822266 301.914154 C 575.767395 307.600739 578.869141 314.838226 578.869141 327.762299 L 578.869141 370.928711 L 555.088867 370.928711 L 554.571838 362.915771 C 551.470093 366.534515 545.266541 372.996552 532.859436 372.996552 Z M 530.016113 347.665375 C 530.016113 353.610443 534.927307 357.229156 541.647827 357.229156 C 548.368347 357.229156 552.762512 352.835022 554.313416 350.250214 L 554.313416 337.584564 L 542.164795 338.360046 C 534.410339 338.876953 530.016113 341.97876 530.016113 347.665375 Z"/>
            <path id="path4" fill="#000001" stroke="none" d="M 623.586426 352.318024 C 631.599365 352.318024 637.802917 348.440796 637.802917 341.203369 C 637.802917 333.96582 629.789978 331.122559 625.137329 329.313202 L 610.145386 323.626556 C 596.704346 318.715454 587.657471 310.444031 587.657471 294.676697 C 587.657471 272.447296 607.560547 262.624939 627.205139 262.624939 C 639.612305 262.624939 653.828735 268.570068 661.324768 275.807495 L 650.72699 293.384277 C 644.523438 287.180664 634.959595 282.528046 626.688232 282.528046 C 618.416809 282.528046 612.730164 285.629852 612.730164 292.091888 C 612.730164 298.553925 618.416809 300.880249 623.586426 302.948059 L 639.612305 308.893127 C 653.311829 313.804321 662.875549 322.592651 662.875549 338.360046 C 662.875549 361.623383 641.938599 372.738037 621.260071 372.738037 C 605.751221 372.738037 591.793213 364.725098 583.263306 356.453735 L 595.67041 338.101532 C 603.424866 346.889893 615.315002 352.318024 623.586426 352.318024 Z"/>
            <path id="path5" fill="#000001" stroke="none" d="M 694.668823 372.996552 C 685.880493 372.996552 679.935364 370.411713 676.058105 365.759094 C 672.180908 361.364868 670.630005 354.902832 670.630005 343.271179 L 670.630005 313.545807 L 659.773865 313.545807 L 659.773865 294.676697 L 670.630005 294.676697 L 670.630005 273.739685 L 695.702759 273.739685 L 695.702759 294.676697 L 712.762512 294.676697 L 712.762512 313.545807 L 695.702759 313.545807 L 695.702759 340.944855 C 695.702759 347.406891 696.736633 348.957794 697.770569 350.508636 C 698.804565 351.801025 700.355347 352.318024 703.715698 352.318024 C 707.592896 352.318024 711.211609 351.025604 711.211609 351.025604 L 712.504028 370.411713 C 710.436218 371.187134 703.457153 372.996552 694.668823 372.996552 Z"/>
            <path id="path6" fill="#000001" stroke="none" d="M 744.297241 294.676697 L 744.038818 305.532867 L 744.297241 305.532867 C 748.691406 297.261505 754.894958 293.384277 763.166382 293.384277 C 768.33606 293.384277 770.920837 294.676697 770.920837 294.676697 L 769.628418 317.423035 L 768.594543 317.423035 C 767.302124 316.647583 763.941833 315.613678 759.547668 315.613678 C 753.861084 315.613678 749.983826 318.715454 748.174438 321.300262 C 746.365112 323.885071 744.297241 328.796204 744.297241 337.326141 L 744.297241 371.445618 L 719.483032 371.445618 L 719.483032 294.93512 L 744.297241 294.93512 Z"/>
            <path id="path7" fill="#000001" stroke="none" d="M 804.006409 372.996552 C 792.891785 372.996552 785.91272 369.119324 782.035522 363.949677 C 778.416809 358.78006 776.348999 352.05954 776.348999 340.944855 L 776.348999 294.676697 L 801.163147 294.676697 L 801.163147 337.584564 C 801.163147 346.372986 803.747925 352.576508 812.536377 352.576508 C 821.324707 352.576508 825.460449 345.597504 825.460449 335.516724 L 825.460449 294.93512 L 850.274597 294.93512 L 850.274597 371.445618 L 826.23584 371.445618 L 825.977356 362.657288 C 823.134033 367.309906 814.862671 372.996552 804.006409 372.996552 Z"/>
            <path id="path8" fill="#000001" stroke="none" d="M 894.733459 372.996552 C 873.796448 372.996552 854.410339 358.78006 854.410339 333.190399 C 854.410339 307.600739 874.054932 293.384277 894.991943 293.384277 C 914.636536 293.384277 923.424866 301.397156 923.424866 301.397156 L 917.996765 320.266357 C 915.928955 318.45694 908.94989 313.545807 898.352173 313.545807 C 887.754395 313.545807 879.483032 320.783295 879.483032 332.931915 C 879.483032 345.080566 886.979004 352.576508 898.869141 352.576508 C 910.759338 352.576508 918.255249 345.080566 918.255249 345.080566 L 924.200317 363.949677 C 923.166382 364.466675 915.153442 372.996552 894.733459 372.996552 Z"/>
            <path id="path9" fill="#000001" stroke="none" d="M 961.421631 372.996552 C 952.63324 372.996552 946.688232 370.411713 942.810974 365.759094 C 938.933777 361.364868 937.382874 354.902832 937.382874 343.271179 L 937.382874 313.545807 L 926.526611 313.545807 L 926.526611 294.676697 L 937.382874 294.676697 L 937.382874 273.739685 L 962.455566 273.739685 L 962.455566 294.676697 L 979.51532 294.676697 L 979.51532 313.545807 L 962.455566 313.545807 L 962.455566 340.944855 C 962.455566 347.406891 963.489502 348.957794 964.523438 350.508636 C 965.557312 351.801025 967.108215 352.318024 970.468445 352.318024 C 974.345703 352.318024 977.964478 351.025604 977.964478 351.025604 L 979.256897 370.411713 C 977.188965 371.187134 970.210022 372.996552 961.421631 372.996552 Z"/>
            <path id="path10" fill="#000001" stroke="none" d="M 1013.376404 372.996552 C 1002.261719 372.996552 995.282715 369.119324 991.405457 363.949677 C 987.786743 358.78006 985.718933 352.05954 985.718933 340.944855 L 985.718933 294.676697 L 1010.533081 294.676697 L 1010.533081 337.584564 C 1010.533081 346.372986 1013.117859 352.576508 1021.906311 352.576508 C 1030.694702 352.576508 1034.830444 345.597504 1034.830444 335.516724 L 1034.830444 294.93512 L 1059.644531 294.93512 L 1059.644531 371.445618 L 1035.605835 371.445618 L 1035.34729 362.657288 C 1032.504028 367.309906 1024.491089 372.996552 1013.376404 372.996552 Z"/>
            <path id="path11" fill="#000001" stroke="none" d="M 1093.24707 294.676697 L 1092.98877 305.532867 L 1093.24707 305.532867 C 1097.641357 297.261505 1103.844849 293.384277 1112.116333 293.384277 C 1117.285889 293.384277 1119.870728 294.676697 1119.870728 294.676697 L 1118.578369 317.423035 L 1117.544434 317.423035 C 1116.252075 316.647583 1112.891724 315.613678 1108.497559 315.613678 C 1102.810913 315.613678 1098.933716 318.715454 1097.12439 321.300262 C 1095.315063 323.885071 1093.24707 328.796204 1093.24707 337.326141 L 1093.24707 371.445618 L 1068.432983 371.445618 L 1068.432983 294.93512 L 1093.24707 294.93512 Z"/>
            <path id="path12" fill="#000001" stroke="none" d="M 1161.227783 372.996552 C 1137.705933 372.996552 1120.387695 358.521576 1120.387695 333.190399 C 1120.387695 307.859222 1138.998413 293.384277 1161.744751 293.384277 C 1184.491089 293.384277 1200 308.37619 1200 330.864044 C 1200 334.482819 1199.741455 339.135468 1199.741455 339.135468 L 1145.201904 339.135468 C 1146.23584 350.250214 1154.765747 355.161346 1164.846558 355.161346 C 1174.668823 355.161346 1183.457153 350.76712 1187.851318 347.923798 L 1197.673706 360.84787 C 1195.088867 362.398773 1185.008057 372.996552 1161.227783 372.996552 Z M 1161.227783 309.668579 C 1150.88855 309.668579 1145.718872 317.681519 1145.460449 325.17746 L 1176.995117 325.17746 C 1176.736694 317.939972 1171.567017 309.668579 1161.227783 309.668579 Z"/>
        </g>
        <g id="g1">
            <g id="g2">
                <linearGradient id="linearGradient1" x1="237.230371" y1="298.695795" x2="242.373376" y2="343.46426" gradientUnits="userSpaceOnUse">
                    <stop offset="0.16" stop-color="#21d789" stop-opacity="1"/>
                    <stop offset="0.54" stop-color="#419fbc" stop-opacity="1"/>
                    <stop offset="1" stop-color="#6b57ff" stop-opacity="1"/>
                </linearGradient>
                <path id="path13" fill="url(#linearGradient1)" stroke="none" d="M 244.911148 259.264709 L 256.025848 331.381012 L 235.347336 343.529663 L 222.164795 298.812347 L 244.911148 259.264709 Z"/>
                <linearGradient id="linearGradient2" x1="194.439548" y1="279.023033" x2="207.445557" y2="245.750012" gradientUnits="userSpaceOnUse">
                    <stop offset="1e-05" stop-color="#6b57ff" stop-opacity="1"/>
                    <stop offset="0.952" stop-color="#21d789" stop-opacity="1"/>
                </linearGradient>
                <path id="path14" fill="url(#linearGradient2)" stroke="none" d="M 244.911148 259.264709 L 181.841675 232.124176 L 164.264954 246.857635 L 193.214859 275.032104 L 244.911148 259.264709 Z"/>
                <linearGradient id="linearGradient3" x1="122.568273" y1="320.861093" x2="135.198192" y2="375.896957" gradientUnits="userSpaceOnUse">
                    <stop offset="1e-05" stop-color="#6b57ff" stop-opacity="1"/>
                    <stop offset="0.022" stop-color="#685cfb" stop-opacity="1"/>
                    <stop offset="0.281" stop-color="#4a91ca" stop-opacity="1"/>
                    <stop offset="0.506" stop-color="#34b7a7" stop-opacity="1"/>
                    <stop offset="0.685" stop-color="#26ce91" stop-opacity="1"/>
                    <stop offset="0.797" stop-color="#21d789" stop-opacity="1"/>
                </linearGradient>
                <path id="path15" fill="url(#linearGradient3)" stroke="none" d="M 199.159943 407.891541 L 107.915993 308.634674 L 81.809372 389.0224 L 199.159943 407.891541 Z"/>
                <linearGradient id="linearGradient4" x1="94.578354" y1="313.847459" x2="248.671276" y2="398.925325" gradientUnits="userSpaceOnUse">
                    <stop offset="0.075" stop-color="#21d789" stop-opacity="1"/>
                    <stop offset="0.887" stop-color="#6b57ff" stop-opacity="1"/>
                </linearGradient>
                <path id="path16" fill="url(#linearGradient4)" stroke="none" d="M 216.995163 345.080566 L 80 313.287323 L 198.901459 407.891541 L 216.995163 345.080566 Z"/>
                <linearGradient id="linearGradient5" x1="92.108305" y1="299.492176" x2="246.969951" y2="299.492176" gradientUnits="userSpaceOnUse">
                    <stop offset="0.309" stop-color="#21d789" stop-opacity="1"/>
                    <stop offset="0.487" stop-color="#59a3b2" stop-opacity="1"/>
                    <stop offset="0.767" stop-color="#b74af7" stop-opacity="1"/>
                    <stop offset="1" stop-color="#ff45ed" stop-opacity="1"/>
                </linearGradient>
                <path id="path17" fill="url(#linearGradient5)" stroke="none" d="M 80.258484 233.416565 L 80.258484 313.287323 L 232.762527 365.759094 L 244.911148 259.523224 L 80.258484 233.416565 Z"/>
            </g>
            <path id="path18" fill="#000000" stroke="none" d="M 221.906296 263.917358 L 114.636513 263.917358 L 114.636513 371.187134 L 221.906296 371.187134 L 221.906296 263.917358 Z"/>
            <path id="path19" fill="#ffffff" stroke="none" d="M 172.019394 352.318024 L 131.696289 352.318024 L 131.696289 359.297058 L 172.019394 359.297058 L 172.019394 352.318024 Z"/>
            <g id="g3">
                <g id="g4">
                    <path id="path20" fill="#ffffff" stroke="none" d="M 188.303711 309.927094 C 191.663971 309.927094 194.248795 308.37619 194.248795 305.791382 C 194.248795 303.206543 190.888519 302.172638 189.079163 301.397156 L 182.875595 299.329346 C 177.189026 297.519928 173.570282 294.418213 173.570282 288.731567 C 173.570282 280.460236 181.841675 276.841431 190.113083 276.841431 C 195.282715 276.841431 201.227783 278.909302 204.329575 281.752625 L 199.935379 288.214661 C 197.350555 285.888275 193.214859 284.078949 189.854614 284.078949 C 186.494339 284.078949 183.909531 285.112854 183.909531 287.697662 C 183.909531 290.023987 186.23587 291.057892 188.56221 291.833374 L 195.282715 294.159698 C 200.969299 295.969116 205.104996 299.329346 205.104996 305.01593 C 205.104996 313.545807 196.31665 317.681519 187.786758 317.681519 C 181.324722 317.681519 175.638138 314.579712 172.019394 311.73645 L 177.189026 305.01593 C 179.773834 307.859222 184.684982 309.927094 188.303711 309.927094 Z"/>
                </g>
                <path id="path21" fill="#ffffff" stroke="none" d="M 147.980606 277.616913 L 132.730209 277.616913 L 132.730209 316.906067 L 147.980606 316.906067 C 160.387726 316.906067 168.917603 308.37619 168.917603 297.261505 L 168.917603 297.261505 C 168.917603 286.146759 160.387726 277.616913 147.980606 277.616913 Z M 159.870758 297.519928 C 159.870758 304.498962 155.218094 309.151642 147.980606 309.151642 L 141.260101 309.151642 L 141.260101 285.371338 L 147.980606 285.371338 C 155.218094 285.629852 159.870758 290.282471 159.870758 297.519928 L 159.870758 297.519928 Z"/>
            </g>
        </g>
    </g>
</svg>
