<?xml version="1.0" encoding="UTF-8"?>
<!-- Generated by Pixelmator Pro 3.3.6 -->
<svg width="1280" height="640" viewBox="0 0 1280 640" xmlns="http://www.w3.org/2000/svg">
    <g id="Group">
        <path id="Path" fill="#813a87" fill-rule="evenodd" stroke="#000000" stroke-width="3.262866" d="M 328.29007 475.185425 L 303.805847 474.726563 L 292.251984 473.789795 L 269.157013 470.291138 L 246.986115 465.874817 L 225.739243 460.050049 L 205.639496 452.842468 L 195.940094 448.884949 L 177.694824 439.797363 L 160.832443 430.027893 L 145.818161 418.850037 L 131.963882 406.754456 L 120.409874 394.180969 L 110.251656 380.677032 L 102.164589 366.472137 L 99.16301 359.270844 L 96.390846 351.585297 L 94.54274 343.670288 L 92.924057 335.991028 L 92 324.341614 L 92 316.203583 L 92.924057 304.566864 L 94.54274 296.645508 L 96.390846 288.966278 L 99.16301 281.745972 L 102.164589 274.066742 L 110.251656 260.097595 L 115.101341 253.355194 L 120.409874 246.600037 L 125.724922 240.087036 L 138.66153 227.51355 L 153.210587 215.876801 L 169.148926 205.865173 L 177.694824 200.977264 L 195.940094 191.666626 L 215.338852 183.987427 L 225.739243 180.495148 L 246.986115 174.676788 L 269.157013 170.254089 L 292.251984 166.997589 L 303.805847 166.067169 L 328.29007 165.595551 L 949.257446 165.595551 L 970.268555 166.067169 L 991.515381 168.386841 L 1002.145264 169.788879 L 1022.697327 173.746368 L 1033.327271 176.072449 L 1053.650024 182.585388 L 1073.278198 189.805786 L 1091.529907 197.956543 L 1100.763916 202.844513 L 1117.626465 213.085571 L 1125.248291 218.432312 L 1140.268921 230.075409 L 1146.966797 236.358978 L 1153.199341 243.107758 L 1164.294434 256.611694 L 1171.450928 267.317963 L 1177.224731 278.72522 L 1181.602783 290.833496 L 1183.457153 299.207397 L 1185.528442 311.774475 L 1186 320.390503 L 1185.528442 329.235931 L 1184.84021 337.386688 L 1183.457153 345.76059 L 1181.602783 353.917694 L 1179.066406 361.596954 L 1176.287964 369.511932 L 1172.827393 376.719543 L 1169.131226 383.93988 L 1164.753174 391.383301 L 1154.123291 404.422058 L 1148.349609 410.712006 L 1135.412842 422.348694 L 1120.86377 433.054932 L 1104.696045 442.601379 L 1095.461792 447.0177 L 1077.216675 454.69696 L 1067.045532 458.195587 L 1045.798828 464.479156 L 1035.404785 467.034637 L 1012.303406 470.769104 L 1000.29071 472.859375 L 975.124634 474.726563 L 962.653076 475.185425 Z"/>
        <path id="path1" fill="#ca0088" fill-rule="evenodd" stroke="#000000" stroke-width="3.262866" d="M 351.843903 454.238068 C 238.899048 454.238068 147.430466 394.180969 147.430466 320.390503 C 147.430466 246.600037 238.899048 186.313446 351.843903 186.313446 L 925.699707 186.313446 C 1038.643188 186.313446 1130.098022 246.600037 1130.098022 320.390503 C 1130.098022 394.180969 1038.636841 454.238068 925.699707 454.238068 Z"/>
        <path id="path2" fill="#f6d33c" fill-rule="evenodd" stroke="#000000" stroke-width="3.262866" d="M 353.921387 435.839905 C 263.38327 435.839905 190.166367 383.933533 190.166367 320.390503 C 190.166367 256.611694 263.38327 204.705322 353.921387 204.705322 L 923.619751 204.705322 C 1014.157898 204.705322 1087.36853 256.618042 1087.36853 320.390503 C 1087.36853 383.93988 1014.157898 435.839905 923.619751 435.839905 Z"/>
        <path id="path3" fill="#ffffff" fill-rule="evenodd" stroke="#000000" stroke-width="3.262866" d="M 369.630341 418.850037 C 293.176056 418.850037 231.047775 374.865082 231.047775 320.390503 C 231.047775 265.922333 293.182434 221.69516 369.630341 221.69516 L 907.910889 221.69516 C 984.358826 221.69516 1046.49353 265.915985 1046.49353 320.390503 C 1046.49353 374.865082 984.358826 418.850037 907.910889 418.850037 Z"/>
        <path id="Http" fill="#000000" fill-rule="evenodd" stroke="none" d="M 828.579895 252.681488 L 901.246765 252.681488 C 919.640259 252.681488 934.212402 257.150299 944.963501 266.088013 C 955.7146 275.025635 961.090088 286.489044 961.090088 300.478455 C 961.090088 314.467896 956.55658 325.575043 947.489319 333.800323 C 938.422119 342.025604 923.008118 346.138184 901.246765 346.138184 L 875.599609 346.138184 L 875.599609 383.443115 C 875.599609 384.867981 875.081543 386.09845 874.045227 387.134705 C 873.008972 388.171021 871.778442 388.689117 870.353638 388.689117 L 828.579895 388.689117 C 827.154968 388.689117 825.924438 388.171021 824.888245 387.134705 C 823.85199 386.09845 823.333801 384.867981 823.333801 383.443115 L 823.333801 257.927551 C 823.333801 256.502625 823.85199 255.272125 824.888245 254.23587 C 825.924438 253.199646 827.154968 252.681488 828.579895 252.681488 Z M 875.793945 288.820679 L 875.793945 310.193329 L 900.469543 310.193329 C 903.448853 310.193329 905.877502 309.286591 907.755676 307.473175 C 909.633911 305.659698 910.572998 303.13385 910.572998 299.895569 C 910.572998 296.657318 909.666321 294.001892 907.852844 291.929413 C 906.039429 289.856934 903.578308 288.820679 900.469543 288.820679 Z M 649.24408 252.681488 L 783.308716 252.681488 C 784.733643 252.681488 785.964111 253.199646 787.000366 254.23587 C 788.036621 255.272125 788.554749 256.502625 788.554749 257.927551 L 788.554749 289.209259 C 788.554749 290.634094 788.036621 291.864655 787.000366 292.900909 C 785.964111 293.937164 784.733643 294.455292 783.308716 294.455292 L 741.534973 294.455292 L 741.534973 383.443115 C 741.534973 384.867981 741.016907 386.09845 739.980652 387.134705 C 738.944397 388.171021 737.713806 388.689117 736.28894 388.689117 L 696.263916 388.689117 C 694.83905 388.689117 693.608521 388.171021 692.572205 387.134705 C 691.536011 386.09845 691.017883 384.867981 691.017883 383.443115 L 691.017883 294.455292 L 649.24408 294.455292 C 647.819275 294.455292 646.588745 293.937164 645.55249 292.900909 C 644.516235 291.864655 643.998108 290.634094 643.998108 289.209259 L 643.998108 257.927551 C 643.998108 256.502625 644.516235 255.272125 645.55249 254.23587 C 646.588745 253.199646 647.819275 252.681488 649.24408 252.681488 Z M 484.09201 252.681488 L 618.156677 252.681488 C 619.581482 252.681488 620.812012 253.199646 621.848267 254.23587 C 622.884521 255.272125 623.40271 256.502625 623.40271 257.927551 L 623.40271 289.209259 C 623.40271 290.634094 622.884521 291.864655 621.848267 292.900909 C 620.812012 293.937164 619.581482 294.455292 618.156677 294.455292 L 576.382874 294.455292 L 576.382874 383.443115 C 576.382874 384.867981 575.864746 386.09845 574.828552 387.134705 C 573.792297 388.171021 572.561768 388.689117 571.136902 388.689117 L 531.111816 388.689117 C 529.686951 388.689117 528.456421 388.171021 527.420166 387.134705 C 526.383911 386.09845 525.865784 384.867981 525.865784 383.443115 L 525.865784 294.455292 L 484.09201 294.455292 C 482.667175 294.455292 481.436646 293.937164 480.400391 292.900909 C 479.364105 291.864655 478.846008 290.634094 478.846008 289.209259 L 478.846008 257.927551 C 478.846008 256.502625 479.364105 255.272125 480.400391 254.23587 C 481.436646 253.199646 482.667175 252.681488 484.09201 252.681488 Z M 410.647919 252.681488 L 450.673004 252.681488 C 452.097839 252.681488 453.328369 253.199646 454.364624 254.23587 C 455.400909 255.272125 455.919006 256.502625 455.919006 257.927551 L 455.919006 383.443115 C 455.919006 384.867981 455.400909 386.09845 454.364624 387.134705 C 453.328369 388.171021 452.097839 388.689117 450.673004 388.689117 L 410.647919 388.689117 C 409.223053 388.689117 407.992554 388.171021 406.956268 387.134705 C 405.920013 386.09845 405.401886 384.867981 405.401886 383.443115 L 405.401886 342.057953 L 366.542603 342.057953 L 366.542603 383.443115 C 366.542603 384.867981 366.024475 386.09845 364.98822 387.134705 C 363.951965 388.171021 362.721436 388.689117 361.29657 388.689117 L 321.271484 388.689117 C 319.846619 388.689117 318.616119 388.203369 317.579834 387.231873 C 316.54361 386.260376 316.025482 384.997467 316.025482 383.443115 L 316.025482 257.927551 C 316.025482 256.502625 316.54361 255.272125 317.579834 254.23587 C 318.616119 253.199646 319.846619 252.681488 321.271484 252.681488 L 361.29657 252.681488 C 362.721436 252.681488 363.951965 253.199646 364.98822 254.23587 C 366.024475 255.272125 366.542603 256.502625 366.542603 257.927551 L 366.542603 297.758301 L 405.401886 297.758301 L 405.401886 257.927551 C 405.401886 256.502625 405.920013 255.272125 406.956268 254.23587 C 407.992554 253.199646 409.223053 252.681488 410.647919 252.681488 Z"/>
    </g>
</svg>
