<svg width="1280" height="640" xmlns="http://www.w3.org/2000/svg"><path fill="#221e1f" d="M257.972 640c0-25.08 11.547-38.43 37.208-46.862 0 0 640.49-198.324 681.028-211.001 26.7-8.34 45.426-20.346 45.426-45.396V0c0 25.08-17.81 36.598-45.426 45.426C920.67 63.145 295.18 256.428 295.18 256.428c-25.691 8.431-37.208 21.781-37.208 46.831V640"/><path fill="#fff100" d="M257.972 601.692c0-25.081 11.547-38.4 37.208-46.862 0 0 640.49-198.324 681.028-210.971 26.7-8.34 45.426-20.315 45.426-45.427V38.308c0 25.081-17.81 36.598-45.426 45.427-55.538 17.718-681.028 210.97-681.028 210.97-25.691 8.463-37.208 21.782-37.208 46.863v260.124"/><g fill="#898a8e"><path d="M976.208 45.426C920.67 63.176 295.18 256.428 295.18 256.428c-25.691 8.462-37.208 21.781-37.208 46.831v32.382c0-25.08 11.547-38.4 37.208-46.862 0 0 625.49-193.253 681.028-210.97 27.616-8.83 45.426-20.346 45.426-45.427V0c0 25.08-17.81 36.598-45.426 45.426ZM269.855 295.714c-.06.794-.733 1.374-1.527 1.374h-.153c-.825-.091-1.466-.825-1.375-1.65l1.497-16.038c.092-.855.825-1.466 1.65-1.374.825.091 1.466.825 1.375 1.65l-1.467 16.038Zm7.851-5.927c-.06.794-.733 1.375-1.527 1.375h-.153c-.825-.092-1.466-.825-1.375-1.65l1.497-16.038c.092-.825.825-1.466 1.65-1.375.825.092 1.466.825 1.375 1.65l-1.467 16.038Zm7.851-4.613c-.06.794-.733 1.375-1.527 1.375h-.153c-.825-.092-1.466-.825-1.374-1.65l1.496-16.038c.092-.855.825-1.466 1.65-1.375.825.092 1.466.825 1.375 1.65l-1.467 16.038Zm7.668-2.413c-.06.794-.733 1.375-1.527 1.375h-.153c-.825-.092-1.466-.825-1.375-1.65l1.497-16.038c.092-.856.825-1.467 1.65-1.375.825.092 1.466.825 1.375 1.65l-1.467 16.038Zm7.73-2.444c-.062.794-.734 1.375-1.528 1.375h-.153c-.825-.092-1.466-.825-1.375-1.65l1.497-16.038c.092-.825.825-1.467 1.65-1.375.825.092 1.466.825 1.374 1.65l-1.466 16.038Zm8.339-2.627c-.061.794-.733 1.374-1.527 1.374h-.153c-.825-.091-1.467-.824-1.375-1.65l1.497-16.037c.092-.856.825-1.467 1.65-1.375.824.092 1.466.825 1.374 1.65l-1.466 16.038Zm7.484-2.383c-.06.794-.733 1.375-1.527 1.375h-.153c-.825-.092-1.466-.825-1.374-1.65l1.496-16.038c.092-.825.825-1.467 1.65-1.375.825.092 1.466.825 1.375 1.65l-1.467 16.038Zm7.882-2.475c-.061.795-.733 1.375-1.527 1.375h-.153c-.825-.091-1.466-.825-1.375-1.65l1.497-16.038c.092-.824.825-1.466 1.65-1.374.825.091 1.466.824 1.374 1.65l-1.466 16.037Zm7.668-2.443c-.061.794-.733 1.374-1.528 1.374h-.152c-.825-.091-1.467-.825-1.375-1.65l1.497-16.038c.092-.855.825-1.466 1.65-1.374.824.091 1.466.825 1.374 1.65l-1.466 16.038Zm7.729-2.444c-.061.794-.733 1.374-1.528 1.374h-.152c-.825-.091-1.467-.824-1.375-1.65l1.497-16.037c.091-.825.825-1.467 1.65-1.375.824.091 1.466.825 1.374 1.65l-1.466 16.038Zm8.34-2.597c-.061.794-.734 1.375-1.528 1.375h-.153c-.824-.092-1.466-.825-1.374-1.65l1.497-16.038c.091-.825.824-1.466 1.65-1.375.824.092 1.466.825 1.374 1.65l-1.466 16.038Zm7.484-2.383c-.061.794-.733 1.375-1.527 1.375h-.153c-.825-.092-1.466-.825-1.375-1.65l1.497-16.038c.092-.825.825-1.466 1.65-1.375.825.092 1.466.825 1.374 1.65l-1.466 16.038Zm8.218-2.596c-.061.794-.733 1.374-1.528 1.374h-.152c-.825-.091-1.467-.825-1.375-1.65l1.497-16.038c.091-.855.825-1.466 1.65-1.374.824.091 1.466.824 1.374 1.65l-1.466 16.037Zm7.515-2.383c-.061.794-.733 1.374-1.528 1.374h-.152c-.825-.091-1.467-.824-1.375-1.65l1.497-16.037c.091-.825.825-1.467 1.65-1.375.824.091 1.466.825 1.374 1.65l-1.466 16.038Zm8.4-2.628c-.06.795-.732 1.375-1.527 1.375h-.152c-.825-.091-1.467-.825-1.375-1.65l1.497-16.038c.091-.855.825-1.466 1.65-1.374.824.091 1.466.824 1.374 1.65l-1.466 16.037Zm7.669-2.443c-.062.794-.734 1.374-1.528 1.374h-.153c-.825-.091-1.466-.825-1.374-1.65l1.497-16.038c.091-.855.824-1.466 1.65-1.374.824.091 1.466.825 1.374 1.65l-1.466 16.038Zm7.728-2.444c-.06.794-.733 1.374-1.527 1.374h-.153c-.825-.091-1.466-.824-1.374-1.65l1.496-16.037c.092-.856.825-1.467 1.65-1.375.825.091 1.466.825 1.375 1.65l-1.467 16.038Zm7.76-2.444c-.061.794-.733 1.374-1.528 1.374h-.152c-.825-.091-1.467-.824-1.375-1.65l1.497-16.037c.091-.825.825-1.467 1.65-1.375.824.092 1.466.825 1.374 1.65l-1.466 16.038Zm7.515-2.383c-.061.794-.733 1.375-1.528 1.375h-.152c-.825-.092-1.467-.825-1.375-1.65l1.497-16.038c.092-.825.825-1.467 1.65-1.375.824.092 1.466.825 1.374 1.65l-1.466 16.038Zm8.218-2.597c-.062.795-.734 1.375-1.528 1.375h-.153c-.825-.092-1.466-.825-1.374-1.65l1.497-16.038c.091-.855.824-1.466 1.65-1.375.824.092 1.466.825 1.374 1.65l-1.466 16.038Zm7.515-2.352c-.062.794-.734 1.375-1.528 1.375h-.153c-.824-.092-1.466-.825-1.374-1.65l1.497-16.038c.091-.825.824-1.467 1.65-1.375.824.092 1.466.825 1.374 1.65l-1.466 16.038Zm8.37-2.658c-.061.795-.733 1.375-1.527 1.375h-.153c-.825-.092-1.467-.825-1.375-1.65l1.497-16.038c.092-.855.825-1.466 1.65-1.375.824.092 1.466.825 1.374 1.65l-1.466 16.038Zm7.698-2.413c-.06.794-.733 1.375-1.527 1.375h-.153c-.825-.092-1.466-.825-1.375-1.65l1.497-16.038c.092-.825.825-1.467 1.65-1.375.825.092 1.466.825 1.375 1.65l-1.467 16.038Zm7.73-2.444c-.062.794-.734 1.375-1.528 1.375h-.153c-.825-.092-1.466-.825-1.375-1.65l1.497-16.038c.092-.856.825-1.467 1.65-1.375.825.092 1.466.825 1.375 1.65l-1.467 16.038Zm8.247-2.627c-.06.794-.733 1.374-1.527 1.374h-.153c-.825-.091-1.466-.824-1.375-1.65l1.497-16.037c.092-.825.825-1.467 1.65-1.375.825.092 1.466.825 1.375 1.65l-1.467 16.038Zm7.515-2.353c-.06.795-.733 1.375-1.527 1.375h-.153c-.825-.091-1.466-.825-1.374-1.65l1.496-16.038c.092-.824.825-1.466 1.65-1.374.825.091 1.466.824 1.375 1.65l-1.467 16.037Zm8.218-2.596c-.061.794-.733 1.375-1.527 1.375h-.153c-.825-.092-1.466-.825-1.375-1.65l1.497-16.038c.092-.825.825-1.467 1.65-1.375.825.092 1.466.825 1.374 1.65l-1.466 16.038Zm7.515-2.383c-.061.794-.733 1.375-1.527 1.375h-.153c-.825-.092-1.466-.825-1.375-1.65l1.497-16.038c.092-.825.825-1.466 1.65-1.375.825.092 1.466.825 1.374 1.65l-1.466 16.038Zm8.37-2.627c-.06.794-.733 1.374-1.527 1.374h-.153c-.824-.091-1.466-.824-1.374-1.65l1.497-16.037c.091-.856.824-1.467 1.65-1.375.824.092 1.466.825 1.374 1.65l-1.466 16.038Zm7.668-2.444c-.06.794-.733 1.375-1.527 1.375h-.153c-.825-.092-1.466-.825-1.375-1.65l1.497-16.038c.092-.856.825-1.467 1.65-1.375.825.092 1.466.825 1.375 1.65l-1.467 16.038Zm7.73-2.444c-.062.794-.734 1.375-1.528 1.375h-.153c-.825-.092-1.466-.825-1.375-1.65l1.497-16.038c.092-.856.825-1.466 1.65-1.375.825.092 1.466.825 1.375 1.65l-1.467 16.038Zm7.972-2.505c-.06.794-.733 1.375-1.527 1.375h-.153c-.825-.092-1.466-.825-1.374-1.65l1.496-16.038c.092-.825.825-1.467 1.65-1.375.825.092 1.466.825 1.375 1.65l-1.467 16.038Zm8.249-2.597c-.061.795-.734 1.375-1.528 1.375h-.153c-.824-.092-1.466-.825-1.374-1.65l1.497-16.038c.091-.825.824-1.466 1.65-1.375.824.092 1.466.825 1.374 1.65l-1.466 16.038Zm7.515-2.383c-.061.795-.734 1.375-1.528 1.375h-.152c-.825-.091-1.467-.825-1.375-1.65l1.497-16.038c.091-.855.824-1.466 1.65-1.374.824.091 1.466.824 1.374 1.65l-1.466 16.037Zm8.217-2.596c-.06.794-.733 1.375-1.527 1.375h-.153c-.825-.092-1.466-.825-1.375-1.65l1.497-16.038c.092-.825.825-1.467 1.65-1.375.825.092 1.466.825 1.375 1.65l-1.467 16.038Zm7.515-2.383c-.06.794-.733 1.375-1.527 1.375h-.153c-.825-.092-1.466-.825-1.375-1.65l1.497-16.038c.092-.856.825-1.466 1.65-1.375.825.092 1.466.825 1.375 1.65l-1.467 16.038Zm8.37-2.627c-.06.794-.732 1.374-1.527 1.374h-.152c-.825-.091-1.467-.824-1.375-1.65l1.497-16.037c.091-.825.825-1.467 1.65-1.375.824.092 1.466.825 1.374 1.65l-1.466 16.038Zm7.455-2.352c-.061.794-.733 1.374-1.528 1.374h-.152c-.825-.091-1.467-.825-1.375-1.65l1.497-16.038c.091-.824.825-1.466 1.65-1.374.824.091 1.466.825 1.374 1.65l-1.466 16.038Zm8.309-2.078c-.061.794-.733 1.375-1.527 1.375h-.153c-.825-.092-1.467-.825-1.375-1.65l1.497-16.038c.092-.855.825-1.466 1.65-1.375.825.092 1.466.825 1.374 1.65l-1.466 16.038Zm152.378-46.617c-.061.794-.733 1.374-1.527 1.374h-.153c-.825-.091-1.466-.825-1.375-1.65l1.497-16.038c.092-.824.825-1.466 1.65-1.374.825.091 1.466.825 1.374 1.65l-1.466 16.038Zm7.851-2.475c-.06.794-.733 1.375-1.527 1.375h-.153c-.825-.092-1.466-.825-1.375-1.65l1.497-16.038c.092-.825.825-1.466 1.65-1.375.825.092 1.466.825 1.375 1.65l-1.467 16.038Zm7.668-2.413c-.061.794-.733 1.374-1.528 1.374h-.152c-.825-.091-1.467-.824-1.375-1.65l1.497-16.037c.092-.825.825-1.467 1.65-1.375.824.092 1.466.825 1.374 1.65l-1.466 16.038Zm7.729-2.444c-.061.794-.733 1.375-1.528 1.375h-.152c-.825-.092-1.467-.825-1.375-1.65l1.497-16.038c.091-.825.825-1.467 1.65-1.375.824.092 1.466.825 1.374 1.65l-1.466 16.038Zm8.34-2.627c-.061.794-.733 1.374-1.528 1.374h-.153c-.824-.091-1.466-.825-1.374-1.65l1.497-16.038c.091-.824.825-1.466 1.65-1.374.824.091 1.466.825 1.374 1.65l-1.466 16.038Zm7.484-2.383c-.06.794-.733 1.374-1.527 1.374h-.153c-.825-.091-1.466-.824-1.375-1.65l1.497-16.037c.092-.825.825-1.467 1.65-1.375.825.092 1.466.825 1.375 1.65l-1.467 16.038Zm7.882-2.475c-.061.795-.733 1.375-1.528 1.375h-.152c-.825-.092-1.467-.825-1.375-1.65l1.497-16.038c.091-.825.825-1.466 1.65-1.375.824.092 1.466.825 1.374 1.65l-1.466 16.038Zm7.668-2.444c-.062.795-.734 1.375-1.528 1.375h-.153c-.824-.092-1.466-.825-1.374-1.65l1.497-16.038c.091-.825.824-1.466 1.65-1.374.824.091 1.466.824 1.374 1.65l-1.466 16.037Zm7.728-2.444c-.06.795-.733 1.375-1.527 1.375h-.153c-.825-.091-1.466-.825-1.374-1.65l1.496-16.038c.092-.824.825-1.466 1.65-1.374.825.091 1.466.824 1.375 1.65l-1.467 16.037Zm8.34-2.627c-.06.795-.733 1.375-1.527 1.375h-.153c-.825-.092-1.466-.825-1.375-1.65l1.497-16.038c.092-.825.825-1.466 1.65-1.375.825.092 1.466.825 1.375 1.65l-1.467 16.038Zm7.485-2.352c-.061.794-.733 1.375-1.528 1.375h-.152c-.825-.092-1.467-.825-1.375-1.65l1.497-16.038c.091-.825.825-1.466 1.65-1.375.824.092 1.466.825 1.374 1.65l-1.466 16.038Zm8.217-2.597c-.06.795-.733 1.375-1.527 1.375h-.153c-.825-.092-1.466-.825-1.374-1.65l1.496-16.038c.092-.825.825-1.466 1.65-1.374.825.091 1.466.824 1.375 1.65l-1.467 16.037Zm7.515-2.382c-.06.794-.733 1.374-1.527 1.374h-.153c-.825-.091-1.466-.825-1.374-1.65l1.496-16.038c.092-.824.825-1.466 1.65-1.374.825.091 1.466.825 1.375 1.65l-1.467 16.038Zm8.401-2.628c-.06.795-.733 1.375-1.527 1.375h-.153c-.825-.092-1.466-.825-1.374-1.65l1.496-16.038c.092-.825.825-1.466 1.65-1.375.825.092 1.466.825 1.375 1.65l-1.467 16.038Zm7.668-2.444c-.06.795-.733 1.375-1.527 1.375h-.153c-.825-.092-1.466-.825-1.375-1.65l1.497-16.038c.092-.825.825-1.466 1.65-1.374.825.091 1.466.824 1.375 1.65l-1.467 16.037Zm7.73-2.443c-.062.794-.734 1.374-1.528 1.374h-.153c-.825-.091-1.466-.825-1.375-1.65l1.497-16.038c.092-.824.825-1.466 1.65-1.374.825.091 1.466.824 1.374 1.65l-1.466 16.038Zm7.758-2.444c-.06.794-.733 1.374-1.527 1.374h-.153c-.825-.091-1.466-.825-1.374-1.65l1.497-16.038c.091-.824.824-1.466 1.65-1.374.824.091 1.465.825 1.374 1.65l-1.466 16.038Zm7.516-2.383c-.062.794-.734 1.374-1.528 1.374h-.153c-.824-.091-1.466-.824-1.374-1.65l1.497-16.037c.091-.825.824-1.467 1.65-1.375.824.092 1.466.825 1.374 1.65l-1.466 16.038Zm8.217-2.597c-.06.794-.733 1.375-1.527 1.375h-.153c-.825-.092-1.466-.825-1.375-1.65l1.497-16.038c.092-.825.825-1.466 1.65-1.375.825.092 1.466.825 1.375 1.65l-1.467 16.038Zm7.515-2.352c-.06.794-.733 1.375-1.527 1.375h-.153c-.825-.092-1.466-.825-1.375-1.65l1.497-16.038c.092-.825.825-1.467 1.65-1.375.825.092 1.466.825 1.375 1.65l-1.467 16.038Zm8.37-2.658c-.06.794-.733 1.375-1.527 1.375h-.153c-.824-.092-1.466-.825-1.374-1.65l1.497-16.038c.091-.825.824-1.466 1.65-1.375.824.092 1.466.825 1.374 1.65l-1.466 16.038Zm7.699-2.413c-.061.794-.733 1.374-1.527 1.374h-.153c-.825-.091-1.467-.824-1.375-1.65l1.497-16.037c.092-.825.825-1.467 1.65-1.375.824.092 1.466.825 1.374 1.65l-1.466 16.038Zm7.729-2.444c-.061.794-.733 1.375-1.528 1.375h-.152c-.825-.092-1.467-.825-1.375-1.65l1.497-16.038c.091-.825.825-1.467 1.65-1.375.824.092 1.466.825 1.374 1.65l-1.466 16.038Zm8.248-2.627c-.061.794-.733 1.374-1.527 1.374h-.153c-.825-.091-1.466-.825-1.375-1.65l1.497-16.037c.092-.825.825-1.467 1.65-1.375.825.091 1.466.825 1.374 1.65l-1.466 16.038Zm7.515-2.353c-.061.795-.733 1.375-1.527 1.375h-.153c-.825-.092-1.466-.825-1.375-1.65l1.497-16.038c.092-.825.825-1.466 1.65-1.374.825.091 1.466.824 1.374 1.65l-1.466 16.037Zm8.218-2.596c-.061.794-.733 1.374-1.528 1.374h-.152c-.825-.091-1.467-.824-1.375-1.65l1.497-16.037c.091-.825.825-1.467 1.65-1.375.824.092 1.466.825 1.374 1.65l-1.466 16.038Zm7.515-2.383c-.061.794-.733 1.375-1.528 1.375h-.152c-.825-.092-1.467-.825-1.375-1.65l1.497-16.038c.091-.825.825-1.467 1.65-1.375.824.092 1.466.825 1.374 1.65l-1.466 16.038Zm8.37-2.658c-.06.794-.733 1.375-1.527 1.375h-.153c-.825-.092-1.466-.825-1.375-1.65l1.497-16.038c.092-.825.825-1.466 1.65-1.375.825.092 1.466.825 1.375 1.65l-1.467 16.038Zm7.668-2.413c-.061.794-.733 1.374-1.527 1.374h-.153c-.825-.091-1.467-.824-1.375-1.65l1.497-16.037c.092-.825.825-1.467 1.65-1.375.824.092 1.466.825 1.374 1.65l-1.466 16.038Zm7.729-2.444c-.061.794-.733 1.375-1.528 1.375h-.152c-.825-.092-1.467-.825-1.375-1.65l1.497-16.038c.092-.825.825-1.467 1.65-1.375.824.092 1.466.825 1.374 1.65l-1.466 16.038Zm7.973-2.505c-.06.794-.733 1.375-1.527 1.375h-.153c-.825-.092-1.466-.825-1.375-1.65l1.497-16.038c.092-.825.825-1.467 1.65-1.375.825.092 1.466.825 1.374 1.65l-1.466 16.038Zm8.248-2.627c-.06.794-.733 1.374-1.527 1.374h-.153c-.825-.091-1.466-.825-1.375-1.65l1.497-16.037c.092-.825.825-1.467 1.65-1.375.825.091 1.466.825 1.375 1.65l-1.467 16.038Zm7.515-2.353c-.06.795-.733 1.375-1.527 1.375h-.153c-.825-.092-1.466-.825-1.374-1.65l1.496-16.038c.092-.825.825-1.466 1.65-1.374.825.091 1.466.824 1.375 1.65l-1.467 16.037Zm8.218-2.596c-.061.794-.733 1.374-1.527 1.374h-.153c-.825-.091-1.467-.824-1.375-1.65l1.497-16.037c.092-.825.825-1.467 1.65-1.375.825.092 1.466.825 1.374 1.65l-1.466 16.038Zm7.515-2.383c-.061.794-.733 1.375-1.527 1.375h-.153c-.825-.092-1.466-.825-1.375-1.65l1.497-16.038c.092-.825.825-1.467 1.65-1.375.825.092 1.466.825 1.374 1.65l-1.466 16.038Zm8.37-3.238c-.06.794-.733 1.374-1.527 1.374h-.153c-.824-.091-1.466-.824-1.374-1.65l1.496-16.037c.092-.825.825-1.467 1.65-1.375.825.091 1.466.825 1.375 1.65l-1.466 16.038Zm7.454-3.88c-.06.794-.733 1.375-1.527 1.375h-.153c-.825-.092-1.466-.825-1.375-1.65l1.497-16.038c.092-.825.825-1.467 1.65-1.375.825.092 1.466.825 1.375 1.65l-1.467 16.038Zm7.485-6.63c-.061.795-.733 1.376-1.528 1.376h-.152c-.825-.092-1.467-.825-1.375-1.65l1.497-16.038c.092-.825.825-1.467 1.65-1.375.824.092 1.466.825 1.374 1.65l-1.466 16.038ZM976.208 349.785C920.67 367.504 295.18 560.787 295.18 560.787c-25.66 8.431-37.208 21.781-37.208 46.862V640c0-25.08 11.547-38.43 37.208-46.862 0 0 625.49-193.253 681.028-211.001 27.616-8.83 45.426-20.346 45.426-45.396v-32.352c0 25.05-17.81 36.568-45.426 45.396Zm-708.46 251.662c-.062.795-.734 1.375-1.528 1.375h-.153c-.825-.092-1.466-.825-1.374-1.65l1.496-16.038c.092-.855.825-1.466 1.65-1.375.825.092 1.466.825 1.375 1.65l-1.467 16.038Zm8.43-8.034c-.06.794-.732 1.375-1.527 1.375h-.152c-.825-.092-1.467-.825-1.375-1.65l1.497-16.038c.092-.825.825-1.467 1.65-1.375.824.092 1.466.825 1.374 1.65l-1.466 16.038Zm8.127-5.59a1.526 1.526 0 0 1-1.528 1.374h-.152c-.825-.092-1.467-.825-1.375-1.68l1.589-16.038a1.563 1.563 0 0 1 1.68-1.375c.825.092 1.466.825 1.374 1.68l-1.588 16.038Zm7.851-2.414a1.526 1.526 0 0 1-1.527 1.375h-.153c-.825-.092-1.467-.825-1.375-1.68l1.589-16.039c.091-.824.824-1.466 1.68-1.374.825.091 1.466.825 1.375 1.68l-1.589 16.038Zm7.698-2.383a1.526 1.526 0 0 1-1.527 1.375h-.153c-.825-.092-1.466-.825-1.375-1.68l1.589-16.038c.092-.825.825-1.467 1.68-1.375.825.092 1.467.825 1.375 1.68l-1.589 16.038Zm7.73-2.383a1.526 1.526 0 0 1-1.528 1.375h-.153c-.825-.091-1.466-.825-1.375-1.68l1.589-16.038c.092-.825.825-1.467 1.68-1.375.825.092 1.466.825 1.375 1.68l-1.589 16.038Zm8.34-2.596a1.526 1.526 0 0 1-1.528 1.374h-.153c-.825-.091-1.466-.824-1.375-1.68l1.589-16.038a1.563 1.563 0 0 1 1.68-1.375c.825.092 1.466.825 1.375 1.68l-1.589 16.039Zm7.514-2.322a1.526 1.526 0 0 1-1.527 1.375h-.153c-.825-.092-1.466-.825-1.375-1.68l1.589-16.039c.091-.824.825-1.466 1.68-1.374.825.091 1.466.825 1.375 1.68l-1.589 16.038Zm7.882-2.444a1.526 1.526 0 0 1-1.528 1.375h-.152c-.825-.092-1.467-.825-1.375-1.68l1.588-16.039c.092-.824.825-1.466 1.68-1.374.825.091 1.467.825 1.375 1.68l-1.588 16.038Zm7.698-2.352a1.526 1.526 0 0 1-1.527 1.375h-.153c-.825-.092-1.466-.825-1.375-1.68l1.589-16.039c.091-.825.825-1.466 1.68-1.374.825.091 1.466.824 1.375 1.68l-1.589 16.038Zm7.76-2.413a1.526 1.526 0 0 1-1.528 1.374h-.153c-.825-.091-1.466-.825-1.374-1.68l1.588-16.038c.092-.825.825-1.467 1.68-1.375.825.092 1.467.825 1.375 1.68l-1.589 16.039Zm8.309-2.567a1.526 1.526 0 0 1-1.528 1.375h-.152c-.825-.092-1.467-.825-1.375-1.68l1.588-16.038a1.563 1.563 0 0 1 1.68-1.375c.825.092 1.467.825 1.375 1.68l-1.588 16.038Zm7.545-2.321a1.526 1.526 0 0 1-1.527 1.374h-.153c-.825-.091-1.466-.824-1.374-1.68l1.588-16.038a1.563 1.563 0 0 1 1.68-1.375c.825.092 1.467.825 1.375 1.68l-1.589 16.039Zm8.218-2.566a1.526 1.526 0 0 1-1.527 1.374h-.153c-.825-.091-1.466-.825-1.375-1.68l1.589-16.038c.091-.825.825-1.466 1.68-1.375.825.092 1.466.825 1.375 1.68l-1.589 16.039Zm7.546-2.322a1.526 1.526 0 0 1-1.528 1.375h-.153c-.824-.092-1.466-.825-1.374-1.68l1.588-16.039c.092-.825.825-1.466 1.68-1.375.825.092 1.467.825 1.375 1.68l-1.588 16.039Zm8.37-2.597a1.526 1.526 0 0 1-1.527 1.375h-.153c-.825-.092-1.466-.825-1.375-1.68L385.3 539.8a1.563 1.563 0 0 1 1.68-1.375c.825.091 1.466.825 1.375 1.68l-1.589 16.038Zm7.698-2.383a1.526 1.526 0 0 1-1.527 1.375h-.153c-.825-.092-1.466-.825-1.375-1.68l1.589-16.038a1.563 1.563 0 0 1 1.68-1.375c.825.092 1.467.825 1.375 1.68l-1.589 16.038Zm7.76-2.382a1.526 1.526 0 0 1-1.528 1.374h-.152c-.825-.091-1.467-.825-1.375-1.68l1.588-16.038a1.563 1.563 0 0 1 1.68-1.375c.825.092 1.467.825 1.375 1.68l-1.588 16.039Zm7.79-2.414a1.526 1.526 0 0 1-1.528 1.375h-.152c-.825-.092-1.467-.825-1.375-1.68l1.588-16.038a1.563 1.563 0 0 1 1.68-1.375c.825.091 1.467.825 1.375 1.68l-1.588 16.038Zm7.515-2.322a1.526 1.526 0 0 1-1.528 1.375h-.152c-.825-.091-1.467-.825-1.375-1.68l1.588-16.038c.092-.825.825-1.467 1.68-1.375.825.092 1.467.825 1.375 1.68l-1.588 16.038Zm8.217-2.535a1.526 1.526 0 0 1-1.527 1.375h-.153c-.825-.092-1.466-.825-1.374-1.68l1.588-16.039c.092-.825.825-1.466 1.68-1.374.825.091 1.467.824 1.375 1.68l-1.589 16.038Zm7.546-2.322a1.526 1.526 0 0 1-1.527 1.375h-.153c-.825-.092-1.466-.825-1.375-1.68l1.589-16.038c.091-.825.825-1.467 1.68-1.375.825.092 1.466.825 1.375 1.68l-1.589 16.038Zm8.401-2.596a1.526 1.526 0 0 1-1.527 1.374h-.153c-.825-.091-1.467-.825-1.375-1.68l1.589-16.038c.091-.825.824-1.467 1.68-1.375.825.092 1.466.825 1.375 1.68l-1.589 16.039Zm7.668-2.383a1.526 1.526 0 0 1-1.528 1.374h-.152c-.825-.091-1.467-.824-1.375-1.68l1.588-16.038c.092-.825.825-1.466 1.68-1.375.825.092 1.467.825 1.375 1.68l-1.588 16.039Zm7.76-2.383a1.526 1.526 0 0 1-1.528 1.375h-.153c-.825-.092-1.466-.825-1.375-1.68l1.589-16.039c.092-.825.825-1.466 1.68-1.374.825.091 1.466.824 1.375 1.68l-1.589 16.038Zm8.278-2.566a1.526 1.526 0 0 1-1.527 1.375h-.153c-.825-.092-1.467-.825-1.375-1.68l1.589-16.039a1.563 1.563 0 0 1 1.68-1.375c.825.092 1.466.825 1.375 1.68l-1.589 16.039Zm7.515-2.322a1.526 1.526 0 0 1-1.527 1.375h-.153c-.825-.092-1.467-.825-1.375-1.68l1.589-16.039a1.563 1.563 0 0 1 1.68-1.374c.825.091 1.466.825 1.375 1.68l-1.589 16.038Zm8.218-2.566a1.526 1.526 0 0 1-1.528 1.375h-.153c-.824-.092-1.466-.825-1.374-1.68l1.588-16.039c.092-.825.825-1.466 1.68-1.374.825.091 1.467.824 1.375 1.68l-1.588 16.038Zm7.545-2.322a1.526 1.526 0 0 1-1.527 1.375h-.153c-.825-.092-1.466-.825-1.375-1.68l1.589-16.038c.092-.825.825-1.467 1.68-1.375.825.092 1.466.825 1.375 1.68l-1.589 16.038Zm8.401-2.596a1.526 1.526 0 0 1-1.527 1.374h-.153c-.825-.091-1.466-.825-1.375-1.68l1.589-16.038c.092-.825.825-1.466 1.68-1.375.825.092 1.466.825 1.375 1.68l-1.589 16.039Zm7.668-2.383a1.526 1.526 0 0 1-1.527 1.374h-.153c-.825-.091-1.467-.824-1.375-1.68l1.589-16.038c.091-.825.824-1.466 1.68-1.375.825.092 1.466.825 1.375 1.68l-1.589 16.039Zm7.76-2.383a1.526 1.526 0 0 1-1.528 1.375h-.153c-.825-.092-1.466-.825-1.374-1.68l1.588-16.039c.092-.825.825-1.466 1.68-1.374.825.091 1.467.824 1.375 1.68l-1.589 16.038Zm7.973-2.475a1.526 1.526 0 0 1-1.528 1.375h-.152c-.825-.091-1.467-.825-1.375-1.68l1.588-16.038a1.563 1.563 0 0 1 1.68-1.375c.825.092 1.467.825 1.375 1.68l-1.588 16.038Zm8.278-2.566a1.526 1.526 0 0 1-1.527 1.375h-.153c-.825-.092-1.466-.825-1.374-1.68l1.588-16.038a1.563 1.563 0 0 1 1.68-1.375c.825.092 1.467.825 1.375 1.68l-1.589 16.038Zm7.515-2.321a1.526 1.526 0 0 1-1.527 1.374h-.153c-.824-.091-1.466-.824-1.374-1.68l1.588-16.038a1.563 1.563 0 0 1 1.68-1.375c.825.092 1.467.825 1.375 1.68l-1.589 16.039Zm8.249-2.536a1.526 1.526 0 0 1-1.528 1.375h-.152c-.825-.092-1.467-.825-1.375-1.68l1.588-16.039c.092-.824.825-1.466 1.68-1.374.825.091 1.467.825 1.375 1.68l-1.588 16.038Zm7.515-2.322a1.526 1.526 0 0 1-1.528 1.375h-.152c-.825-.092-1.467-.825-1.375-1.68l1.588-16.038c.092-.825.825-1.467 1.68-1.375.825.092 1.467.825 1.375 1.68l-1.588 16.038Zm8.4-2.596a1.526 1.526 0 0 1-1.527 1.374h-.152c-.825-.091-1.467-.824-1.375-1.68l1.588-16.038a1.563 1.563 0 0 1 1.68-1.375c.825.092 1.467.825 1.375 1.68l-1.588 16.039Zm7.455-2.291a1.526 1.526 0 0 1-1.528 1.374h-.153c-.824-.091-1.466-.825-1.374-1.68l1.588-16.038c.092-.825.825-1.466 1.68-1.375.825.092 1.467.825 1.375 1.68l-1.588 16.039Zm8.003-2.81a1.526 1.526 0 0 1-1.527 1.374h-.153c-.825-.092-1.466-.825-1.374-1.68l1.588-16.039c.092-.824.825-1.466 1.68-1.374.825.091 1.467.825 1.375 1.68l-1.589 16.038Zm7.852-2.445a1.526 1.526 0 0 1-1.528 1.375h-.153c-.824-.092-1.466-.825-1.374-1.68l1.588-16.039a1.563 1.563 0 0 1 1.68-1.374c.825.091 1.467.825 1.375 1.68l-1.588 16.038Zm7.698-2.383a1.526 1.526 0 0 1-1.528 1.375h-.152c-.825-.092-1.467-.825-1.375-1.68l1.589-16.038a1.563 1.563 0 0 1 1.68-1.375c.824.092 1.466.825 1.374 1.68l-1.588 16.038Zm7.729-2.382a1.526 1.526 0 0 1-1.528 1.374h-.152c-.825-.091-1.467-.825-1.375-1.68l1.588-16.038a1.563 1.563 0 0 1 1.68-1.375c.825.092 1.467.825 1.375 1.68l-1.588 16.039Zm8.34-2.567a1.526 1.526 0 0 1-1.528 1.375h-.153c-.824-.092-1.466-.825-1.374-1.68l1.588-16.038a1.563 1.563 0 0 1 1.68-1.375c.825.092 1.467.825 1.375 1.68l-1.588 16.038Zm7.515-2.321a1.526 1.526 0 0 1-1.528 1.374h-.153c-.824-.091-1.466-.824-1.374-1.68l1.588-16.038c.092-.825.825-1.466 1.68-1.375.825.092 1.467.825 1.375 1.68l-1.588 16.039Zm7.881-2.444a1.526 1.526 0 0 1-1.527 1.374h-.153c-.825-.091-1.466-.824-1.375-1.68l1.589-16.038c.092-.825.825-1.466 1.68-1.375.825.092 1.466.825 1.375 1.68l-1.589 16.039Zm7.699-2.383a1.526 1.526 0 0 1-1.528 1.375h-.153c-.824-.092-1.466-.825-1.374-1.68l1.588-16.039c.092-.825.825-1.466 1.68-1.374.825.091 1.467.824 1.375 1.68l-1.588 16.038Zm7.759-2.383a1.526 1.526 0 0 1-1.527 1.375h-.153c-.825-.092-1.467-.825-1.375-1.68l1.589-16.039c.091-.824.824-1.466 1.68-1.374.825.091 1.466.825 1.375 1.68l-1.589 16.038Zm8.31-2.596a1.526 1.526 0 0 1-1.528 1.374h-.153c-.825-.091-1.466-.825-1.375-1.68l1.589-16.038c.092-.825.825-1.467 1.68-1.375.825.092 1.467.825 1.375 1.68l-1.589 16.039Zm7.545-2.322a1.526 1.526 0 0 1-1.528 1.374h-.152c-.825-.091-1.467-.824-1.375-1.68l1.589-16.038c.091-.825.824-1.466 1.68-1.375.825.092 1.466.825 1.374 1.68l-1.588 16.039Zm8.218-2.536a1.526 1.526 0 0 1-1.528 1.375h-.153c-.824-.092-1.466-.825-1.374-1.68l1.588-16.038c.092-.825.825-1.467 1.68-1.375.825.091 1.467.825 1.375 1.68l-1.588 16.038Zm7.515-2.322a1.526 1.526 0 0 1-1.528 1.375h-.153c-.824-.091-1.466-.825-1.374-1.68l1.588-16.038c.092-.825.825-1.467 1.68-1.375.825.092 1.467.825 1.375 1.68l-1.588 16.038Zm8.4-2.596a1.526 1.526 0 0 1-1.527 1.375h-.153c-.824-.092-1.466-.825-1.374-1.68l1.588-16.039c.092-.825.825-1.466 1.68-1.375.825.092 1.467.825 1.375 1.68l-1.588 16.039Zm7.699-2.383a1.526 1.526 0 0 1-1.528 1.375h-.152c-.825-.092-1.467-.825-1.375-1.68l1.589-16.039a1.563 1.563 0 0 1 1.68-1.374c.825.091 1.466.824 1.374 1.68l-1.588 16.038Zm7.76-2.413a1.526 1.526 0 0 1-1.528 1.374h-.153c-.825-.091-1.466-.824-1.375-1.68l1.589-16.038c.092-.825.825-1.466 1.68-1.375.825.092 1.467.825 1.375 1.68l-1.589 16.039Zm7.79-2.383a1.526 1.526 0 0 1-1.528 1.375h-.153c-.825-.092-1.466-.825-1.375-1.68l1.589-16.039a1.563 1.563 0 0 1 1.68-1.375c.825.092 1.467.825 1.375 1.68l-1.589 16.039Zm7.514-2.352a1.526 1.526 0 0 1-1.527 1.374h-.153c-.825-.091-1.466-.825-1.375-1.68l1.589-16.038a1.563 1.563 0 0 1 1.68-1.375c.825.092 1.467.825 1.375 1.68l-1.589 16.039Zm8.218-2.536a1.526 1.526 0 0 1-1.527 1.375h-.153c-.825-.092-1.467-.825-1.375-1.68l1.589-16.039c.091-.825.824-1.466 1.68-1.374.825.091 1.466.824 1.375 1.68l-1.589 16.038Zm7.546-2.322a1.526 1.526 0 0 1-1.528 1.375h-.153c-.824-.092-1.466-.825-1.374-1.68l1.588-16.038c.092-.825.825-1.467 1.68-1.375.825.092 1.467.825 1.375 1.68l-1.588 16.038Zm8.37-2.596a1.526 1.526 0 0 1-1.527 1.374h-.153c-.825-.091-1.467-.824-1.375-1.68l1.589-16.038c.091-.825.824-1.466 1.68-1.375.825.092 1.466.825 1.375 1.68l-1.589 16.039Zm7.698-2.383a1.526 1.526 0 0 1-1.527 1.375h-.153c-.825-.092-1.466-.825-1.375-1.68l1.589-16.039c.092-.825.825-1.466 1.68-1.375.825.092 1.466.825 1.375 1.68l-1.589 16.039Zm7.76-2.383a1.526 1.526 0 0 1-1.528 1.375h-.152c-.825-.092-1.467-.825-1.375-1.68l1.588-16.039c.092-.825.825-1.466 1.68-1.374.825.091 1.467.824 1.375 1.68l-1.588 16.038Zm8.248-2.566a1.526 1.526 0 0 1-1.528 1.375h-.152c-.825-.092-1.467-.825-1.375-1.68l1.589-16.039c.091-.825.824-1.466 1.68-1.374.825.091 1.466.824 1.374 1.68l-1.588 16.038Zm7.545-2.322a1.526 1.526 0 0 1-1.527 1.375h-.153c-.824-.092-1.466-.825-1.374-1.68l1.588-16.039c.092-.824.825-1.466 1.68-1.374.825.091 1.467.825 1.375 1.68l-1.589 16.038Zm8.218-2.535a1.526 1.526 0 0 1-1.527 1.374h-.153c-.825-.091-1.466-.825-1.375-1.68l1.589-16.038c.091-.825.825-1.466 1.68-1.375.825.092 1.466.825 1.375 1.68l-1.589 16.039Zm7.546-2.322a1.526 1.526 0 0 1-1.528 1.375h-.152c-.825-.092-1.467-.825-1.375-1.68l1.588-16.039c.092-.825.825-1.466 1.68-1.374.825.091 1.467.824 1.375 1.68l-1.588 16.038Zm8.37-2.597a1.526 1.526 0 0 1-1.527 1.375h-.153c-.825-.092-1.466-.825-1.375-1.68l1.589-16.038c.091-.825.825-1.467 1.68-1.375.825.092 1.466.825 1.375 1.68l-1.589 16.038Zm7.699-2.383a1.526 1.526 0 0 1-1.528 1.375h-.153c-.825-.092-1.466-.825-1.374-1.68l1.588-16.038c.092-.825.825-1.467 1.68-1.375.825.092 1.467.825 1.375 1.68l-1.588 16.038Zm7.759-2.413a1.526 1.526 0 0 1-1.527 1.375h-.153c-.825-.092-1.467-.825-1.375-1.68l1.589-16.039c.091-.824.824-1.466 1.68-1.374.825.091 1.466.825 1.374 1.68l-1.588 16.038Zm7.973-2.474a1.526 1.526 0 0 1-1.527 1.374h-.153c-.825-.091-1.466-.825-1.375-1.68l1.589-16.038a1.563 1.563 0 0 1 1.68-1.375c.825.092 1.466.825 1.375 1.68l-1.589 16.039Zm8.279-2.536a1.526 1.526 0 0 1-1.527 1.375h-.153c-.825-.092-1.467-.825-1.375-1.68l1.589-16.039c.091-.824.824-1.466 1.68-1.374.825.091 1.466.824 1.374 1.68l-1.588 16.038Zm7.515-2.322a1.526 1.526 0 0 1-1.527 1.375h-.153c-.825-.092-1.467-.825-1.375-1.68l1.589-16.038c.091-.825.824-1.467 1.68-1.375.825.092 1.466.825 1.375 1.68l-1.589 16.038Zm8.248-2.566a1.526 1.526 0 0 1-1.527 1.375h-.153c-.825-.092-1.466-.825-1.375-1.68l1.589-16.039a1.563 1.563 0 0 1 1.68-1.374c.825.091 1.466.825 1.375 1.68l-1.589 16.038Zm7.515-2.322a1.526 1.526 0 0 1-1.527 1.375h-.153c-.825-.091-1.466-.825-1.375-1.68l1.589-16.038a1.563 1.563 0 0 1 1.68-1.375c.825.092 1.466.825 1.375 1.68l-1.589 16.038Zm8.401-2.596a1.526 1.526 0 0 1-1.527 1.375h-.153c-.825-.092-1.466-.825-1.375-1.68l1.589-16.039c.091-.825.825-1.466 1.68-1.375.825.092 1.466.825 1.375 1.68l-1.589 16.039Zm7.454-2.291a1.526 1.526 0 0 1-1.527 1.374h-.153c-.825-.091-1.466-.824-1.375-1.68l1.589-16.038a1.563 1.563 0 0 1 1.68-1.375c.825.092 1.466.825 1.375 1.68l-1.589 16.039Zm6.874-2.81a1.526 1.526 0 0 1-1.528 1.374h-.153c-.824-.092-1.466-.825-1.374-1.68l1.588-16.039c.092-.824.825-1.466 1.68-1.374.825.091 1.467.825 1.375 1.68l-1.588 16.038Zm7.79-2.414a1.526 1.526 0 0 1-1.528 1.374h-.153c-.824-.091-1.466-.824-1.374-1.68l1.588-16.038c.092-.825.825-1.466 1.68-1.375.825.092 1.467.825 1.375 1.68l-1.588 16.039Zm7.515-2.322a1.526 1.526 0 0 1-1.528 1.375h-.153c-.824-.092-1.466-.825-1.374-1.68l1.588-16.039c.092-.824.825-1.466 1.68-1.374.825.091 1.467.825 1.375 1.68l-1.588 16.038Zm8.248-2.536a1.526 1.526 0 0 1-1.528 1.375h-.152c-.825-.091-1.467-.825-1.375-1.68l1.588-16.038c.092-.825.825-1.466 1.68-1.375.826.092 1.467.825 1.375 1.68l-1.588 16.038Zm7.515-2.321a1.526 1.526 0 0 1-1.528 1.374h-.152c-.825-.091-1.467-.824-1.375-1.68l1.589-16.038c.091-.825.824-1.466 1.68-1.375.825.092 1.466.825 1.374 1.68l-1.588 16.039Zm8.4-2.597a1.526 1.526 0 0 1-1.527 1.375h-.152c-.825-.092-1.467-.825-1.375-1.68l1.589-16.039a1.563 1.563 0 0 1 1.68-1.374c.825.091 1.466.825 1.374 1.68l-1.588 16.038Zm7.7-2.383a1.526 1.526 0 0 1-1.528 1.375h-.153c-.825-.092-1.466-.825-1.375-1.68l1.589-16.038c.091-.825.825-1.467 1.68-1.375.825.092 1.466.825 1.375 1.68l-1.589 16.038Zm7.728-2.413a1.526 1.526 0 0 1-1.527 1.375h-.153c-.825-.092-1.466-.825-1.375-1.68l1.589-16.039a1.563 1.563 0 0 1 1.68-1.374c.825.091 1.466.824 1.375 1.68l-1.589 16.038Zm8.279-2.536a1.526 1.526 0 0 1-1.528 1.375h-.152c-.825-.092-1.467-.825-1.375-1.68l1.588-16.038c.092-.825.825-1.467 1.68-1.375.826.092 1.467.825 1.375 1.68l-1.588 16.038Zm7.515-2.321a1.526 1.526 0 0 1-1.528 1.374h-.152c-.825-.091-1.467-.824-1.375-1.68l1.589-16.038a1.563 1.563 0 0 1 1.68-1.375c.824.092 1.466.825 1.374 1.68l-1.588 16.039Zm8.248-2.566a1.526 1.526 0 0 1-1.527 1.374h-.153c-.825-.091-1.466-.825-1.375-1.68l1.589-16.038a1.563 1.563 0 0 1 1.68-1.375c.825.092 1.466.825 1.375 1.68l-1.589 16.039Zm7.82-2.322a1.526 1.526 0 0 1-1.527 1.375h-.153c-.824-.092-1.466-.825-1.374-1.68l1.588-16.039a1.563 1.563 0 0 1 1.68-1.375c.825.092 1.467.825 1.375 1.68l-1.588 16.039Zm8.402-2.597a1.526 1.526 0 0 1-1.528 1.375h-.153c-.825-.092-1.466-.825-1.374-1.68l1.588-16.038c.092-.825.825-1.467 1.68-1.375.825.091 1.467.825 1.375 1.68l-1.588 16.038Zm7.698-2.383a1.526 1.526 0 0 1-1.528 1.375h-.152c-.825-.092-1.467-.825-1.375-1.68l1.589-16.038a1.563 1.563 0 0 1 1.68-1.375c.825.092 1.466.825 1.374 1.68l-1.588 16.038Zm8.034-2.993a1.526 1.526 0 0 1-1.527 1.374h-.153c-.825-.091-1.466-.825-1.375-1.68l1.589-16.038a1.563 1.563 0 0 1 1.68-1.375c.825.092 1.466.825 1.375 1.68l-1.589 16.039Zm8.92-3.086a1.526 1.526 0 0 1-1.527 1.375h-.153c-.824-.092-1.466-.825-1.374-1.68l1.588-16.039c.092-.824.825-1.466 1.68-1.374.825.091 1.467.825 1.375 1.68l-1.588 16.038ZM994.72 365a1.526 1.526 0 0 1-1.527 1.374h-.153c-.825-.091-1.466-.825-1.375-1.68l1.589-16.038a1.563 1.563 0 0 1 1.68-1.375c.825.092 1.466.825 1.375 1.68L994.72 365Zm7.851-4.155a1.526 1.526 0 0 1-1.527 1.375h-.153c-.825-.092-1.466-.825-1.375-1.68l1.589-16.039c.092-.825.825-1.466 1.68-1.374.825.091 1.466.824 1.375 1.68l-1.589 16.038Zm10.448-21.934-1.589 16.038a1.526 1.526 0 0 1-1.527 1.375h-.153c-.825-.092-1.466-.825-1.374-1.68l1.588-16.039a1.563 1.563 0 0 1 1.68-1.374c.825.091 1.436.855 1.375 1.68Z"/></g><path fill="#fff" d="M257.972 353.451c0-25.05 11.547-38.4 37.208-46.862 0 0 625.49-193.253 681.028-211.001 27.616-8.829 45.426-20.346 45.426-45.427V38.308c0 25.081-17.81 36.598-45.426 45.427C920.67 101.453 295.18 294.736 295.18 294.736c-25.691 8.432-37.208 21.75-37.208 46.832v11.883m0 248.24c0-25.08 11.547-38.4 37.208-46.861 0 0 625.49-193.253 681.028-210.971 27.616-8.829 45.426-20.315 45.426-45.427V286.55c0 25.08-17.81 36.598-45.426 45.426C920.67 349.694 295.18 542.946 295.18 542.946c-25.66 8.462-37.208 21.781-37.208 46.862v11.884"/><path fill="none" stroke="#898a8e" stroke-width="6.801" d="M639.986 55.874c-51.292 0-71.057 40.02-71.057 89.264 0 51.414 22.668 89.05 71.057 89.05 46.862 0 71.27-35.07 71.27-89.05 0-51.628-23.339-89.264-71.27-89.264Z"/><path fill="#221e1f" d="M569.052 145.718c0-32.229 9.195-86.27 70.842-86.27 44.51 0 71.088 32.26 71.088 86.27 0 54.713-25.906 86.026-71.088 86.026-45.029.03-70.842-31.282-70.842-86.026"/><path fill="#f13a35" d="M573.42 145.688c0-30.61 8.706-81.963 67.269-81.963 42.28 0 67.543 30.64 67.543 81.963 0 51.994-24.591 81.78-67.543 81.78-42.769 0-67.269-29.786-67.269-81.78"/><g fill="#898a8e"><path d="m664.578 130.2 8.095 28.288c-.61 0-5.834-2.536-6.629-5.102-3.818-12.678-4.276-15-6.751-22.759 0-.672-1.925-4.368-3.819-5.315-1.588-.825-4.338-1.803-8.095.733 0 0 2.047-3.666 6.11-3.727 7.82-.183 9.959 4.124 11.089 7.881m-69.254 47.596s2.29-3.483 5.315-3.483h33.146s5.682-.153 7.3-2.016c1.376 1.894 7.424 2.016 7.424 2.016h31.374c2.352 0 5.01 3.483 5.01 3.483h-89.57"/><path d="M645.638 164.628c-1.1 0-4.552-3.238-4.552-9.134 0 5.896-3.88 9.134-4.705 9.134-3.36-1.069-8.156.642-7.056.642 6.69 0 8.064 2.535 9.44 3.146 1.374 1.07 1.13 1.283 0 1.711-.826.428-1.956.825-5.836 1.07-4.46.213-7.21-2.323-8.065-2.14-4.765 1.895-6.415 1.68-7.515 1.68l-11.944.673c-2.26 0-2.017-1.283 0-1.283 2.2 0 6.079-1.71 5.804-1.71 0 0-8.065 0-10.295-1.437-2.26-1.069 0-1.283.305-1.283.52 0 3.605-.397 4.705-.397.825 0 .825 0 .825-.427v-.856c0-3.36 6.385-4.216 10.6-5.07 3.88-1.04 3.605-1.864 3.605-2.72.275-4.46 2.78-7.21 4.766-8.217 1.65-.673 2.413.183 2.169 1.038-1.283 5.438 3.024 3.3 3.36 2.536.275-.825 6.996-8.035 6.11-12.861-.244-5.316-4.46-1.894-5.865-1.283-1.925 2.138-5.56 2.138-3.33-.58 0 0 4.735-4.92 0-7.638 0 0-4.43-1.68 1.985-1.68 6.11 0 10.845 6.751 10.845 12.25 0-5.53 4.98-12.25 11.67-12.25 6.08 0 1.68 1.68 1.68 1.68-4.216 2.719 0 7.637 0 7.637 2.505 2.72-1.13 2.72-3.36.58-1.406-.58-5.866-4.001-6.14 1.284-.306 4.857 6.14 12.036 6.69 12.86 0 0 2.81 2.323 3.635-.64v-1.895c-.275-.825.275-1.71 1.68-1.038 1.894 1.038 4.705 3.757 5.255 8.217 0 .856-.55 1.68 3.635 2.72 3.36.824 10.02 1.68 10.02 5.07v.856c0 .427 0 .427.794.427 1.13 0 3.91.397 4.796.397.245 0 2.444.214.245 1.283-1.68 1.436-11.12 1.436-10.876 1.65.795.611 3.91 1.497 6.11 1.497 2.505 0 2.505 1.283 0 1.283l-11.12-.672c-1.374 0-3.36.672-8.34-1.253-.55-.244-3.054 1.894-7.79 1.711-4.154-.244-5.285-.641-6.17-1.069-1.04-.428-1.314-.642 0-1.71 1.16-.612 2.81-3.147 10.356-3.147.641 0-4.491-1.711-8.126-.642m3.574-75.272c9.378.244 10.784 8.095 10.784 8.095 2.718 9.165 5.132 17.077 5.162 17.046-2.596-1.558-5.162-2.596-5.926-4.826-2.26-6.385-2.475-7.943-3.788-11.731 0 0-1.344-5.346-6.782-5.407-4.674-.061-6.324 1.955-7.607 4.43-.886-2.353-3.146-4.583-7.637-4.43-5.407.183-6.69 5.407-6.69 5.407-1.344 3.818-1.558 5.346-3.819 11.73-.794 2.23-3.33 3.27-5.926 4.827-.245-.03 2.444-7.881 5.132-17.046 0 0 1.436-7.851 10.814-8.095 5.5-.184 8.096 2.993 8.187 5.376.092-2.352 2.536-5.53 8.096-5.376"/><path d="M626.545 114.925c10.264 0 14.54 10.509 14.54 10.937 0-.428 4.553-10.937 14.817-10.937 15.763 0 18.39 12.311 18.39 12.311 1.375 3.819 9.44 35.712 9.44 35.712s-5.987-2.688-6.873-5.53c-5.01-15.702-5.59-21.384-8.462-30.365 0 0-2.017-8.126-13.167-8.187-10.112-.061-14.144 11.792-14.144 11.792s-3.758-11.853-13.93-11.792c-11.09.092-13.106 8.187-13.106 8.187-2.872 8.981-3.513 14.663-8.462 30.366-.916 2.84-6.874 5.529-6.874 5.529s8.065-31.893 9.47-35.712c0 0 2.567-12.311 18.36-12.311m14.878-33.543c0-1.527 1.191-2.688 2.902-2.657 2.566.03 3.177 2.138 3.177 2.138.825 2.383 3.177 7.76 3.177 7.76-.672-.153-3.207-1.04-3.818-2.414a72.397 72.397 0 0 1-1.711-4.246c-1.07-2.536-3.238-1.62-3.727-.58m1.008 18.237c.489-2.658 2.2-3.727 4.888-3.513 3.544.275 4.735 4.063 4.735 4.063 1.13 3.819 4.124 12.739 4.124 12.739-1.1-.245-5.071-1.833-5.926-4.063-1.009-2.841-.795-2.994-2.2-7.24-1.436-5.59-5.621-1.986-5.621-1.986m-2.413 0s-4.186-3.635-5.744 2.016c-1.313 4.247-1.1 4.4-2.169 7.24-.824 2.23-4.765 3.819-5.926 4.063 0 0 3.055-8.89 4.185-12.738 0 0 1.13-3.82 4.735-4.064 2.689-.244 4.4.825 4.919 3.483"/><path d="M617.624 130.2c1.1-3.789 3.3-8.096 11.059-7.882 4.094.061 6.11 3.727 6.11 3.727-3.788-2.536-6.477-1.558-8.096-.733-1.833.947-3.757 4.643-3.757 5.315-2.505 7.76-2.994 10.081-6.813 22.76-.763 2.535-5.987 5.1-6.598 5.1.03.031 6.996-24.255 8.095-28.288m23.462-27.585s2.26 5.07 6.507 9.5c-5.01 1.467-6.507 4.094-6.507 4.094s-1.405-2.627-6.14-4.093c4.43-4.43 6.14-9.501 6.14-9.501m-.245-21.232c-.458-1.038-2.627-1.955-3.696.611a56.356 56.356 0 0 1-1.741 4.247c-.58 1.374-3.086 2.26-3.819 2.413 0 0 2.322-5.377 3.208-7.76 0 0 .61-2.107 3.146-2.138 1.711-.061 2.933 1.13 2.902 2.627m.245 1.436s.947 1.528 3.544 4.124c-2.994.886-3.544 2.475-3.544 2.475s-.397-1.62-3.3-2.505c2.842-2.689 3.3-4.094 3.3-4.094m-29.571 111.443c1.069-2.353 2.474-5.377 2.474-8.065 0-2.353 1.1-4.124 4.124-4.124 2.963 0 4.857 3.054 6.17 5.285.581.977 5.744 11.455 6.966 14.235 1.13 2.597 2.963 1.039 2.963 2.964 0 2.505-4.857 2.382-6.568 2.382-4.888 0-7.82-.03-7.82-2.138 0-1.65 2.077-1.039 2.077-2.23 0-1.528-.855-1.68-6.354-1.68-1.772 0-2.841.06-2.841 1.741 0 1.344 2.2.458 2.2 2.23 0 2.047-3.697 2.077-5.072 2.077-4.888 0-5.315-.916-5.315-2.016 0-1.619 1.833-1.13 2.84-2.352.765-.917 1.467-2.566 1.987-3.666l2.169-4.643Zm7.148 2.444c.336 0 1.375.06 1.375-.459s-.978-2.29-1.253-2.78c-.305-.55-.886-1.802-1.65-1.802-.824 0-1.405 2.047-1.527 2.413-.122.367-.703 1.711-.703 2.108 0 .58.856.489 1.222.489l2.536.03Zm19.215-8.86c0-2.566-3.177-1.191-3.177-3.36 0-1.375 1.497-1.65 2.566-1.65.856 0 1.68.061 2.536.061 4.949 0 8.645-.519 9.409-.519 4.643 0 9.134 2.475 9.134 7.576 0 5.102-4.307 7.82-9.042 7.82-1.04 0-2.047-.183-2.964-.183-.397 0-.55.184-.55.55v1.986c.092 4.277 2.597 2.505 2.597 4.49 0 2.23-4.918 2.322-6.446 2.322-1.436 0-6.507-.03-6.507-2.26 0-1.894 2.505-.703 2.505-3.513v-13.32h-.06Zm9.165-1.65c-1.344 0-1.314.398-1.314 1.1v5.133c0 .702-.305 1.497 1.528 1.497 2.26 0 3.146-1.711 3.146-3.788.03-2.17-1.069-3.941-3.36-3.941Zm15.06 6.721c0-4.337-.335-5.315-.702-5.804-.794-.977-2.108-1.1-2.108-2.383 0-2.474 6.965-2.474 7.668-2.474 2.047 0 6.262.061 6.262 2.383 0 1.222-1.313 1.16-2.077 2.046-.642.764-.672 3.82-.672 6.232v3.391c0 6.08.397 5.957 1.1 6.355.855.519 1.68.672 1.68 1.74 0 1.04-.306 2.567-7.79 2.567-1.436 0-5.743-.03-5.743-2.23 0-1.1 1.16-1.253 1.71-1.925.398-.488.764-1.741.764-6.537v-3.36h-.091Z"/></g><path fill="#fff" d="M466.468 414.946c-1.038.306-3.207 15-13.38 17.902-7.149 2.047-12.586.55-16.802-5.132-4.277-5.713-6.782-16.405-7.424-31.802-.427-10.814.367-19.887 2.414-26.944 1.986-6.904 5.224-11.09 9.653-12.495 1.711-.55 3.116-.58 4.186-.091 1.1.489 2.016 1.344 2.749 2.535.794 1.375 1.497 2.902 2.108 4.552.183.458.336.947.52 1.405.457 1.314.946 2.658 1.404 4.002a6.643 6.643 0 0 0 1.558 2.597c.886.886 2.017 1.13 3.27.733.457-.122 17.656-10.264 17.595-11.761-.122-2.414-.794-4.919-2.108-7.607-1.344-2.688-3.238-4.918-5.865-6.812-2.658-1.894-5.988-3.116-9.928-3.666-4.033-.55-8.646.03-14.206 1.741-4.399 1.375-8.706 4.094-13.197 8.248-4.399 4.063-8.34 9.226-11.73 15.305-3.392 6.11-6.14 12.984-8.127 20.438-2.016 7.545-2.84 15.58-2.505 23.858.367 8.615 1.68 15.916 3.85 21.69 2.2 5.835 5.101 10.417 8.645 13.625 3.544 3.269 7.729 5.285 12.372 5.926 1.283.184 2.597.275 3.91.275 3.422.03 6.966-.52 10.57-1.65 7.485-2.352 13.809-6.018 18.788-10.936 4.949-4.918 9.256-10.356 12.77-16.19a.682.682 0 0 0 .06-.642c-.763-1.956-10.294-9.348-11.15-9.104ZM569.082 399.763c-.58-.366-1.13-.52-1.68-.52h-.061c-3.605.215-6.018 0-7.21-.61-1.069-.55-1.65-1.772-1.71-3.666l-2.383-57.065c-.459-10.754-2.841-18.33-7.088-22.515-4.307-4.277-10.111-5.315-17.199-3.116-4.857 1.528-9.47 5.04-13.716 10.478-3.666 4.674-7.026 10.295-9.99 16.71l-2.413-57.34c-.214-4.857-.214-8.767 0-11.639.244-3.085.336-5.254.244-6.904 0 0-31.435 9.531-32.351 9.837a.756.756 0 0 0-.489.52 9.484 9.484 0 0 0-.275 2.321c.03.52.061.947.061 1.344l.03.397c.062 1.528.429 2.597 1.162 3.208.52.458 1.191.641 2.016.55h.061c3.788-.733 6.232-.214 7.27 1.497 1.131 1.924 1.803 5.224 2.017 9.775l5.132 122.532c.092 2.2-.427 3.94-1.619 5.407-1.252 1.528-3.605 3.208-7.026 5.04-.03 0-.03.031-.03.031-.459.306-.917.733-1.406 1.375-.489.642-.703 1.589-.672 2.872.061 1.435.244 2.932.55 4.43a.69.69 0 0 0 .397.519.813.813 0 0 0 .367.091c.091 0 .213-.03.305-.06 2.75-1.162 5.652-2.353 8.584-3.514 2.78-1.1 6.232-2.291 10.906-3.758a134.193 134.193 0 0 1 10.02-2.78 314.015 314.015 0 0 1 9.073-1.985c.275-.061.52-.275.58-.55.215-.764.306-1.558.337-2.505v-.061c-.03-.397-.03-.794-.061-1.192 0-.366-.03-.763-.061-1.13-.03-1.222-.336-2.077-.947-2.627-.459-.428-1.07-.611-1.833-.58-3.819.244-5.133-.367-5.59-.764-.52-.428-1.192-1.528-1.314-4.185l-1.742-41.852c-.366-9.196 1.1-16.741 4.369-22.454 3.238-5.682 7.332-9.317 12.158-10.814 3.269-1.008 5.53-.214 7.118 2.505 1.68 2.871 2.75 8.92 3.116 17.932l1.925 45.854c.091 2.169-.275 3.91-1.1 5.163-.825 1.283-2.688 2.78-5.56 4.43-1.039.58-2.23 1.771-2.108 4.307.03.366.03.763.061 1.16 0 .398.03.795.061 1.192.062.916.214 1.65.49 2.26.183.367.61.55 1.007.367 2.628-1.1 5.469-2.26 8.982-3.635a200.759 200.759 0 0 1 9.99-3.483c4.276-1.313 7.942-2.352 10.844-3.024a892.357 892.357 0 0 1 8.737-1.894.746.746 0 0 0 .611-.672c.153-1.711.214-3.269.153-4.644-.122-1.344-.458-2.169-1.1-2.566ZM755.186 341.873c-.122-3.024-.672-4.766-1.741-5.499-.397-.275-1.07-.52-1.986-.244a8.313 8.313 0 0 0-1.955.886c-.611.366-1.314.641-2.108.886-1.07.336-2.658.488-3.94-2.322-.459-.978-.826-2.688-1.1-5.071-.275-2.444-.52-6.385-.734-11.762l-1.71-41.057c-.306-6.752-1.222-12.159-2.75-16.038-1.558-4.002-3.666-6.966-6.293-8.86-2.627-1.894-5.743-2.871-9.317-2.84-3.452.03-7.24.702-11.517 2.016-3.574 1.1-7.149 3.085-10.967 6.079-3.727 2.902-7.118 6.354-10.143 10.264-3.054 3.91-5.56 8.126-7.453 12.525-1.956 4.4-2.872 8.707-2.689 12.74.092 2.077.275 3.482.55 4.215.397 1.008 1.283 1.405 2.322 1.07 1.16-.367 2.474-.948 3.88-1.712a48.086 48.086 0 0 0 4.124-2.505c2.505-1.802 4.49-3.33 6.048-4.643 1.711-1.466 2.75-3.238 3.025-5.224.947-6.354 2.046-11.18 3.33-14.419 1.19-3.024 3.268-4.98 6.323-5.957 3.635-1.13 6.232-.03 7.912 3.36 1.833 3.727 2.902 9.532 3.208 17.291.122 3.513.061 5.713-.214 6.568-.214.764-.886 1.527-1.955 2.291-.703.458-1.62 1.07-2.719 1.803l-.916.61c-.52.337-1.008.673-1.497 1.009-1.039.672-1.986 1.313-2.963 1.924-3.36 2.17-6.935 4.705-10.601 7.485a62.372 62.372 0 0 0-10.325 9.928c-3.117 3.788-5.713 8.126-7.668 12.861-1.986 4.766-2.872 10.173-2.628 16.038.245 5.285 1.314 9.318 3.178 12.006 1.863 2.719 4.154 4.613 6.75 5.621 1.864.733 3.85 1.1 5.958 1.13.794 0 1.619-.03 2.444-.152a45.908 45.908 0 0 0 7.973-1.65c5.132-1.619 9.623-4.368 13.32-8.187 3.177-3.269 5.773-7.82 7.728-13.503.917 3.208 2.505 5.896 4.797 7.974 3.024 2.78 7.24 3.36 12.555 1.71 2.291-.702 4.583-1.802 6.782-3.207 2.2-1.436 4.063-3.116 5.499-5.04.122-.062.183-.215.183-.398Zm-37.025-3.116c-2.17 4.888-5.316 8.034-9.318 9.256-2.382.764-4.093.306-5.407-1.435-1.374-1.833-2.23-5.744-2.474-11.67-.184-4.002.122-7.485.947-10.631.794-3.116 1.955-5.866 3.452-8.248 1.466-2.353 3.269-4.491 5.438-6.324 2.138-1.833 4.43-3.421 6.965-4.857l2.535-1.467.733 16.283c.306 7.637-.641 14.083-2.871 19.093Z"/><path fill="#fff" d="M825.449 315.418c-2.139-3.972-5.102-6.904-8.737-8.707-3.666-1.802-7.943-2.627-12.77-2.474-4.827.152-10.112 1.1-15.702 2.871-4.216 1.314-7.454 2.139-9.898 2.505-2.352.367-4.277.49-5.62.306-1.162-.153-1.895-.52-2.23-1.13 0 0 0-.031-.031-.031-.398-.611-.642-1.497-.703-2.688-.061-1.1.305-2.566 1.1-4.43.733-1.741 2.108-3.757 4.063-5.957 1.863.275 3.88.306 5.926.03 2.2-.274 4.49-.794 6.874-1.527 10.6-3.3 18.665-9.073 23.92-17.138 5.223-8.065 7.667-17.016 7.27-26.608-.275-6.782-1.772-12.28-4.49-16.313 1.65-1.16 2.932-1.986 3.94-2.505 1.314-.642 2.475-1.13 3.574-1.436.55-.153 1.253-.336 2.139-.55a35.476 35.476 0 0 0 2.108-.52c1.466-.488 2.474-1.435 2.933-2.779.427-1.252.61-2.688.55-4.338-.092-1.925-.55-3.85-1.406-5.896-.886-2.016-2.108-3.513-3.635-4.399a.784.784 0 0 0-.947.122l-15.489 15.886c-2.321-1.528-5.315-2.78-9.134-3.788-4.093-1.1-8.981-.764-14.572.977-4.124 1.283-8.003 3.452-11.547 6.385-3.544 2.933-6.63 6.446-9.226 10.478-2.566 4.002-4.613 8.493-6.079 13.32a44.664 44.664 0 0 0-1.894 14.907c.305 6.69 1.71 11.853 4.155 15.367 2.29 3.238 4.857 5.773 7.637 7.515-3.269 4.093-5.59 7.728-7.057 11.058-1.62 3.605-2.291 7.851-2.077 13.045.152 3.635.886 6.843 2.23 9.561 1.222 2.414 2.871 4.186 4.918 5.316-3.177 3.819-5.865 8.279-8.004 13.228-2.352 5.285-3.421 11.089-3.177 17.29.275 6.324 1.406 11.426 3.33 15.153 1.955 3.757 4.644 6.568 7.973 8.34 2.994 1.557 6.477 2.382 10.356 2.413.428 0 .825 0 1.253-.03 4.277-.153 9.042-1.04 14.175-2.628 6.537-2.016 12.28-5.01 17.138-8.829 4.826-3.849 8.828-8.248 11.914-13.105a53.168 53.168 0 0 0 6.812-15.824 58.589 58.589 0 0 0 1.772-16.986c-.275-6.323-1.497-11.517-3.635-15.457Zm-16.833 44.754c-2.902 5.315-7.76 9.073-14.45 11.18-4.124 1.284-7.667 1.59-10.6.917-2.933-.672-5.377-1.955-7.27-3.818-1.895-1.864-3.33-4.308-4.308-7.302a38.537 38.537 0 0 1-1.65-9.836 58.48 58.48 0 0 1 .214-8.707 24.74 24.74 0 0 1 1.803-7.21c2.23.459 4.887.55 8.126.306 3.543-.305 6.69-.886 9.623-1.802 8.034-2.505 13.808-2.78 17.199-.795 3.39 1.986 5.132 5.102 5.315 9.562.244 6.263-1.1 12.128-4.002 17.505ZM777.61 243.933c1.772-3.849 4.094-6.232 6.873-7.118 1.375-.427 2.597-.641 3.697-.641 1.16 0 2.169.244 3.085.733 1.803 1.039 3.177 2.566 4.216 4.674 1.07 2.169 1.833 4.857 2.23 7.943.428 3.268.703 6.598.825 9.867.275 6.69-.58 11.945-2.536 15.61-1.924 3.575-4.46 5.896-7.484 6.843-2.688.825-4.766.734-6.324-.275-1.588-1.008-2.932-2.627-3.94-4.735-1.04-2.26-1.772-4.98-2.139-8.095-.428-3.208-.733-6.63-.855-10.203-.275-5.744.52-10.662 2.352-14.603Z"/><path fill="#fff" d="M899.255 269.839c-1.13-.764-2.047-.734-2.627-.55-.947.305-1.925 1.191-2.994 2.78 0 0 0 .03-.03.03-2.353 3.788-5.164 7.027-8.371 9.593-3.177 2.535-6.477 4.338-9.837 5.407-7.515 2.352-13.136 1.038-17.138-3.972-4.002-5.04-6.293-13.502-6.843-25.172l47.351-17.535c.642-.214 1.68-.825 1.62-2.719-.642-15.213-4.003-26.516-9.99-33.634-6.08-7.24-14.817-9.134-25.936-5.682-4.124 1.283-8.401 3.971-12.709 7.973-4.307 4.032-8.279 9.073-11.73 15.06-3.483 5.927-6.355 12.892-8.493 20.682-2.139 7.79-3.025 16.069-2.658 24.623.367 8.828 1.741 16.16 4.094 21.72 2.321 5.651 5.346 10.142 8.981 13.289 3.605 3.146 7.668 5.101 12.097 5.743 1.345.214 2.689.305 4.033.305 3.085.031 6.17-.458 9.256-1.435 7.79-2.444 14.572-6.324 20.132-11.456 5.53-5.163 10.417-12.128 14.51-20.712a.783.783 0 0 0 0-.642c-.977-1.955-1.863-3.177-2.718-3.696Zm-30.58-58.44c1.711 1.13 3.208 2.871 4.46 5.132 1.253 2.291 2.2 4.918 2.903 8.004.672 3.055 1.1 6.079 1.222 8.981.06 1.558-.52 2.536-1.864 3.085l-24.928 9.41c-.366-10.632.611-18.88 2.872-24.562 2.321-5.804 5.56-9.378 9.623-10.661a7.996 7.996 0 0 1 2.444-.398c1.13 0 2.26.337 3.268 1.009Z"/><path fill="#fff" d="M963.438 179.23c-.183-3.757-1.191-6.629-3.024-8.584-1.925-2.077-4.705-2.566-8.248-1.435-4.491 1.405-8.554 4.124-12.067 8.064-3.055 3.36-6.232 8.096-9.47 14.114l-.398-9.806c-.06-1.65-.488-2.688-1.283-3.238-.61-.398-1.344-.49-2.23-.214-.947.275-2.719 1.191-5.407 2.78a175.374 175.374 0 0 1-7.515 4.093l-.03.03c-1.07.642-2.322 1.253-3.727 1.834-1.711.702-3.055 1.222-4.338 1.71-.825.306-1.62.612-2.353.886-.58.214-1.13.428-1.65.611-1.1.398-2.046.764-2.81.978a.848.848 0 0 0-.489.428c-.244.641-.366 1.435-.305 2.29.03.52.061.978.061 1.345 0 .183 0 .367.03.52.062 1.374.459 2.321 1.161 2.901.58.459 1.314.673 2.23.55 4.033-.519 6.507 0 7.393 1.558 1.008 1.833 1.589 4.46 1.711 7.882l2.627 62.93c.092 2.17-.427 3.88-1.619 5.255-1.252 1.467-3.605 3.208-7.026 5.194-1.039.58-2.23 1.771-2.108 4.276.122 2.26.306 3.758.58 4.522a.783.783 0 0 0 .428.458c.092.03.214.06.306.06.091 0 .214-.03.305-.06a263.663 263.663 0 0 1 8.493-3.483 149.47 149.47 0 0 1 10.814-3.727c1.589-.519 3.483-1.069 6.11-1.772 2.26-.61 4.613-1.222 6.965-1.802a202.063 202.063 0 0 0 6.72-1.772c2.14-.61 3.911-1.038 5.316-1.313a.715.715 0 0 0 .58-.58c.184-.887.245-2.292.154-4.736-.031-1.222-.336-2.077-.947-2.627-.459-.428-1.07-.611-1.833-.58-6.355.488-9.104-.092-10.326-.703-1.589-.825-2.444-2.627-2.566-5.438l-1.802-43.502c-.214-4.582-.062-8.462.427-11.608.489-3.055 1.192-5.652 2.078-7.698.916-2.047 1.924-3.483 3.054-4.4 1.192-.977 2.383-1.65 3.636-2.046 1.313-.428 2.688-.428 4.093-.092 1.406.336 2.994 1.436 4.796 3.269a.765.765 0 0 0 .55.244.784.784 0 0 0 .55-.214c2.81-2.75 4.858-4.765 6.385-6.384 1.588-1.65 2.872-3.147 3.85-4.46.977-1.314 1.588-2.414 1.863-3.391.213-.886.336-1.956.305-3.116ZM372.958 379.143c-5.53-5.927-10.753-11.517-15.183-17.566-4.124-5.59-7.454-15.61-5.04-24.409 2.352-8.523 9.684-12.769 15.243-13.808 6.08-1.13 10.754-.122 14.206 3.116 1.436 1.283 2.657 2.903 3.727 4.919.091.183.275.305.458.366.214.061.428.03.58-.06l2.597-1.467a.808.808 0 0 0 .397-.703l-1.497-25.539a.682.682 0 0 0-.305-.55.878.878 0 0 0-.611-.152c-1.528.305-3.025.58-4.46.825-12.709 2.352-21.904 4.032-33.757 12.25-14.388 9.959-21.476 25.416-19.887 43.532 1.65 19.49 14.205 33.176 26.333 46.404 5.376 5.865 10.936 11.944 15.488 18.451 11.12 15.855 13.961 30.64 8.432 43.93-3.483 7.576-6.782 9.592-11.884 12.25-4.002 2.108-8.126 2.413-11.975.916-3.422-1.344-6.354-4.124-8.31-7.76a20.287 20.287 0 0 1-1.496-3.482.754.754 0 0 0-.947-.489l-4.735 1.314a.73.73 0 0 0-.55.764l2.016 35.345c0 .214.122.397.275.55a.823.823 0 0 0 .458.152h.122c.062 0 1.65-.274 4.308-.977 7.423-1.864 21.812-6.599 34.764-17.2 17.108-13.96 24.837-31.831 23.034-53.124-2.108-25.997-17.199-42.188-31.801-57.798ZM678.508 273.749c-.03-.306-.06-.947-.183-1.864a10.302 10.302 0 0 0-.58-2.627.783.783 0 0 0-.428-.458.713.713 0 0 0-.611 0c-3.758 1.65-8.096 3.238-12.8 4.705-5.468 1.71-10.203 2.963-14.541 3.849a.746.746 0 0 0-.611.672c-.03.458-.092.886-.153 1.313l-.092 1.008c-.091.886-.122 1.467-.091 1.895.03 1.466.336 2.413.886 2.871.488.397 1.19.611 2.138.703h.03c3.239.091 4.797 1.436 4.888 4.154.092 1.436 0 3.391-.244 5.744-.244 2.26-.733 5.437-1.527 9.775-.734 3.972-1.803 9.257-3.3 16.16-1.283 6.019-2.963 13.534-5.01 22.424l-21.567-59.296c-.061-.214-.245-.367-.428-.458a4.9 4.9 0 0 0-3.238-.122c-1.497.488-2.475 1.741-2.902 3.666l-15.947 68.673-10.173-30.03c-1.924-5.345-3.238-9.225-3.88-11.516-.61-2.047-.977-3.666-1.008-4.46a5.247 5.247 0 0 1 .856-3.086c.427-.641 1.588-1.74 4.765-3.33 1.711-.916 2.505-2.566 2.414-4.887-.03-1.008-.275-2.322-.672-3.972a.8.8 0 0 0-.397-.488.93.93 0 0 0-.642-.03 129.675 129.675 0 0 1-8.645 3.298c-2.597.886-5.713 1.894-10.387 3.36a564.833 564.833 0 0 1-11.059 3.33 87.606 87.606 0 0 1-8.492 2.078.782.782 0 0 0-.611.641c-.275 1.894-.397 3.3-.336 4.277.153 3.269 1.772 4.002 3.116 4.033 1.436 0 2.657.03 3.605.152.794.062 1.496.336 2.077.825.641.52 1.222 1.283 1.802 2.353.611 1.19 1.314 2.84 2.017 4.826l25.08 67.513c1.467 3.788 2.566 6.14 3.36 7.21.886 1.191 1.772 1.558 2.475 1.558.244 0 .489-.03.672-.092.458-.122.917-.275 1.344-.397.214-.06.397-.122.611-.183a4.205 4.205 0 0 0 1.894-1.161.697.697 0 0 0 .184-.367l15.549-66.596 17.78 46.342c1.466 3.789 2.566 6.14 3.36 7.21 1.222 1.65 2.383 1.68 3.146 1.466.459-.122.917-.275 1.344-.397.214-.06.398-.122.611-.183a4.205 4.205 0 0 0 1.895-1.16.697.697 0 0 0 .183-.368l20.804-91.34c.519-2.323 1.069-4.4 1.588-6.019.458-1.405 1.039-2.658 1.71-3.727.673-1.039 1.406-1.833 2.23-2.444.856-.61 1.987-1.375 3.697-2.444 1.742-1.038 2.536-2.596 2.444-4.582Z"/><path fill="#221e1f" d="M429.32 449.894c-1.374 0-2.78-.122-4.123-.305-4.95-.703-9.379-2.842-13.167-6.324-3.696-3.391-6.751-8.157-9.042-14.205-2.23-5.927-3.575-13.38-3.941-22.148-.367-8.432.519-16.619 2.566-24.317 2.016-7.576 4.796-14.572 8.279-20.804 3.482-6.232 7.515-11.486 12.036-15.672 4.643-4.307 9.165-7.118 13.777-8.553 4.369-1.345 8.157-2.017 11.609-2.017 1.1 0 2.2.062 3.238.214 4.185.55 7.76 1.894 10.6 3.91 2.842 2.047 4.919 4.46 6.355 7.393 1.405 2.902 2.138 5.56 2.26 8.187.062.978.092 1.833-9.286 7.73-2.81 1.771-8.493 5.223-9.318 5.529-.55.183-1.069.275-1.588.275-1.222 0-2.322-.459-3.208-1.375-.886-.886-1.527-1.986-1.925-3.177a202.714 202.714 0 0 0-1.405-3.941c-.183-.489-.336-.947-.52-1.436-.549-1.558-1.221-3.024-1.985-4.277-.55-.886-1.222-1.558-2.047-1.894-.305-.152-.672-.213-1.1-.213-.58 0-1.252.122-2.016.366-3.91 1.222-6.812 5.102-8.645 11.456-1.986 6.904-2.78 15.824-2.352 26.486.641 15.091 3.024 25.508 7.118 30.976 2.719 3.666 5.865 5.377 9.928 5.377 1.589 0 3.36-.275 5.254-.825 6.966-1.985 9.898-10.478 11.304-14.572.763-2.2 1.038-3.024 2.046-3.33.184-.06.336-.06.49-.06.396 0 1.435 0 6.628 4.154 3.452 2.75 5.407 4.766 5.866 5.896a2.209 2.209 0 0 1-.184 1.955c-3.574 5.957-7.942 11.487-13.013 16.497-5.163 5.101-11.7 8.89-19.4 11.303-3.665 1.16-7.3 1.741-10.813 1.741h-.275Z"/><path fill="#fff100" d="M447.314 337.046c1.039 0 2.047.061 3.024.184 3.941.519 7.271 1.771 9.929 3.665 2.627 1.894 4.552 4.125 5.865 6.813 1.314 2.688 1.986 5.163 2.108 7.607.092 1.466-17.107 11.608-17.596 11.76a3.795 3.795 0 0 1-1.13.184 2.848 2.848 0 0 1-2.108-.916c-.703-.733-1.253-1.589-1.558-2.597-.459-1.344-.947-2.688-1.406-4.002-.183-.489-.336-.947-.519-1.405a27.135 27.135 0 0 0-2.108-4.552c-.702-1.191-1.619-2.047-2.75-2.535a4.27 4.27 0 0 0-1.71-.337c-.733 0-1.558.153-2.474.428-4.43 1.405-7.668 5.59-9.654 12.495-2.047 7.057-2.84 16.13-2.413 26.944.641 15.397 3.146 26.089 7.423 31.801 3.025 4.063 6.66 5.988 11.15 5.988 1.742 0 3.636-.306 5.652-.886 10.173-2.902 12.311-17.596 13.38-17.902h.062c1.13 0 10.356 7.18 11.089 9.104a.682.682 0 0 1-.061.641 83.021 83.021 0 0 1-12.77 16.191c-5.01 4.919-11.333 8.615-18.787 10.937-3.544 1.1-6.996 1.65-10.356 1.65h-.214c-1.314 0-2.627-.092-3.91-.275-4.644-.673-8.799-2.658-12.373-5.927-3.513-3.208-6.446-7.82-8.645-13.625-2.17-5.774-3.483-13.044-3.85-21.69-.335-8.278.49-16.313 2.506-23.858 1.985-7.454 4.704-14.358 8.126-20.437 3.39-6.08 7.331-11.212 11.73-15.305 4.491-4.155 8.799-6.843 13.198-8.249 4.154-1.252 7.85-1.894 11.15-1.894m0-3.024c-3.605 0-7.546.672-12.067 2.077-4.857 1.528-9.531 4.43-14.358 8.89-4.643 4.277-8.767 9.684-12.311 16.038-3.513 6.324-6.354 13.442-8.401 21.14-2.077 7.851-2.963 16.191-2.597 24.775.398 8.951 1.742 16.558 4.033 22.606 2.383 6.263 5.56 11.242 9.44 14.786 4.001 3.697 8.706 5.957 13.96 6.69 1.406.214 2.872.306 4.308.306h.244c3.666 0 7.454-.611 11.273-1.803 7.942-2.474 14.663-6.415 20.01-11.67 5.131-5.1 9.592-10.722 13.227-16.801.61-1.008.702-2.2.305-3.269-.213-.58-.794-2.108-6.323-6.537-5.621-4.491-6.782-4.491-7.576-4.491-.306 0-.611.03-.917.122-1.71.52-2.2 1.955-3.024 4.277-1.344 3.85-4.094 11.822-10.295 13.625-1.741.489-3.391.764-4.827.764-3.544 0-6.293-1.528-8.706-4.766-4.858-6.476-6.385-19.949-6.813-30.121-.427-10.479.336-19.246 2.291-25.997 1.68-5.866 4.277-9.379 7.668-10.448.764-.245 1.283-.275 1.558-.275.306 0 .428.061.458.061.52.244.978.672 1.375 1.314.703 1.191 1.314 2.535 1.864 4.032.183.458.336.947.519 1.436v.03c.458 1.283.947 2.597 1.375 3.88a9.195 9.195 0 0 0 2.29 3.758 5.867 5.867 0 0 0 4.278 1.802c.672 0 1.344-.122 2.016-.336.336-.092.641-.214 3.605-1.986 1.16-.702 3.513-2.108 6.11-3.727 2.535-1.619 4.612-2.963 6.11-4.032 2.413-1.741 4.001-3.025 3.91-5.04-.123-2.842-.917-5.713-2.383-8.768-1.558-3.147-3.788-5.713-6.813-7.912-3.055-2.2-6.843-3.605-11.272-4.186a28.405 28.405 0 0 0-3.544-.244Z"/><path fill="#221e1f" d="M474.93 431.779c-.366 0-.702-.092-1.038-.245-.611-.305-1.04-.886-1.192-1.558-.305-1.588-.52-3.146-.58-4.674-.061-1.68.244-2.933.977-3.88.611-.824 1.192-1.344 1.803-1.74.03-.031.091-.062.122-.093 4.063-2.168 5.804-3.726 6.598-4.674.947-1.16 1.375-2.566 1.284-4.368l-5.133-122.532c-.244-5.346-1.1-7.881-1.802-9.073-.428-.733-1.405-1.1-2.933-1.1-.794 0-1.71.092-2.719.306-.06 0-.152.03-.213.03-.153.031-.337.031-.49.031-1.007 0-1.924-.336-2.626-.947-1.07-.916-1.62-2.322-1.68-4.307l-.031-.398c-.03-.397-.03-.824-.061-1.313v-.061c-.03-.978.091-1.864.305-2.75.183-.763.764-1.344 1.497-1.588.917-.306 31.099-9.44 32.382-9.837l1.863-.55.092 1.925c.092 1.71 0 3.971-.244 7.087-.214 2.81-.214 6.66 0 11.456l2.169 51.475c2.352-4.369 4.857-8.279 7.545-11.73 4.43-5.683 9.287-9.38 14.45-10.998 2.535-.795 4.98-1.192 7.24-1.192 4.49 0 8.34 1.589 11.486 4.674 4.522 4.46 7.057 12.372 7.546 23.523l2.383 57.065c.03.886.214 2.047.886 2.383.305.153 1.283.52 4.002.52.733 0 1.558-.031 2.413-.092h.152c.856 0 1.65.275 2.445.763l.03.031c1.405.916 1.65 2.597 1.741 3.788a34.04 34.04 0 0 1-.152 4.888c-.092 1.008-.825 1.802-1.803 2.016-2.871.58-5.804 1.222-8.706 1.894-2.872.672-6.507 1.68-10.753 2.994a156.046 156.046 0 0 0-9.898 3.452c-3.513 1.375-6.354 2.505-8.92 3.605a2.19 2.19 0 0 1-.886.183 2.3 2.3 0 0 1-2.078-1.314c-.366-.763-.58-1.71-.641-2.81-.03-.397-.03-.794-.061-1.191 0-.367-.03-.764-.061-1.13-.184-3.453 1.71-5.072 2.871-5.713 3.3-1.894 4.552-3.178 5.04-3.91.642-1.009.948-2.445.856-4.308l-1.925-45.854c-.458-10.937-1.832-15.397-2.902-17.26-.886-1.497-1.924-2.17-3.33-2.17-.61 0-1.283.123-2.046.367-4.43 1.375-8.248 4.797-11.303 10.112-3.147 5.438-4.552 12.739-4.186 21.629l1.742 41.852c.122 2.505.733 3.055.763 3.085.031.03.611.458 2.994.458.489 0 1.008-.03 1.558-.06h.275c1.039 0 1.955.335 2.658.977.916.825 1.405 2.016 1.436 3.666.03.366.03.733.06 1.1v.06c0 .398.031.764.062 1.161v.153c-.03 1.07-.153 1.986-.397 2.872-.214.825-.886 1.436-1.741 1.619a335.105 335.105 0 0 0-9.043 1.986c-3.085.733-6.415 1.65-9.898 2.749-4.643 1.466-8.065 2.658-10.814 3.727-2.933 1.16-5.804 2.352-8.554 3.483-.275.213-.58.275-.886.275Z"/><path fill="#fff100" d="M499.797 258.444c.092 1.65 0 3.819-.244 6.904-.214 2.872-.214 6.782 0 11.64l2.413 57.34c2.994-6.416 6.354-12.037 9.99-16.71 4.246-5.439 8.859-8.952 13.716-10.48 2.413-.763 4.674-1.13 6.782-1.13 4.093 0 7.576 1.406 10.417 4.247 4.246 4.185 6.63 11.761 7.087 22.514l2.383 57.066c.061 1.894.642 3.116 1.71 3.666.887.458 2.445.702 4.675.702.764 0 1.589-.03 2.505-.091h.03c.58 0 1.1.183 1.68.519.642.428.948 1.253 1.04 2.627.06 1.375 0 2.933-.153 4.644a.746.746 0 0 1-.611.672c-2.902.61-5.835 1.222-8.737 1.894-2.933.702-6.568 1.71-10.845 3.024a158.927 158.927 0 0 0-9.99 3.483 401.641 401.641 0 0 0-8.981 3.635c-.092.03-.214.061-.306.061-.305 0-.58-.153-.702-.428-.275-.61-.458-1.344-.489-2.26-.03-.397-.03-.794-.061-1.192 0-.397-.03-.763-.061-1.16-.122-2.505 1.069-3.727 2.108-4.308 2.871-1.65 4.735-3.116 5.56-4.43.824-1.252 1.191-2.993 1.1-5.162l-1.925-45.854c-.367-9.012-1.436-15.06-3.116-17.932-1.161-1.956-2.658-2.903-4.644-2.903-.763 0-1.588.153-2.505.428-4.826 1.497-8.92 5.132-12.158 10.814-3.269 5.713-4.766 13.259-4.369 22.454l1.742 41.852c.122 2.658.763 3.727 1.313 4.185.397.336 1.375.825 3.941.825.489 0 1.039-.03 1.65-.061h.183c.672 0 1.222.183 1.65.58.61.55.916 1.406.947 2.628.03.366.03.763.06 1.13 0 .397.031.794.062 1.191v.061c-.03.947-.122 1.742-.336 2.505-.061.275-.306.49-.58.55a314.057 314.057 0 0 0-9.074 1.986c-3.116.733-6.476 1.68-10.02 2.78-4.674 1.466-8.126 2.658-10.906 3.757a413.018 413.018 0 0 0-8.584 3.514c-.092.03-.214.06-.305.06a.813.813 0 0 1-.367-.091c-.214-.092-.336-.306-.397-.52a28.296 28.296 0 0 1-.55-4.429c-.061-1.314.183-2.23.672-2.872.52-.672.947-1.1 1.405-1.374l.03-.03c3.422-1.834 5.805-3.544 7.027-5.041 1.192-1.436 1.71-3.208 1.62-5.408l-5.133-122.531c-.214-4.552-.886-7.851-2.016-9.776-.733-1.222-2.139-1.833-4.247-1.833-.885 0-1.894.122-3.024.336h-.061c-.122 0-.244.03-.336.03-.642 0-1.191-.183-1.65-.58-.733-.61-1.1-1.68-1.16-3.207l-.031-.398c-.03-.366-.03-.824-.061-1.344a7.233 7.233 0 0 1 .275-2.321c.06-.245.244-.459.489-.52 1.038-.397 32.473-9.928 32.473-9.928m2.81-4.002-3.696 1.13c-1.283.397-31.465 9.532-32.382 9.837a3.798 3.798 0 0 0-2.505 2.627 11.04 11.04 0 0 0-.366 3.177v.123c.03.458.06.885.06 1.252v.03l.031.398c.092 2.383.825 4.185 2.23 5.376a5.513 5.513 0 0 0 3.605 1.314c.214 0 .428 0 .642-.03.122 0 .214-.031.336-.062.947-.183 1.772-.275 2.444-.275 1.16 0 1.588.245 1.65.336.488.856 1.374 3.055 1.588 8.37l5.132 122.533c.092 1.894-.489 2.81-.947 3.36-.55.672-2.108 2.138-6.11 4.307-.091.061-.152.092-.244.153-.794.489-1.466 1.13-2.2 2.108-.947 1.222-1.344 2.81-1.283 4.827.061 1.588.275 3.238.611 4.888.214 1.13.947 2.077 1.955 2.627.52.275 1.13.427 1.711.427h.03c.52 0 1.009-.091 1.467-.305 2.719-1.16 5.59-2.322 8.523-3.483 2.689-1.069 6.11-2.23 10.692-3.696 3.452-1.1 6.752-2.016 9.807-2.719 2.81-.672 5.743-1.314 8.98-1.986a3.693 3.693 0 0 0 2.872-2.688c.275-1.008.428-2.047.428-3.238v-.275c-.03-.367-.03-.733-.06-1.13v-.03c0-.367-.031-.765-.062-1.131-.061-2.047-.733-3.636-1.955-4.735-.978-.886-2.26-1.344-3.666-1.344h-.397c-.52.03-1.008.06-1.466.06-1.04 0-1.65-.091-1.956-.152-.091-.275-.244-.886-.275-1.925l-1.74-41.852c-.367-8.614.977-15.61 3.97-20.804 2.872-5.01 6.385-8.187 10.448-9.44.611-.182 1.161-.274 1.589-.274.61 0 1.252.122 2.047 1.436.794 1.374 2.23 5.346 2.688 16.527l1.924 45.823c.092 1.925-.275 2.902-.61 3.391-.184.305-1.1 1.466-4.522 3.422-2.474 1.374-3.788 3.97-3.635 7.087.03.336.03.733.061 1.1.03.397.03.824.061 1.222.061 1.283.336 2.413.764 3.36a3.771 3.771 0 0 0 3.452 2.2c.52 0 1.008-.092 1.466-.306 2.597-1.1 5.407-2.23 8.89-3.605a174.555 174.555 0 0 1 9.806-3.421c4.216-1.314 7.79-2.291 10.631-2.964a489.873 489.873 0 0 1 8.646-1.863c1.65-.336 2.84-1.68 2.993-3.36.153-1.864.214-3.544.153-5.072v-.06c-.061-.886-.214-3.514-2.413-4.95l-.03-.03-.031-.03c-1.039-.642-2.078-.948-3.208-.978h-.306c-.855.06-1.65.06-2.321.06-2.139 0-2.963-.243-3.208-.305-.061-.122-.153-.458-.183-1.13l-2.383-57.065c-.489-11.548-3.177-19.796-7.973-24.531-3.422-3.391-7.638-5.102-12.525-5.102-2.414 0-4.98.428-7.668 1.253-5.438 1.71-10.57 5.59-15.183 11.486a75.92 75.92 0 0 0-5.071 7.362l-1.955-46.25c-.214-4.736-.214-8.524 0-11.273.244-3.208.336-5.53.244-7.301l-.091-3.819Z"/><path fill="#221e1f" d="M687.826 360.783c-2.291-.03-4.46-.428-6.507-1.222-2.872-1.1-5.377-3.177-7.454-6.171-2.047-2.902-3.208-7.21-3.452-12.8-.275-6.11.672-11.7 2.75-16.68 2.015-4.857 4.673-9.317 7.88-13.227a62.952 62.952 0 0 1 10.57-10.173c3.728-2.81 7.302-5.346 10.693-7.546.978-.61 1.924-1.252 2.933-1.924.519-.336 1.008-.672 1.527-1.008l.916-.611c1.1-.734 2.017-1.345 2.72-1.803 1.038-.764 1.282-1.283 1.344-1.466v-.03c.091-.306.305-1.528.152-6.05-.305-7.545-1.344-13.166-3.055-16.68-1.313-2.657-2.902-2.962-3.971-2.962-.642 0-1.344.122-2.108.366-2.627.825-4.338 2.444-5.346 5.04-1.222 3.117-2.322 7.852-3.238 14.084-.336 2.352-1.528 4.43-3.544 6.17-1.588 1.375-3.605 2.903-6.17 4.736l-.031.03a69.508 69.508 0 0 1-4.247 2.597c-1.496.794-2.871 1.405-4.154 1.802a3.989 3.989 0 0 1-1.161.184c-1.375 0-2.475-.795-3.024-2.139-.367-.916-.58-2.413-.672-4.735-.184-4.277.763-8.798 2.81-13.41a59.803 59.803 0 0 1 7.637-12.831c3.086-4.002 6.599-7.546 10.417-10.54 3.941-3.116 7.699-5.163 11.426-6.323 4.43-1.375 8.34-2.078 11.975-2.108h.183c3.819 0 7.21 1.038 10.05 3.116 2.872 2.047 5.164 5.254 6.813 9.531 1.589 4.032 2.566 9.592 2.872 16.527l1.71 41.058c.214 5.346.459 9.256.734 11.67.305 2.78.702 4.032.947 4.612.489 1.1 1.008 1.62 1.527 1.62.153 0 .336-.031.58-.123h.031a10.671 10.671 0 0 0 1.772-.733 9.385 9.385 0 0 1 2.291-1.039 4.032 4.032 0 0 1 1.192-.183c.733 0 1.466.214 2.077.642 1.527 1.038 2.26 3.116 2.413 6.69.03.52-.152 1.038-.458 1.436-1.558 2.046-3.544 3.88-5.896 5.376-2.322 1.497-4.704 2.627-7.148 3.391-2.108.642-4.094.978-5.896.978-3.208 0-5.927-1.008-8.126-3.025a17.99 17.99 0 0 1-3.758-4.918c-1.802 4.216-4.032 7.698-6.66 10.387-3.88 4.002-8.584 6.873-13.96 8.553-2.505.795-5.285 1.344-8.249 1.711-.855.092-1.68.153-2.505.153h-.152Zm24.592-59.723a39.159 39.159 0 0 0-6.752 4.704c-2.016 1.741-3.757 3.727-5.132 5.957-1.436 2.26-2.535 4.888-3.269 7.82-.794 3.025-1.1 6.355-.916 10.204.305 6.996 1.344 9.745 2.169 10.845.641.825 1.283 1.191 2.169 1.191.458 0 .977-.091 1.558-.275 3.605-1.13 6.415-3.97 8.4-8.431 2.14-4.796 3.056-10.998 2.75-18.39l-.61-13.809-.367.184Z"/><path fill="#fff100" d="M715.595 244.85c3.513 0 6.598.947 9.164 2.84 2.628 1.864 4.735 4.858 6.293 8.86 1.528 3.88 2.475 9.287 2.75 16.038l1.71 41.058c.214 5.376.459 9.348.734 11.761.275 2.383.641 4.094 1.1 5.071.885 1.986 1.955 2.505 2.902 2.505.366 0 .733-.091 1.038-.183.795-.244 1.467-.52 2.108-.886a8.31 8.31 0 0 1 1.955-.886c.275-.091.55-.122.764-.122.52 0 .947.183 1.222.367 1.07.733 1.62 2.474 1.741 5.498 0 .184-.03.336-.152.49-1.436 1.924-3.3 3.604-5.5 5.04-2.199 1.405-4.46 2.505-6.781 3.207-1.986.611-3.788.917-5.468.917-2.81 0-5.194-.886-7.088-2.627-2.29-2.078-3.91-4.766-4.796-7.974-1.924 5.682-4.521 10.234-7.729 13.503-3.696 3.819-8.187 6.568-13.32 8.187-2.412.764-5.1 1.314-7.972 1.65-.795.091-1.558.152-2.322.152h-.122c-2.108 0-4.094-.397-5.957-1.13-2.597-1.008-4.888-2.902-6.752-5.62-1.863-2.659-2.932-6.722-3.177-12.007-.244-5.865.642-11.272 2.628-16.038 1.955-4.735 4.52-9.073 7.667-12.86a62.375 62.375 0 0 1 10.326-9.93c3.696-2.78 7.24-5.315 10.6-7.484.978-.61 1.925-1.252 2.964-1.924.488-.336.977-.672 1.496-1.008l.917-.611c1.1-.734 2.016-1.345 2.719-1.803 1.069-.764 1.741-1.527 1.955-2.291.275-.855.336-3.085.214-6.568-.306-7.76-1.406-13.564-3.208-17.29-1.252-2.536-3.024-3.82-5.346-3.82-.794 0-1.65.153-2.566.428-3.055.978-5.132 2.903-6.324 5.957-1.252 3.208-2.383 8.065-3.33 14.42-.305 1.985-1.313 3.757-3.024 5.223-1.558 1.345-3.544 2.872-6.049 4.644-1.435.947-2.81 1.802-4.124 2.505a25.245 25.245 0 0 1-3.88 1.71 2.004 2.004 0 0 1-.702.123c-.733 0-1.314-.397-1.62-1.192-.274-.733-.488-2.138-.549-4.215-.183-4.033.733-8.34 2.688-12.74 1.894-4.398 4.4-8.614 7.454-12.524 3.025-3.91 6.446-7.363 10.142-10.265 3.82-2.994 7.393-4.98 10.968-6.079 4.276-1.344 8.064-1.986 11.516-2.016.031-.061.092-.061.123-.061m-14.878 98.428c.611 0 1.283-.122 2.047-.366 4.033-1.253 7.149-4.369 9.318-9.257 2.23-5.01 3.177-11.425 2.871-19.062l-.733-16.283-2.536 1.467c-2.535 1.435-4.826 3.024-6.965 4.857a27.494 27.494 0 0 0-5.437 6.324c-1.497 2.382-2.658 5.162-3.452 8.248-.825 3.146-1.13 6.629-.947 10.63.274 5.927 1.1 9.838 2.474 11.67.886 1.161 1.986 1.772 3.36 1.772m14.878-101.453h-.184c-3.757.03-7.82.733-12.402 2.17-3.91 1.221-7.821 3.36-11.915 6.598-3.91 3.055-7.484 6.69-10.661 10.784-3.208 4.124-5.835 8.553-7.82 13.166-2.14 4.827-3.147 9.593-2.933 14.083.091 2.505.336 4.124.763 5.224.764 1.894 2.444 3.086 4.43 3.086.55 0 1.1-.092 1.65-.275 1.344-.428 2.81-1.07 4.399-1.925a54.062 54.062 0 0 0 4.368-2.658l.03-.03.031-.03c2.597-1.834 4.644-3.422 6.263-4.828 2.291-1.955 3.666-4.337 4.063-7.087.916-6.11 1.955-10.723 3.146-13.747.856-2.2 2.23-3.482 4.4-4.155.61-.183 1.19-.305 1.649-.305.55 0 1.589 0 2.627 2.108 1.13 2.291 2.536 6.934 2.902 16.069.153 4.276-.03 5.376-.06 5.56-.062.06-.245.335-.764.702-.703.458-1.62 1.07-2.689 1.802l-.916.611c-.52.337-1.008.673-1.497 1.009-1.008.672-1.955 1.313-2.902 1.894a179.511 179.511 0 0 0-10.784 7.606 65.988 65.988 0 0 0-10.814 10.417 53.414 53.414 0 0 0-8.096 13.625c-2.169 5.163-3.116 10.998-2.871 17.322.275 5.865 1.496 10.447 3.727 13.594 2.23 3.238 4.979 5.468 8.156 6.69 2.2.855 4.552 1.314 7.026 1.344h.153c.886 0 1.802-.061 2.688-.153 3.055-.366 5.927-.977 8.524-1.771 5.62-1.772 10.539-4.797 14.602-8.951 2.2-2.26 4.124-5.01 5.743-8.279a20.778 20.778 0 0 0 2.566 2.872c2.475 2.26 5.53 3.421 9.134 3.421 1.956 0 4.094-.367 6.355-1.039 2.566-.794 5.101-1.985 7.515-3.543 2.505-1.62 4.612-3.544 6.293-5.743.519-.703.794-1.558.763-2.414-.122-2.75-.58-6.14-3.055-7.881a5.21 5.21 0 0 0-2.932-.917c-.55 0-1.1.092-1.65.244-.855.245-1.71.642-2.627 1.192-.397.244-.855.428-1.375.58a4.633 4.633 0 0 1-.366-.641v-.061c-.153-.306-.52-1.344-.825-4.155-.275-2.352-.52-6.263-.733-11.547l-1.711-41.058c-.306-7.088-1.314-12.83-2.963-17.016-1.772-4.552-4.247-7.973-7.332-10.203-3.238-2.23-6.935-3.36-11.09-3.36Zm-14.878 98.429c-.275 0-.519 0-.977-.58-.367-.459-1.558-2.567-1.864-9.99-.183-3.696.123-6.904.856-9.745.702-2.78 1.741-5.285 3.085-7.362v-.061a23.308 23.308 0 0 1 4.827-5.591 35.956 35.956 0 0 1 4.765-3.482l.52 11.303c.305 7.148-.58 13.136-2.597 17.718-1.802 4.063-4.307 6.63-7.454 7.607-.489.091-.855.183-1.16.183Z"/><path fill="#221e1f" d="M769.88 384.703c-4.124-.03-7.82-.886-11.028-2.566-3.605-1.925-6.507-4.95-8.584-8.982-2.047-3.91-3.208-9.226-3.513-15.794-.245-6.446.855-12.464 3.299-17.962 1.955-4.522 4.368-8.615 7.148-12.25-1.619-1.222-2.963-2.903-4.032-4.98-1.436-2.933-2.26-6.354-2.414-10.203-.213-5.438.52-9.898 2.23-13.717 1.375-3.116 3.422-6.446 6.263-10.112-2.413-1.771-4.674-4.124-6.69-6.995-2.627-3.758-4.124-9.195-4.43-16.16a46.872 46.872 0 0 1 1.955-15.428c1.497-4.949 3.605-9.562 6.232-13.686 2.658-4.154 5.866-7.79 9.532-10.814 3.696-3.055 7.729-5.316 12.066-6.66 3.575-1.13 6.905-1.68 9.929-1.68 1.925 0 3.788.244 5.468.703 3.422.916 6.232 2.016 8.493 3.33l14.633-15.03a2.335 2.335 0 0 1 1.65-.703c.396 0 .824.122 1.16.305 1.772 1.07 3.208 2.78 4.247 5.102.946 2.2 1.435 4.307 1.558 6.415.06 1.833-.153 3.483-.642 4.919-.611 1.802-1.955 3.085-3.88 3.727h-.03a21.65 21.65 0 0 1-2.23.55c-.856.183-1.528.366-2.017.519-.977.305-2.077.764-3.33 1.344-.672.336-1.527.886-2.566 1.558 2.353 4.124 3.697 9.44 3.941 15.824.428 9.929-2.108 19.154-7.515 27.494-5.468 8.37-13.777 14.328-24.744 17.75a43.573 43.573 0 0 1-7.118 1.588c-1.039.122-2.078.214-3.086.214-.825 0-1.65-.03-2.444-.123-1.558 1.833-2.657 3.514-3.268 4.95-.856 2.016-1.008 3.176-.978 3.757.061 1.13.275 1.68.458 1.925.03.03.03.06.061.091.061.092.367.306 1.161.397.367.061.795.092 1.283.092 1.07 0 2.383-.122 3.88-.367 2.383-.366 5.56-1.16 9.684-2.444 5.713-1.802 11.12-2.78 16.1-2.932.366 0 .763-.03 1.13-.03 4.613 0 8.767.885 12.372 2.657 3.94 1.955 7.118 5.102 9.409 9.348 2.23 4.155 3.513 9.562 3.819 16.1.244 5.773-.367 11.638-1.803 17.412a55.88 55.88 0 0 1-6.995 16.283c-3.178 4.98-7.302 9.53-12.25 13.472-4.98 3.94-10.937 7.026-17.627 9.103-5.255 1.65-10.173 2.536-14.572 2.689-.367 0-.733.03-1.13.03l-.245-.03Zm-2.627-52.758a24.547 24.547 0 0 0-1.283 5.651c-.275 2.719-.336 5.59-.214 8.493.122 3.3.672 6.476 1.589 9.47.885 2.719 2.2 4.98 3.91 6.66 1.68 1.68 3.91 2.81 6.568 3.421.886.214 1.833.306 2.871.306 2.047 0 4.4-.398 6.935-1.192 6.293-1.955 10.875-5.468 13.594-10.448 2.78-5.101 4.063-10.722 3.819-16.71-.183-3.94-1.62-6.598-4.582-8.34-1.253-.733-2.964-1.1-5.102-1.1-2.902 0-6.568.673-10.876 2.017-3.024.947-6.293 1.558-9.928 1.863a43.02 43.02 0 0 1-3.33.122 20.37 20.37 0 0 1-3.971-.213Zm14.816-99.376c-.916 0-2.016.183-3.207.55-2.353.733-4.369 2.871-5.958 6.293-1.71 3.727-2.474 8.4-2.199 13.93.153 3.544.428 6.935.855 10.081.367 2.964 1.039 5.53 2.017 7.668.885 1.864 2.016 3.238 3.36 4.094.61.397 1.344.58 2.23.58.825 0 1.772-.153 2.841-.489 2.658-.824 4.888-2.902 6.599-6.11 1.833-3.42 2.627-8.4 2.382-14.846a104.797 104.797 0 0 0-.824-9.745c-.367-2.902-1.07-5.407-2.078-7.454-.916-1.833-2.108-3.147-3.635-4.033-.642-.366-1.436-.55-2.352-.55l-.03.031Z"/><path fill="#fff100" d="M818.086 206.45c.123 0 .275.03.397.122 1.497.886 2.72 2.383 3.636 4.399.855 2.016 1.344 3.94 1.405 5.896.061 1.65-.122 3.116-.55 4.338-.458 1.374-1.466 2.29-2.933 2.78-.641.214-1.344.366-2.107.52-.856.213-1.589.396-2.139.549-1.069.336-2.26.794-3.574 1.436-1.008.52-2.291 1.344-3.94 2.505 2.687 4.032 4.215 9.531 4.49 16.313.427 9.592-2.016 18.543-7.27 26.608-5.255 8.065-13.29 13.839-23.92 17.138-2.383.733-4.675 1.252-6.874 1.527-.978.123-1.955.184-2.902.184-1.039 0-2.047-.061-3.055-.214-1.955 2.2-3.3 4.216-4.063 5.957-.794 1.833-1.161 3.33-1.1 4.43.061 1.19.275 2.077.703 2.688 0 0 0 .03.03.03.367.611 1.1.978 2.23 1.13.428.062.917.092 1.497.092 1.161 0 2.536-.122 4.124-.397 2.444-.366 5.682-1.191 9.898-2.505 5.59-1.741 10.876-2.719 15.702-2.871.367 0 .733-.031 1.07-.031 4.399 0 8.309.825 11.7 2.505 3.666 1.802 6.598 4.735 8.737 8.706 2.138 3.941 3.36 9.135 3.635 15.458a58.59 58.59 0 0 1-1.772 16.985 54.788 54.788 0 0 1-6.812 15.825c-3.086 4.857-7.088 9.256-11.914 13.105-4.858 3.85-10.6 6.813-17.138 8.829-5.132 1.588-9.898 2.474-14.175 2.627-.367 0-.703.03-1.07.03h-.213c-3.88-.03-7.362-.824-10.356-2.413-3.33-1.772-5.988-4.582-7.973-8.34-1.925-3.727-3.055-8.828-3.33-15.152-.245-6.201.825-12.006 3.177-17.29 2.138-4.95 4.827-9.41 8.004-13.228-2.016-1.13-3.666-2.902-4.919-5.316-1.344-2.719-2.107-5.926-2.23-9.562-.214-5.193.49-9.44 2.078-13.044 1.497-3.36 3.788-6.996 7.056-11.059-2.78-1.741-5.346-4.276-7.637-7.515-2.474-3.513-3.88-8.676-4.154-15.366a44.66 44.66 0 0 1 1.894-14.908c1.466-4.826 3.513-9.317 6.079-13.319 2.596-4.032 5.682-7.546 9.226-10.478 3.543-2.933 7.423-5.102 11.547-6.385 3.422-1.07 6.599-1.62 9.5-1.62 1.803 0 3.514.215 5.072.642 3.819 1.04 6.812 2.261 9.134 3.788l15.488-15.885c.214-.153.428-.244.611-.244m-38.95 70.873c.978 0 2.078-.183 3.3-.55 3.055-.947 5.56-3.268 7.484-6.843 1.955-3.666 2.841-8.92 2.536-15.61-.122-3.269-.428-6.599-.825-9.868-.397-3.085-1.13-5.743-2.23-7.942-1.039-2.108-2.444-3.636-4.216-4.674-.886-.489-1.924-.733-3.085-.733h-.061c-1.1 0-2.292.213-3.666.641-2.78.886-5.102 3.269-6.874 7.118-1.833 3.94-2.627 8.86-2.352 14.633.153 3.574.428 6.996.855 10.203.397 3.116 1.1 5.835 2.139 8.096 1.008 2.138 2.321 3.727 3.94 4.735.886.52 1.895.794 3.055.794m-7.912 53.37c-1.863 0-3.482-.154-4.918-.429a24.74 24.74 0 0 0-1.803 7.21 58.693 58.693 0 0 0-.213 8.706c.122 3.422.702 6.721 1.65 9.837.946 2.963 2.413 5.438 4.307 7.301 1.894 1.864 4.338 3.147 7.27 3.819.978.214 2.047.336 3.208.336 2.2 0 4.674-.428 7.393-1.283 6.69-2.077 11.547-5.835 14.45-11.18 2.902-5.347 4.276-11.243 4.001-17.505-.183-4.46-1.924-7.577-5.315-9.562-1.497-.886-3.452-1.314-5.866-1.314-3.054 0-6.842.703-11.333 2.108-2.933.916-6.08 1.497-9.623 1.802-1.16.123-2.23.153-3.208.153m46.862-127.267a3.817 3.817 0 0 0-2.719 1.161l-13.838 14.205c-2.17-1.13-4.766-2.107-7.82-2.902-1.834-.489-3.789-.733-5.866-.733-3.177 0-6.69.58-10.387 1.772-4.49 1.405-8.737 3.757-12.586 6.965-3.757 3.116-7.087 6.874-9.837 11.15-2.718 4.247-4.887 8.982-6.415 14.083a48.305 48.305 0 0 0-2.016 15.916c.336 7.302 1.894 13.014 4.704 16.986 1.772 2.535 3.727 4.674 5.835 6.415-2.444 3.3-4.246 6.354-5.53 9.226-1.802 4.032-2.565 8.737-2.351 14.388.152 4.063 1.008 7.699 2.535 10.784v.061c.917 1.772 2.016 3.3 3.33 4.521-2.505 3.422-4.674 7.271-6.476 11.426-2.536 5.712-3.697 11.975-3.422 18.635.306 6.781 1.528 12.31 3.666 16.435 2.26 4.307 5.346 7.545 9.226 9.623 3.421 1.802 7.362 2.719 11.73 2.75h.214c.398 0 .795 0 1.161-.031 4.552-.153 9.593-1.1 14.97-2.78 6.873-2.139 12.983-5.285 18.115-9.348 5.101-4.063 9.317-8.707 12.586-13.839a56.876 56.876 0 0 0 7.21-16.71 62.46 62.46 0 0 0 1.863-17.871c-.275-6.782-1.62-12.403-3.971-16.772-2.444-4.521-5.835-7.881-10.082-9.959-3.818-1.863-8.187-2.81-13.044-2.81-.397 0-.794 0-1.191.03-5.102.153-10.662 1.161-16.527 2.994-4.063 1.253-7.149 2.047-9.44 2.383h-.061c-1.405.214-2.658.336-3.635.336-.428 0-.764-.03-1.07-.061-.091 0-.152-.03-.244-.03-.061-.184-.092-.49-.122-.978 0-.214.03-1.1.855-3.086.489-1.13 1.344-2.474 2.536-3.971.58.03 1.191.061 1.772.061 1.069 0 2.169-.061 3.268-.214a43.8 43.8 0 0 0 7.393-1.65c11.303-3.543 19.888-9.714 25.54-18.39 5.59-8.584 8.186-18.146 7.759-28.38-.245-5.987-1.406-11.12-3.483-15.244.489-.305.916-.55 1.283-.733 1.13-.55 2.138-.977 3.055-1.252.458-.123 1.13-.306 1.894-.49.825-.182 1.619-.366 2.352-.58h.061c2.383-.794 4.063-2.413 4.827-4.674.55-1.588.794-3.421.703-5.437-.092-2.291-.642-4.583-1.65-6.935v-.061c-1.16-2.597-2.78-4.552-4.857-5.774-.459-.427-1.1-.61-1.803-.61Zm-43.165 67.055c-.917-1.985-1.528-4.399-1.894-7.21-.428-3.115-.703-6.445-.825-9.928-.245-5.285.458-9.745 2.077-13.227 1.405-3.025 3.086-4.888 5.04-5.5 1.04-.335 1.986-.488 2.75-.488h.03c.642 0 1.162.122 1.62.367 1.252.733 2.2 1.802 2.994 3.36.916 1.894 1.588 4.216 1.924 6.965.397 3.177.672 6.415.825 9.592.244 6.14-.489 10.876-2.2 14.053-1.527 2.872-3.482 4.674-5.743 5.407-.916.275-1.741.428-2.383.428-.763 0-1.16-.183-1.374-.336-1.13-.733-2.078-1.894-2.841-3.483Zm-3.697 63.236c1.07 0 2.23-.03 3.422-.122 3.757-.305 7.118-.947 10.264-1.924 4.155-1.314 7.668-1.955 10.417-1.955 1.864 0 3.33.305 4.338.885 2.505 1.467 3.666 3.636 3.819 7.088.244 5.682-.978 11.059-3.635 15.916-2.505 4.613-6.782 7.881-12.709 9.714-2.413.764-4.613 1.13-6.507 1.13-.916 0-1.771-.091-2.535-.274-2.383-.55-4.338-1.558-5.835-3.025-1.528-1.527-2.719-3.543-3.544-6.048-.886-2.841-1.374-5.896-1.497-9.043-.122-2.84-.06-5.62.214-8.279.153-1.466.428-2.84.825-4.185.947.092 1.925.122 2.963.122Z"/><path fill="#221e1f" d="M851.996 304.145c-1.406 0-2.841-.122-4.247-.336-4.704-.703-9.012-2.75-12.86-6.11-3.789-3.33-6.966-7.973-9.38-13.869-2.413-5.743-3.818-13.228-4.184-22.24-.367-8.706.55-17.168 2.718-25.08 2.17-7.912 5.072-15 8.646-21.048 3.543-6.08 7.576-11.273 12.005-15.397 4.491-4.155 8.951-6.935 13.29-8.31 3.726-1.16 7.24-1.771 10.477-1.771 6.905 0 12.648 2.658 17.047 7.881 6.201 7.393 9.684 19.002 10.325 34.551.061 2.078-.916 3.666-2.627 4.216l-46.282 17.23c.612 10.753 2.78 18.573 6.477 23.186 2.413 3.055 5.468 4.521 9.287 4.521 1.863 0 3.94-.366 6.201-1.069 3.177-.977 6.324-2.719 9.348-5.132 3.055-2.474 5.774-5.56 8.035-9.226 0-.03.03-.06.06-.091 1.284-1.894 2.506-2.964 3.82-3.36a3.725 3.725 0 0 1 1.13-.154c.916 0 1.833.306 2.749.886 1.13.703 2.138 2.078 3.238 4.308a2.2 2.2 0 0 1 0 1.955c-4.185 8.737-9.165 15.855-14.816 21.17-5.713 5.316-12.678 9.287-20.712 11.823-3.147.977-6.354 1.497-9.5 1.497l-.245-.03Zm5.254-97.023c-3.605 1.13-6.507 4.43-8.645 9.775-2.047 5.102-2.964 12.464-2.81 21.843l22.91-8.646c.642-.274.978-.61.917-1.619-.122-2.84-.519-5.743-1.191-8.706-.672-2.963-1.558-5.438-2.75-7.607-1.13-2.046-2.443-3.574-3.97-4.582a4.3 4.3 0 0 0-2.475-.764h-.03c-.612 0-1.253.122-1.925.336l-.03-.03Z"/><path fill="#fff100" d="M868.431 191.542c6.446 0 11.792 2.444 15.916 7.362 5.988 7.118 9.348 18.452 9.99 33.634.06 1.894-.978 2.536-1.62 2.72l-47.35 17.534c.55 11.67 2.84 20.132 6.842 25.173 2.72 3.421 6.171 5.101 10.479 5.101 2.016 0 4.246-.366 6.66-1.13 3.36-1.039 6.66-2.872 9.836-5.407 3.208-2.597 6.018-5.804 8.37-9.592 0 0 0-.031.031-.031 1.1-1.589 2.047-2.475 2.994-2.78.183-.061.428-.092.703-.092.519 0 1.16.153 1.924.642.856.55 1.741 1.741 2.688 3.696a.783.783 0 0 1 0 .642c-4.093 8.584-8.981 15.55-14.51 20.712-5.56 5.163-12.342 9.012-20.132 11.456-3.024.947-6.049 1.436-9.043 1.436h-.183c-1.344 0-2.688-.123-4.032-.306-4.4-.672-8.462-2.596-12.098-5.743-3.604-3.147-6.629-7.637-8.981-13.289-2.352-5.56-3.727-12.891-4.094-21.72-.366-8.554.52-16.833 2.658-24.623 2.139-7.79 4.98-14.724 8.493-20.681 3.452-5.957 7.393-11.028 11.73-15.06 4.308-4.003 8.585-6.66 12.709-7.974 3.605-1.1 6.935-1.68 10.02-1.68m-24.103 49.336 24.928-9.409c1.344-.55 1.955-1.527 1.863-3.085a49.47 49.47 0 0 0-1.222-8.982c-.702-3.085-1.65-5.712-2.902-8.003-1.252-2.261-2.75-3.972-4.46-5.133a5.854 5.854 0 0 0-3.33-1.008h-.03c-.764 0-1.558.122-2.414.397-4.063 1.283-7.3 4.858-9.623 10.662-2.2 5.682-3.177 13.96-2.81 24.561m24.103-52.36c-3.391 0-7.057.61-10.937 1.832-4.551 1.436-9.225 4.338-13.869 8.615-4.552 4.216-8.676 9.531-12.28 15.733-3.636 6.17-6.568 13.38-8.799 21.415-2.23 8.095-3.146 16.68-2.78 25.57.398 9.194 1.833 16.862 4.308 22.758 2.505 6.08 5.804 10.937 9.776 14.42 4.063 3.543 8.645 5.712 13.624 6.476a30.98 30.98 0 0 0 4.46.336h.214c3.33 0 6.66-.52 9.96-1.558 8.217-2.597 15.396-6.66 21.261-12.128 5.805-5.438 10.906-12.709 15.153-21.629a3.722 3.722 0 0 0-.03-3.269c-1.223-2.474-2.414-4.032-3.758-4.888-1.161-.763-2.353-1.13-3.575-1.13-.519 0-1.038.061-1.527.214h-.061c-2.17.672-3.666 2.566-4.613 3.971-.03.061-.061.092-.092.153-2.169 3.483-4.765 6.476-7.698 8.829-2.872 2.29-5.835 3.94-8.829 4.857-2.108.642-4.032.978-5.743.978-3.39 0-5.957-1.253-8.126-3.972-3.36-4.216-5.376-11.364-6.049-21.231l45.213-16.741c1.863-.611 3.757-2.444 3.635-5.682-.672-15.886-4.246-27.8-10.692-35.468-4.643-5.62-10.753-8.462-18.146-8.462Zm-10.662 20.009c.52-.153 1.009-.244 1.436-.244h.03c.612 0 1.131.152 1.65.519 1.314.855 2.475 2.23 3.483 4.063 1.1 2.047 1.955 4.399 2.597 7.21.641 2.871 1.038 5.712 1.13 8.431v.183l-20.834 7.851c0-8.156.916-14.572 2.718-19.093 1.956-4.918 4.552-7.912 7.699-8.89l.091-.03Z"/><path fill="#221e1f" d="M897.697 287.68a2.269 2.269 0 0 1-2.138-1.527c-.337-.948-.52-2.506-.642-4.95-.183-3.452 1.741-5.04 2.871-5.682 4.064-2.322 5.835-3.91 6.6-4.827.946-1.1 1.343-2.413 1.252-4.216l-2.628-62.93c-.122-3.178-.641-5.621-1.527-7.21-.336-.642-1.558-.978-3.33-.978-.733 0-1.588.061-2.535.184h-.031c-.214.03-.428.03-.611.03-1.07 0-1.986-.305-2.719-.947-1.039-.855-1.588-2.169-1.71-4.002 0-.183-.031-.366-.031-.55v-.06c0-.367-.03-.764-.061-1.253-.061-1.07.091-2.078.427-2.933.245-.641.764-1.1 1.406-1.313.733-.245 1.65-.55 2.718-.978.52-.214 1.07-.397 1.65-.611l.092-.03c.733-.276 1.466-.55 2.26-.825 1.283-.49 2.597-1.009 4.308-1.68a29.547 29.547 0 0 0 3.544-1.742.232.232 0 0 1 .122-.061 189.32 189.32 0 0 0 7.454-4.063c2.81-1.65 4.643-2.597 5.743-2.902a4.488 4.488 0 0 1 1.405-.214c.764 0 1.497.214 2.108.642 1.191.824 1.833 2.26 1.925 4.43l.183 4.55c2.413-4.001 4.766-7.27 7.057-9.805 3.696-4.155 7.973-6.996 12.739-8.493 1.374-.428 2.688-.641 3.88-.641 2.382 0 4.368.855 5.926 2.505 2.077 2.2 3.207 5.407 3.421 9.53a11.651 11.651 0 0 1-.397 3.667c-.336 1.16-1.008 2.444-2.108 3.88-1.008 1.344-2.352 2.902-3.971 4.612-1.528 1.62-3.574 3.666-6.415 6.416a2.38 2.38 0 0 1-1.589.641c-.611 0-1.222-.244-1.619-.702-1.955-2.017-3.3-2.658-4.063-2.841h-.03c-.52-.123-1.04-.214-1.559-.214-.58 0-1.16.091-1.71.275-1.07.336-2.108.916-3.147 1.771-.947.795-1.833 2.047-2.627 3.85-.855 1.924-1.528 4.368-1.986 7.3-.489 3.025-.61 6.844-.427 11.304l1.802 43.502c.092 2.2.672 3.604 1.741 4.154.52.275 1.955.733 5.346.733 1.222 0 2.627-.06 4.155-.183H940.526c1.04 0 1.956.336 2.658.978.917.824 1.405 2.046 1.436 3.696.092 2.597.03 4.094-.183 5.102a2.182 2.182 0 0 1-1.772 1.71c-1.344.275-3.086.703-5.194 1.284-2.077.58-4.276 1.16-6.781 1.771-2.353.58-4.674 1.192-6.935 1.803-2.597.733-4.46 1.283-6.018 1.772-4.094 1.283-7.698 2.535-10.723 3.696-2.81 1.1-5.56 2.23-8.431 3.452-.245.061-.55.122-.886.122Z"/><path fill="#fff100" d="M949.538 163.498c1.956 0 3.575.672 4.827 2.016 1.833 1.925 2.841 4.827 3.024 8.584.031 1.161-.06 2.23-.336 3.177-.274.978-.886 2.078-1.863 3.391-.978 1.314-2.26 2.81-3.85 4.46a246.392 246.392 0 0 1-6.384 6.385.736.736 0 0 1-.55.214.765.765 0 0 1-.55-.244c-1.772-1.833-3.39-2.933-4.796-3.27-.641-.182-1.313-.243-1.925-.243a7.27 7.27 0 0 0-2.138.336c-1.252.397-2.444 1.069-3.635 2.046-1.161.947-2.139 2.383-3.055 4.4-.917 2.046-1.62 4.643-2.077 7.698-.49 3.116-.642 7.026-.428 11.608l1.802 43.502c.092 2.81.978 4.613 2.566 5.438.886.427 2.628.886 6.05.886 1.19 0 2.626-.061 4.276-.184h.183c.672 0 1.222.184 1.65.58.61.55.916 1.406.947 2.628.091 2.444.03 3.85-.153 4.735a.8.8 0 0 1-.58.58 69.033 69.033 0 0 0-5.316 1.314c-2.047.58-4.246 1.13-6.72 1.772-2.353.58-4.705 1.191-6.966 1.802a243.013 243.013 0 0 0-6.11 1.772c-4.124 1.283-7.759 2.536-10.814 3.727-2.81 1.1-5.59 2.23-8.492 3.483-.092.03-.214.06-.306.06s-.214-.03-.305-.06a.899.899 0 0 1-.428-.459c-.275-.794-.458-2.26-.58-4.52-.123-2.506 1.069-3.728 2.107-4.278 3.422-1.955 5.774-3.696 7.027-5.193 1.191-1.375 1.71-3.085 1.619-5.254l-2.628-62.931c-.122-3.422-.702-6.08-1.71-7.882-.642-1.191-2.2-1.772-4.644-1.772-.825 0-1.741.061-2.75.214-.152.03-.305.03-.457.03-.703 0-1.283-.183-1.772-.58-.703-.58-1.07-1.527-1.161-2.902 0-.153 0-.336-.03-.52 0-.366-.031-.824-.062-1.343-.06-.856.061-1.65.306-2.291a.693.693 0 0 1 .489-.428c.733-.245 1.71-.58 2.81-.978.52-.183 1.07-.397 1.65-.61.763-.276 1.527-.581 2.352-.887a171.335 171.335 0 0 0 4.338-1.71 28.298 28.298 0 0 0 3.727-1.833l.03-.03a144.925 144.925 0 0 0 7.515-4.094c2.689-1.589 4.46-2.475 5.408-2.78.336-.092.672-.153.977-.153.458 0 .886.122 1.253.366.794.55 1.191 1.59 1.283 3.239l.397 9.806c3.238-6.018 6.415-10.753 9.47-14.114 3.513-3.94 7.576-6.66 12.067-8.065 1.222-.458 2.352-.641 3.421-.641m0-3.024c-1.344 0-2.81.244-4.338.733-5.01 1.588-9.53 4.582-13.41 8.95-1.528 1.68-3.055 3.666-4.644 5.988-.153-2.505-1.008-4.307-2.566-5.346a5.307 5.307 0 0 0-2.963-.916c-.611 0-1.222.091-1.833.275-.825.244-2.291.824-6.08 3.054a185.853 185.853 0 0 1-7.362 4.033c-.091.03-.153.092-.214.122-.947.55-2.077 1.1-3.36 1.65-1.68.672-2.994 1.191-4.246 1.68-.795.305-1.558.58-2.292.855l-.06.03c-.581.215-1.13.429-1.65.612-1.039.397-1.955.702-2.658.947a3.738 3.738 0 0 0-2.352 2.2c-.428 1.069-.611 2.29-.52 3.574.03.488.03.886.061 1.283v.03c0 .214 0 .397.031.55.122 2.23.886 3.94 2.23 5.071 1.008.825 2.291 1.283 3.696 1.283.245 0 .52 0 .795-.03h.06a17.21 17.21 0 0 1 2.353-.184c1.344 0 1.894.214 2.047.306.52 1.008 1.16 2.902 1.283 6.446l2.627 62.93c.092 1.803-.427 2.628-.886 3.147-.58.672-2.138 2.169-6.201 4.49-2.475 1.375-3.788 3.972-3.635 7.058.122 2.627.366 4.276.733 5.376.336 1.008 1.1 1.803 2.077 2.23.458.214.947.306 1.466.306h.03c.52 0 1.04-.092 1.498-.306a256.497 256.497 0 0 1 8.4-3.421c2.995-1.192 6.569-2.414 10.632-3.666 1.558-.489 3.39-1.039 5.987-1.741 2.261-.611 4.583-1.222 6.904-1.803a867.948 867.948 0 0 0 6.813-1.772c2.077-.58 3.788-1.008 5.102-1.252a3.764 3.764 0 0 0 2.963-2.872c.275-1.16.336-2.719.214-5.499-.061-2.046-.734-3.665-1.955-4.765-.978-.886-2.261-1.344-3.666-1.344h-.397a50.052 50.052 0 0 1-4.033.183c-3.3 0-4.46-.458-4.674-.55-.52-.275-.855-1.344-.886-2.841l-1.802-43.532c-.184-4.369-.061-8.065.397-10.998.428-2.81 1.07-5.132 1.863-6.934.703-1.558 1.436-2.689 2.2-3.3.886-.733 1.772-1.222 2.658-1.497a4.286 4.286 0 0 1 1.252-.183c.367 0 .794.061 1.192.153h.06c.367.091 1.436.489 3.33 2.413a3.998 3.998 0 0 0 2.658 1.161h.061c.978 0 1.955-.397 2.658-1.07 2.841-2.78 4.888-4.826 6.446-6.445 1.68-1.741 3.055-3.33 4.093-4.735 1.192-1.62 1.956-3.024 2.353-4.369.366-1.252.52-2.627.458-4.124v-.06c-.214-4.491-1.497-8.035-3.819-10.51-1.985-2.016-4.399-3.054-7.179-3.054Z"/><path fill="#221e1f" d="M336.513 504.638a2.22 2.22 0 0 1-1.375-.49 2.209 2.209 0 0 1-.855-1.649l-2.016-35.345a2.269 2.269 0 0 1 1.65-2.291l4.734-1.314a2.265 2.265 0 0 1 2.78 1.466c.367 1.1.825 2.17 1.406 3.239 1.802 3.33 4.46 5.865 7.545 7.087 1.406.55 2.872.825 4.369.825 2.108 0 4.246-.55 6.354-1.68 4.949-2.597 7.912-4.4 11.211-11.517 5.316-12.77 2.505-27.036-8.278-42.433-4.522-6.445-10.05-12.463-15.366-18.298-12.312-13.442-25.02-27.311-26.7-47.32-1.62-18.666 5.682-34.613 20.529-44.907 12.097-8.401 21.445-10.112 34.337-12.495 1.435-.275 2.902-.55 4.46-.825.153-.03.275-.03.427-.03a2.255 2.255 0 0 1 2.261 2.107l1.497 25.54c.061.855-.397 1.68-1.16 2.107l-2.598 1.467a2.406 2.406 0 0 1-1.13.305 1.97 1.97 0 0 1-.61-.092c-.581-.152-1.1-.58-1.376-1.1-1.008-1.863-2.138-3.36-3.421-4.52-2.291-2.139-5.132-3.147-8.706-3.147-1.314 0-2.72.153-4.216.428-5.132.977-11.884 4.887-14.053 12.708-2.29 8.279.886 17.78 4.796 23.095 4.369 5.957 9.562 11.517 15.092 17.413 14.755 15.824 30.03 32.198 32.26 58.684 1.863 21.812-6.08 40.111-23.584 54.408-13.167 10.784-27.8 15.61-35.346 17.504-2.749.734-4.399 1.009-4.43 1.009-.213.03-.335.06-.488.06Z"/><path fill="#fff100" d="M381.634 298.158a.75.75 0 0 1 .458.152c.183.122.275.336.306.55l1.496 25.539c.031.275-.122.55-.397.703l-2.596 1.466a.814.814 0 0 1-.367.092c-.061 0-.153 0-.214-.03a.7.7 0 0 1-.458-.367c-1.1-2.017-2.322-3.636-3.727-4.919-2.566-2.383-5.774-3.543-9.715-3.543-1.405 0-2.902.152-4.49.427-5.56 1.039-12.892 5.285-15.244 13.808-2.414 8.768.916 18.788 5.04 24.409 4.43 6.018 9.654 11.639 15.183 17.566 14.603 15.64 29.694 31.801 31.863 57.798 1.802 21.262-5.927 39.133-23.034 53.125-12.953 10.6-27.341 15.335-34.765 17.199-2.658.702-4.246.977-4.307.977h-.122a.75.75 0 0 1-.459-.152.653.653 0 0 1-.275-.55l-2.016-35.345c-.03-.336.214-.673.55-.764l4.735-1.314c.061-.03.153-.03.214-.03.336 0 .611.213.733.519.397 1.16.886 2.352 1.497 3.483 1.955 3.665 4.918 6.415 8.31 7.759a13.04 13.04 0 0 0 4.918.947c2.352 0 4.735-.611 7.057-1.833 5.101-2.658 8.4-4.674 11.883-12.25 5.53-13.258 2.688-28.044-8.431-43.93-4.552-6.506-10.112-12.586-15.489-18.45-12.128-13.229-24.653-26.945-26.333-46.405-1.558-18.115 5.499-33.573 19.887-43.532 11.853-8.187 21.049-9.898 33.757-12.25 1.436-.275 2.902-.55 4.46-.825 0 0 .061-.03.092-.03m0-2.994c-.245 0-.489.03-.733.06-1.497.276-2.964.55-4.4.826h-.03c-13.075 2.413-22.545 4.154-34.917 12.739-7.607 5.254-13.32 11.975-16.955 19.917-3.635 7.943-5.04 16.802-4.216 26.334.794 9.225 3.972 18.054 9.715 26.944 5.01 7.729 11.303 14.602 17.382 21.262 5.316 5.804 10.814 11.792 15.244 18.146 10.478 14.938 13.228 28.716 8.157 40.966-3.086 6.66-5.744 8.279-10.51 10.784-1.893 1.008-3.787 1.497-5.65 1.497-1.284 0-2.597-.245-3.82-.733-2.749-1.1-5.132-3.36-6.75-6.385a21.249 21.249 0 0 1-1.314-2.994 3.779 3.779 0 0 0-3.605-2.597c-.336 0-.703.061-1.039.153l-4.704 1.314c-1.711.458-2.841 2.077-2.75 3.849l2.017 35.345c.06 1.1.58 2.077 1.466 2.75.641.519 1.466.794 2.291.794h.03c.214 0 .428-.03.642-.062.061 0 1.741-.305 4.552-1.038 7.668-1.955 22.514-6.843 35.925-17.81 8.89-7.27 15.428-15.641 19.46-24.959 4.033-9.317 5.621-19.673 4.674-30.762-1.008-12.128-4.857-23.31-11.73-34.124-6.019-9.47-13.595-17.596-20.927-25.447-5.468-5.865-10.63-11.395-14.969-17.29-1.955-2.658-3.574-6.263-4.46-9.929-1.038-4.246-1.069-8.34-.091-11.883 1.985-7.18 8.187-10.754 12.891-11.64 1.405-.244 2.72-.397 3.941-.397 3.177 0 5.682.886 7.668 2.75 1.16 1.069 2.169 2.413 3.116 4.124a3.814 3.814 0 0 0 2.29 1.833c.337.091.704.152 1.04.152.641 0 1.283-.152 1.863-.488l2.597-1.467c1.252-.702 1.985-2.077 1.924-3.513l-1.497-25.539a3.82 3.82 0 0 0-1.466-2.78c-.703-.427-1.527-.702-2.352-.702Z"/><path fill="#221e1f" d="M591.352 396.647c-.947 0-2.352-.397-3.696-2.169-.886-1.191-2.047-3.604-3.574-7.576L559 319.358c-.703-1.924-1.375-3.543-1.955-4.674-.458-.855-.947-1.496-1.405-1.863-.367-.305-.734-.428-1.253-.489h-.03a31.285 31.285 0 0 0-3.27-.153h-.152c-1.344-.03-4.4-.61-4.643-5.468-.062-1.069.06-2.566.366-4.582.122-.947.856-1.71 1.833-1.894a97.434 97.434 0 0 0 8.37-2.047c3.3-.947 7.424-2.2 11.029-3.33 4.643-1.466 7.729-2.474 10.325-3.36a117.08 117.08 0 0 0 8.523-3.269 2.19 2.19 0 0 1 .886-.183c.336 0 .703.091 1.008.244a2.316 2.316 0 0 1 1.222 1.497c.428 1.741.672 3.147.734 4.277.152 3.696-1.68 5.438-3.208 6.293l-.03.03c-3.208 1.59-4.003 2.536-4.155 2.78-.428.673-.611 1.406-.611 2.2.03.52.305 1.894.947 4.094.641 2.26 1.924 6.11 3.849 11.455l8.492 25.02 14.725-63.48c.703-3.117 2.505-4.308 3.91-4.766h.03a6.928 6.928 0 0 1 1.895-.275c.794 0 1.558.153 2.322.427a2.28 2.28 0 0 1 1.313 1.345l19.826 54.468c1.528-6.72 2.811-12.555 3.85-17.382 1.497-6.873 2.566-12.158 3.299-16.13.794-4.277 1.283-7.423 1.527-9.653.245-2.291.306-4.155.245-5.5-.061-1.649-.672-2.657-3.452-2.748h-.122c-1.253-.123-2.2-.459-2.933-1.009l-.03-.03c-1.192-1.008-1.375-2.75-1.437-3.971-.03-.49 0-1.13.092-2.108.03-.336.061-.672.122-1.008.061-.428.092-.856.122-1.284a2.304 2.304 0 0 1 1.803-2.016c4.277-.886 8.981-2.108 14.388-3.818 4.674-1.467 8.951-3.055 12.648-4.674.275-.123.61-.184.916-.184.306 0 .611.061.886.184.58.244 1.039.733 1.253 1.344.336.947.55 1.894.641 2.963.092.947.153 1.589.183 1.925v.03c.123 2.536-.947 4.582-3.054 5.988l-.031.03c-1.68 1.039-2.78 1.772-3.605 2.383-.702.52-1.313 1.192-1.863 2.047a14.87 14.87 0 0 0-1.528 3.36c-.52 1.558-1.069 3.605-1.558 5.866L641.452 379.6a2.189 2.189 0 0 1-.61 1.1c-.734.733-1.558 1.252-2.536 1.527-.183.061-.397.122-.58.183-.428.123-.886.275-1.375.428-.367.122-.733.153-1.1.153-.947 0-2.383-.367-3.696-2.17-.886-1.19-2.047-3.604-3.575-7.575l-16.038-41.73-14.45 61.8a2.448 2.448 0 0 1-.58 1.07c-.733.733-1.588 1.252-2.535 1.527-.184.061-.398.122-.611.183-.428.153-.886.275-1.375.428a4.848 4.848 0 0 1-1.039.122Z"/><path fill="#fff100" d="M670.963 263.637c.091 0 .214.03.305.061a.898.898 0 0 1 .428.459c.275.824.489 1.68.58 2.627.092.916.153 1.558.184 1.863.091 1.986-.703 3.544-2.383 4.644-1.711 1.069-2.841 1.802-3.697 2.444-.855.61-1.588 1.435-2.23 2.444-.672 1.069-1.252 2.321-1.71 3.727-.52 1.619-1.07 3.696-1.589 6.018l-20.804 91.34c-.03.123-.091.245-.183.368-.55.55-1.192.947-1.894 1.16-.183.061-.397.123-.611.184-.428.122-.886.275-1.344.397a2.236 2.236 0 0 1-.672.091c-.703 0-1.589-.336-2.505-1.558-.825-1.069-1.925-3.421-3.36-7.21l-17.78-46.342-15.55 66.597c-.03.122-.091.244-.183.366-.55.55-1.191.947-1.894 1.161-.214.061-.397.122-.61.184-.429.122-.887.275-1.345.397a2.235 2.235 0 0 1-.672.091c-.703 0-1.589-.366-2.475-1.558-.824-1.069-1.924-3.421-3.36-7.21l-25.08-67.512c-.734-1.986-1.406-3.666-2.017-4.827-.58-1.07-1.16-1.833-1.802-2.352a3.667 3.667 0 0 0-2.078-.825 34.588 34.588 0 0 0-3.421-.153h-.153c-1.344-.03-2.963-.733-3.116-4.032-.03-.978.061-2.383.336-4.277a.744.744 0 0 1 .611-.642 87.609 87.609 0 0 0 8.493-2.077c3.3-.947 7.423-2.2 11.058-3.33a499.61 499.61 0 0 0 10.387-3.36c2.75-.917 5.652-2.047 8.645-3.3.092-.03.214-.06.306-.06.122 0 .244.03.336.091.214.092.336.275.397.489.397 1.65.642 2.932.672 3.971.092 2.322-.733 3.972-2.413 4.888-3.177 1.558-4.338 2.658-4.766 3.33a5.247 5.247 0 0 0-.855 3.085c.03.795.428 2.414 1.008 4.46.642 2.292 1.955 6.171 3.88 11.517l10.172 30.03 15.947-68.674c.428-1.955 1.405-3.177 2.902-3.666a4.87 4.87 0 0 1 1.467-.214c.61 0 1.19.122 1.771.336a.708.708 0 0 1 .428.459l21.568 59.295a2930.41 2930.41 0 0 0 5.01-22.423c1.497-6.904 2.566-12.189 3.299-16.16.794-4.308 1.283-7.515 1.527-9.776.245-2.383.336-4.307.245-5.743-.092-2.75-1.65-4.063-4.888-4.155h-.03c-.948-.091-1.65-.305-2.14-.702-.549-.459-.854-1.406-.885-2.872-.03-.428 0-1.039.092-1.894.03-.336.06-.642.091-1.008.061-.428.092-.856.153-1.314a.746.746 0 0 1 .611-.672c4.338-.886 9.073-2.138 14.541-3.849 4.735-1.497 9.043-3.085 12.8-4.705.03-.091.123-.122.245-.122m0-3.024a3.79 3.79 0 0 0-1.528.305c-3.666 1.589-7.881 3.147-12.525 4.613-5.346 1.68-10.02 2.902-14.236 3.758-1.619.336-2.871 1.71-3.024 3.36-.03.428-.092.856-.122 1.253v.03l-.092 1.008c-.091 1.008-.122 1.711-.091 2.292.03 1.527.305 3.665 1.955 5.07l.03.031.03.03c.978.764 2.2 1.192 3.728 1.314h.214c1.344.03 1.71.336 1.771.367.123.092.184.428.214.886v.06c.061 1.284 0 3.056-.244 5.255-.214 2.17-.703 5.285-1.497 9.532-.733 3.94-1.802 9.195-3.3 16.068-.763 3.605-1.68 7.73-2.718 12.373l-18.055-49.612a3.774 3.774 0 0 0-2.2-2.23 7.74 7.74 0 0 0-2.87-.55c-.764 0-1.559.122-2.322.336h-.061c-2.505.825-4.247 2.902-4.919 5.866l-13.533 58.318-6.782-19.98v-.06c-1.894-5.285-3.177-9.104-3.819-11.334v-.061c-.641-2.2-.855-3.391-.885-3.727 0-.489.091-.886.366-1.314.092-.091.764-.886 3.544-2.26l.03-.031.03-.03c2.72-1.467 4.156-4.186 4.003-7.668-.061-1.222-.306-2.72-.764-4.583a3.737 3.737 0 0 0-2.016-2.474 3.927 3.927 0 0 0-1.65-.367c-.52 0-1.008.092-1.497.306-2.902 1.222-5.743 2.322-8.4 3.207-2.567.886-5.652 1.894-10.296 3.33-3.604 1.1-7.729 2.383-10.967 3.3a94.068 94.068 0 0 1-8.217 2.016 3.763 3.763 0 0 0-3.025 3.177c-.305 2.108-.427 3.666-.366 4.857.122 2.26.794 4.002 1.985 5.224 1.07 1.07 2.475 1.65 4.094 1.68h.214c1.252 0 2.291.03 3.116.122h.06c.245.03.337.061.398.153.183.153.52.52 1.008 1.405.55 1.07 1.192 2.597 1.864 4.46l25.08 67.514c1.589 4.154 2.75 6.598 3.758 7.942 1.68 2.261 3.574 2.75 4.888 2.78h.03a4.93 4.93 0 0 0 1.497-.214c.489-.152.978-.305 1.405-.427.214-.061.397-.122.58-.184a7.334 7.334 0 0 0 3.147-1.924c.49-.489.825-1.13 1.008-1.802l13.32-57.005 14.266 37.148c1.589 4.154 2.75 6.598 3.758 7.942 1.71 2.292 3.604 2.78 4.918 2.78a4.93 4.93 0 0 0 1.497-.213c.52-.153.977-.306 1.405-.428h.061c.184-.061.367-.122.52-.153a7.333 7.333 0 0 0 3.146-1.924 3.744 3.744 0 0 0 1.008-1.833l20.804-91.342a64.767 64.767 0 0 1 1.527-5.743c.367-1.16.856-2.169 1.375-3.055.458-.702.947-1.252 1.497-1.65.794-.58 1.864-1.282 3.513-2.29l.03-.031.031-.03c2.566-1.68 3.91-4.278 3.758-7.332v-.061c-.03-.337-.061-1.009-.183-1.986a14.149 14.149 0 0 0-.734-3.269c-.336-1.008-1.1-1.802-2.077-2.23-.458.03-.947-.061-1.466-.061Z"/></svg>