<?xml version="1.0" encoding="UTF-8"?>
<!-- Generated by Pixelmator Pro 3.5.3 -->
<svg width="1280" height="640" viewBox="0 0 1280 640" xmlns="http://www.w3.org/2000/svg">
    <g id="Group-copy">
        <g id="Group">
            <g id="g1">
                <g id="g2">
                    <path id="Path" fill="#ffffff" stroke="none" d="M 610.127808 172.806824 C 624.92865 172.806824 639.729492 178.671326 650.899902 192.913666 C 661.791077 179.229889 676.871277 173.365387 692.230652 173.365387 C 722.111511 173.365387 752.550964 196.264832 751.154663 230.055359 L 751.154663 259.098572 C 756.460693 259.098572 761.766663 258.819305 767.351868 258.819305 C 788.296448 258.819305 810.916626 261.332642 824.04187 278.926056 C 842.473083 256.585175 875.146667 246.53183 908.65802 246.53183 C 952.501953 246.53183 997.183777 263.566711 1012.822388 292.051361 C 1033.766968 263.287506 1065.881958 245.973267 1101.348267 245.973267 C 1101.906738 245.973267 1102.185913 245.973267 1102.744507 245.973267 C 1104.140869 245.973267 1105.816284 245.973267 1107.491943 245.973267 C 1114.473389 245.973267 1122.292847 245.694 1130.112061 245.694 C 1149.939697 245.694 1170.60498 247.648865 1182.333984 262.17038 C 1216.682983 294.006226 1191.549561 355.72287 1145.471436 355.72287 C 1144.912842 355.72287 1144.075195 355.72287 1143.516602 355.72287 C 1143.516602 355.72287 1142.399536 355.72287 1140.723999 355.72287 C 1135.417969 355.72287 1123.40979 355.72287 1114.194214 355.72287 C 1107.491943 355.72287 1102.185913 355.72287 1102.185913 355.72287 C 1102.185913 355.72287 1101.906738 356.002167 1101.906738 356.002167 C 1100.231079 382.252686 1109.726074 431.123383 1085.709595 450.671661 C 1075.656128 461.562927 1061.413818 466.5896 1047.450806 466.5896 C 1028.740356 466.5896 1010.029785 457.374023 1000.255676 440.33905 C 986.292603 456.256897 951.664246 466.031036 916.477295 466.031036 C 883.524536 466.031036 849.733887 457.094727 831.581909 436.150146 C 819.852905 461.004364 793.043823 467.148132 767.910339 467.148132 C 763.162964 467.148132 758.694763 466.868866 754.226563 466.5896 C 716.526306 466.5896 683.852783 451.230225 663.466675 421.907806 C 658.440002 449.554626 632.189453 466.5896 606.497437 466.5896 C 592.255066 466.5896 578.012817 461.28363 567.400879 450.11319 C 542.825867 430.006348 552.600037 380.856384 550.645203 353.488831 C 545.059998 355.443695 533.889526 356.002167 522.439819 356.002167 C 513.782715 356.002167 505.12561 355.72287 498.981873 355.72287 C 496.747772 355.72287 495.072235 355.72287 493.396667 355.72287 C 493.396667 355.72287 493.117371 356.002167 493.117371 356.002167 C 491.441833 382.252686 500.936707 431.123383 476.920258 450.671661 C 466.866852 461.562927 452.903809 466.5896 439.220001 466.5896 C 416.599854 466.5896 393.979675 453.185089 386.439636 430.285645 C 365.774323 454.302124 334.776306 466.868866 303.778351 466.868866 C 284.509308 466.868866 265.240326 461.842102 248.205368 451.788757 C 231.449692 462.400665 213.018463 467.148132 194.866486 467.148132 C 136.5009 467.148132 79.25238 418.835907 81.765724 355.72287 C 81.765724 355.72287 81.765724 299.870636 81.765724 299.870636 C 81.765724 263.845978 109.133324 245.694 136.780182 245.694 C 164.427017 245.694 192.073883 263.845978 191.794617 299.870636 L 193.190933 300.149933 C 193.190933 263.845978 221.117035 245.694 248.763901 245.694 C 276.13147 245.694 303.778351 263.566711 303.778351 299.870636 L 305.174652 299.870636 C 304.057587 265.521545 333.100769 245.694 361.585419 245.694 C 383.088501 245.694 404.591614 257.143738 412.410919 281.997955 C 433.914032 258.540039 461.560913 246.252563 493.396667 246.252563 C 493.396667 246.252563 493.675934 246.252563 493.675934 246.252563 C 495.351471 246.252563 497.027069 246.252563 499.261169 246.252563 C 505.684143 246.252563 514.341248 245.973267 522.719055 245.973267 C 535.285828 245.973267 547.8526 246.53183 554.275574 249.882904 C 537.519958 208.831573 573.823853 172.806824 610.127808 172.806824"/>
                </g>
                <g id="g3">
                    <path id="path1" fill="#dededd" stroke="none" d="M 767.631165 468.823639 C 763.162964 468.823639 758.694763 468.544434 753.947266 468.265167 C 716.247009 468.265167 684.411255 453.185089 664.025269 425.817444 C 658.160767 447.320587 637.216125 467.985901 606.21814 467.985901 C 590.579529 467.985901 576.337219 461.842102 566.004578 450.950928 C 547.014771 435.312317 548.131836 402.638794 548.690369 376.388275 C 548.969604 368.848175 549.248901 361.587372 548.969604 355.443695 C 543.942932 356.839996 535.565125 357.398468 522.439819 357.398468 C 517.692383 357.398468 513.224243 357.398468 508.756012 357.398468 C 503.170807 357.398468 498.144104 357.119171 494.513702 357.398468 C 494.234467 363.542236 494.513702 371.082245 494.792969 378.901611 C 495.630768 404.872864 496.468536 436.987885 478.037292 452.067993 C 468.263153 462.679932 454.579376 468.544434 439.220001 468.544434 C 415.482819 468.544434 393.979675 454.302124 385.881104 433.916016 C 365.495056 456.256897 335.893402 468.823639 303.778351 468.823639 C 283.950806 468.823639 264.681763 463.796997 248.484634 454.022827 C 232.566742 463.796997 214.135513 469.102905 195.145752 469.102905 C 164.147766 469.102905 132.311981 455.419128 110.250359 432.240479 C 89.864304 411.016632 79.25238 383.928284 80.369415 356.002167 L 80.369415 300.149933 C 80.369415 284.232086 85.675385 270.548218 95.449524 260.774078 C 105.782188 250.441467 120.862282 244.576965 137.059433 244.576965 C 137.059433 244.576965 137.059433 244.576965 137.059433 244.576965 C 153.256577 244.576965 168.336685 250.441467 178.669357 261.053375 C 186.209396 268.593445 190.956833 277.809021 192.911667 288.700195 C 198.496887 258.540039 224.46817 244.576965 249.043152 244.576965 C 249.043152 244.576965 249.043152 244.576965 249.043152 244.576965 C 273.059601 244.576965 299.030914 258.260742 304.616119 288.141724 C 306.570984 278.367584 311.039124 269.431183 318.02066 262.17038 C 328.911865 250.999939 344.829742 244.297699 361.864655 244.297699 C 380.854401 244.297699 404.033081 253.513367 413.248718 279.205353 C 434.751831 256.864441 462.398651 244.856262 493.396667 244.856262 L 493.675934 244.856262 C 497.864868 245.135529 503.170807 244.856262 509.314545 244.856262 C 513.503479 244.856262 518.250916 244.576965 522.719055 244.576965 C 536.402832 244.576965 545.339233 245.414734 551.203735 247.090302 C 545.618469 230.893188 547.8526 214.137512 557.626709 199.615906 C 569.076477 182.301758 589.74176 171.131317 610.127808 171.131317 C 610.127808 171.131317 610.127808 171.131317 610.127808 171.131317 C 626.045715 171.131317 640.288025 177.833588 650.899902 190.121063 C 661.232605 178.112854 675.75415 171.410522 692.230652 171.410522 C 692.230652 171.410522 692.230652 171.410522 692.230652 171.410522 C 709.265503 171.410522 726.300415 178.671326 737.750183 190.679596 C 748.082886 201.57077 753.388794 215.254547 752.830261 230.055359 L 752.830261 257.423004 L 754.505859 257.423004 C 758.694763 257.423004 763.162964 257.143738 767.351868 257.143738 C 787.737915 257.143738 810.078796 259.377777 824.04187 276.41272 C 841.635376 256.305969 872.354065 245.135529 908.378723 245.135529 C 908.378723 245.135529 908.378723 245.135529 908.378723 245.135529 C 954.456848 245.135529 996.625305 263.287506 1012.543091 289.258759 C 1034.325562 260.774078 1066.161255 244.576965 1100.789673 244.576965 L 1102.185913 244.576965 C 1106.933472 244.576965 1111.960083 244.576965 1117.545288 244.576965 C 1121.454956 244.576965 1125.643921 244.297699 1129.832764 244.297699 C 1149.381104 244.297699 1170.884277 246.252563 1183.450928 261.332642 C 1199.648071 276.133453 1204.395508 299.312164 1195.738403 321.373779 C 1187.081299 343.435394 1167.253784 357.677734 1145.471436 357.677734 C 1144.912842 357.677734 1144.075195 357.677734 1143.516602 357.677734 C 1143.516602 357.677734 1142.399536 357.677734 1140.723999 357.677734 L 1114.194214 357.677734 C 1109.446777 357.677734 1105.537109 357.677734 1103.582275 357.677734 C 1103.302979 363.821503 1103.582275 371.082245 1103.861572 378.901611 C 1104.699341 404.872864 1105.537109 436.987885 1087.105835 452.067993 C 1077.331787 462.679932 1063.089355 468.544434 1047.730103 468.544434 C 1028.181763 468.544434 1010.029785 459.0495 1000.255676 443.41095 C 985.454834 458.211731 952.222717 467.985901 916.756592 467.985901 C 879.894104 467.985901 849.175354 457.653198 832.140381 439.501221 C 821.528503 459.0495 799.746155 468.823639 767.631165 468.823639 Z M 662.34967 417.718872 L 664.58374 421.070068 C 684.132019 449.27536 715.967834 464.914001 753.947266 465.193298 C 758.694763 465.472565 763.4422 465.751831 767.631165 465.751831 C 799.466919 465.751831 820.411499 455.698425 829.906372 435.87085 L 831.023376 433.63681 L 832.698975 435.591583 C 848.896057 454.302124 879.335632 464.914001 916.477295 464.914001 C 952.501953 464.914001 985.454834 454.860596 998.859314 439.780518 L 1000.534912 438.104919 L 1001.651978 440.059784 C 1010.588318 455.698425 1028.181763 465.472565 1047.450806 465.472565 C 1061.972412 465.472565 1075.097656 459.887329 1084.592529 450.11319 C 1101.906738 435.87085 1101.06897 404.593567 1100.231079 379.460083 C 1099.951904 371.082245 1099.672607 362.983673 1100.231079 356.560699 L 1100.231079 356.002167 L 1100.510376 355.443695 C 1100.510376 355.443695 1100.789673 355.164398 1100.789673 355.164398 L 1101.348267 354.885132 L 1101.906738 354.885132 C 1101.906738 354.885132 1102.185913 354.885132 1114.194214 354.885132 L 1140.723999 354.885132 C 1142.399536 354.885132 1143.516602 354.885132 1143.516602 354.885132 C 1144.35437 354.885132 1144.912842 354.885132 1145.471436 354.885132 C 1166.136719 354.885132 1184.567993 341.480621 1192.666504 320.536011 C 1199.0896 304.338837 1199.368774 280.88092 1181.216797 264.125244 C 1169.487915 250.162201 1148.822632 248.207336 1130.112061 248.207336 C 1125.923218 248.207336 1122.01355 248.207336 1118.103882 248.486603 C 1112.518677 248.486603 1107.491943 248.7659 1102.744507 248.486603 L 1101.627441 248.486603 C 1067.27832 248.486603 1035.442627 264.963013 1014.497986 294.006226 L 1012.822388 296.240295 L 1011.426086 294.006226 C 997.183777 267.755615 955.01532 249.324432 908.937195 249.324432 C 908.937195 249.324432 908.937195 249.324432 908.937195 249.324432 C 872.63324 249.324432 842.473083 260.774078 825.717407 281.160187 L 824.321106 282.835785 L 822.924805 281.160187 C 810.078796 264.125244 787.737915 261.611908 767.631165 261.611908 C 763.162964 261.611908 758.97406 261.611908 754.785095 261.891205 L 749.758362 261.891205 L 749.758362 230.893188 C 750.316895 216.930145 745.290222 204.084106 735.516113 194.030701 C 724.624878 182.580963 708.427734 175.878723 692.509827 175.878723 C 692.509827 175.878723 692.509827 175.878723 692.509827 175.878723 C 676.312683 175.878723 662.070374 182.580963 652.5755 194.86853 L 651.179199 196.544006 L 649.782898 194.86853 C 636.93689 178.671326 621.298279 175.320251 610.407043 175.320251 L 610.407043 175.320251 C 610.407043 175.320251 610.407043 175.320251 610.407043 175.320251 C 591.138062 175.320251 571.589783 185.932129 560.698608 202.129242 C 550.9245 216.650848 549.248901 233.685791 555.951111 249.882904 L 557.626709 254.071838 L 553.717102 252.117065 C 547.014771 248.7659 533.051758 248.486603 522.998352 248.486603 C 518.530151 248.486603 513.782715 248.486603 509.593811 248.7659 C 503.170807 248.7659 497.585571 249.045166 493.675934 248.7659 L 493.396667 248.7659 C 462.398651 248.7659 435.031097 261.053375 413.80722 283.95282 L 411.852417 286.186859 L 411.014618 283.394257 C 402.916077 257.423004 380.295898 248.207336 361.864655 248.207336 C 346.226044 248.207336 330.587402 254.351105 320.534027 264.963013 C 311.31839 274.457947 306.85022 286.745422 307.129486 300.708466 L 307.129486 302.384064 L 302.102783 302.384064 L 302.102783 300.708466 C 301.823486 264.683807 274.176666 248.207336 248.763901 248.207336 C 248.763901 248.207336 248.763901 248.207336 248.763901 248.207336 C 222.792603 248.207336 194.866486 264.683807 194.866486 300.987762 L 194.866486 303.221802 L 190.119064 302.104797 L 190.119064 300.708466 C 190.119064 285.907593 185.371613 273.061646 175.87674 263.566711 C 166.1026 253.792542 151.86026 248.207336 136.780182 248.207336 C 136.780182 248.207336 136.780182 248.207336 136.780182 248.207336 C 121.700073 248.207336 107.457748 253.792542 97.683609 263.566711 C 88.467995 272.782379 83.441299 285.628387 83.441299 300.708466 L 83.441299 356.560699 C 82.324249 383.648987 92.656914 409.899597 112.484451 430.285645 C 133.987564 452.626526 164.98555 466.031036 195.145752 466.031036 C 213.856262 466.031036 232.008224 460.725098 247.646851 450.950928 L 248.484634 450.392456 L 249.322418 450.950928 C 265.240326 460.725098 284.230042 465.751831 303.778351 465.751831 C 335.614105 465.751831 365.21582 452.626526 385.043335 429.727081 L 386.998138 427.493042 L 387.835938 430.285645 C 394.538239 450.950928 415.482819 465.472565 438.940735 465.472565 C 453.183075 465.472565 466.30835 459.887329 475.523956 450.11319 C 493.117371 435.87085 492.000366 404.593567 491.162567 379.460083 C 490.883331 371.082245 490.604034 362.983673 491.162567 356.560699 L 491.162567 356.002167 L 492.279633 354.885132 L 492.838135 354.885132 C 496.468536 354.605835 502.053772 354.885132 508.476746 354.885132 C 512.665649 354.885132 517.413147 354.885132 521.881287 354.885132 C 531.096924 354.885132 543.663696 354.605835 549.528198 352.651062 L 551.762207 351.813232 L 552.041504 354.047363 C 552.600037 360.749634 552.320801 368.848175 552.041504 377.50531 C 551.203735 402.918091 550.365906 434.753845 568.238647 449.554626 C 578.012817 460.166626 591.417358 465.751831 606.21814 465.751831 C 629.117615 465.751831 656.485168 450.671661 661.511902 422.46637 L 662.34967 417.718872 Z"/>
                </g>
            </g>
        </g>
        <g id="g4">
            <g id="g5">
                <path id="path2" fill="#46c8f5" stroke="none" d="M 360.189087 271.665344 C 352.369781 271.665344 345.946777 274.457947 340.361542 280.043182 C 334.776306 285.628387 331.983704 292.051361 331.983704 299.870636 L 331.983704 355.72287 C 331.983704 363.542236 329.191101 369.96521 323.885162 375.550446 C 318.579163 380.856384 311.876923 383.648987 304.336884 383.648987 C 296.796814 383.648987 290.37381 380.856384 285.067841 375.550446 C 279.761871 370.244476 276.969269 363.542236 276.969269 355.72287 L 276.969269 299.870636 C 276.969269 292.051361 274.176666 285.628387 268.591431 280.043182 C 263.006226 274.457947 256.303955 271.665344 248.763901 271.665344 C 240.94458 271.665344 233.963043 274.457947 228.657089 280.043182 C 223.071854 285.628387 220.279251 292.330658 220.279251 300.149933 L 220.279251 355.72287 C 220.279251 363.542236 217.486633 369.96521 212.180695 375.550446 C 206.874725 380.856384 200.451706 383.648987 192.911667 383.648987 C 185.092346 383.648987 178.669357 380.856384 173.084137 375.550446 C 167.778168 370.244476 164.98555 363.542236 164.98555 355.72287 L 164.98555 299.870636 C 164.98555 292.051361 162.192947 285.349121 156.607727 279.763885 C 151.022491 274.457947 144.599487 271.665344 136.780182 271.665344 C 128.960861 271.665344 122.537849 274.457947 116.952637 279.763885 C 111.367409 285.069824 108.574799 291.772095 108.574799 299.870636 L 108.574799 355.72287 C 108.574799 378.901611 116.67337 398.729156 133.14978 415.205566 C 149.62619 431.681946 169.453735 439.780518 192.632416 439.780518 C 213.856262 439.780518 232.287491 432.519714 248.205368 418.277435 C 264.402527 432.519714 282.83374 439.780518 304.057587 439.780518 C 327.236267 439.780518 347.063843 431.681946 363.540222 415.205566 C 380.016632 398.729156 388.115204 378.901611 388.115204 355.72287 L 388.115204 299.870636 C 388.115204 292.051361 385.322601 285.628387 379.737396 280.043182 C 374.431396 274.457947 368.008423 271.665344 360.189087 271.665344 Z"/>
            </g>
            <g id="g6">
                <path id="path3" fill="#46c8f5" stroke="none" d="M 607.614441 281.997955 C 599.236633 281.997955 592.255066 285.069824 586.390625 290.934326 C 580.526123 296.798828 577.454285 303.780334 577.454285 312.158173 L 577.454285 409.899597 C 577.454285 418.277435 580.526123 425.258972 586.390625 431.123383 C 592.255066 436.987885 599.236633 440.059784 607.614441 440.059784 C 615.99231 440.059784 622.973816 436.987885 628.838318 431.123383 C 634.70282 425.258972 637.774658 418.277435 637.774658 409.899597 L 637.774658 312.158173 C 637.774658 303.780334 634.70282 296.798828 628.838318 290.934326 C 622.973816 284.790558 615.713074 281.997955 607.614441 281.997955 Z"/>
            </g>
            <g id="g7">
                <path id="path4" fill="#46c8f5" stroke="none" d="M 607.614441 199.615906 C 599.236633 199.615906 592.255066 202.687805 586.390625 208.552307 C 580.526123 214.416809 577.454285 221.398346 577.454285 229.776154 C 577.454285 237.874725 580.526123 245.135529 586.390625 250.999939 C 592.255066 256.864441 599.236633 259.93634 607.614441 259.93634 C 615.99231 259.93634 622.973816 256.864441 628.838318 250.999939 C 634.70282 245.135529 637.774658 238.153992 637.774658 229.776154 C 637.774658 221.398346 634.70282 214.416809 628.838318 208.552307 C 622.973816 202.687805 615.713074 199.615906 607.614441 199.615906 Z"/>
            </g>
            <g id="g8">
                <path id="path5" fill="#46c8f5" stroke="none" d="M 781.035645 346.228027 C 789.413452 346.228027 796.39502 343.156128 802.259521 337.291718 C 808.124023 331.427216 811.195801 324.445679 811.195801 316.067841 C 811.195801 307.690002 808.124023 300.708466 802.259521 294.843994 C 796.39502 288.979492 789.134216 285.907593 781.035645 285.907593 L 724.345642 285.907593 L 724.345642 229.776154 C 724.345642 221.398346 721.55304 214.416809 715.688538 208.552307 C 709.824036 202.687805 702.842529 199.615906 694.743958 199.615906 C 686.36615 199.615906 679.105347 202.408508 673.240845 208.27301 C 667.376343 214.137512 664.58374 221.119049 664.58374 229.776154 C 664.58374 229.776154 653.41333 371.920074 690.834351 413.250671 C 707.590027 431.681946 729.651611 439.501221 754.226563 439.501221 L 781.314941 439.501221 C 789.692749 439.501221 796.674255 436.429413 802.538757 430.564911 C 808.403198 424.700409 811.475098 417.718872 811.475098 409.341064 C 811.475098 400.963196 808.403198 393.981689 802.538757 388.117188 C 796.674255 382.252686 789.692749 379.180878 781.314941 379.180878 L 754.226563 379.180878 C 745.848694 379.180878 738.867188 376.388275 733.281982 370.523773 C 727.41748 364.659271 727.976013 345.669556 727.976013 345.669556 L 781.035645 345.669556 Z"/>
            </g>
            <g id="g9">
                <path id="path6" fill="#46c8f5" stroke="none" d="M 1163.344116 281.160187 C 1157.758911 275.574982 1151.335938 273.061646 1143.795898 273.061646 L 1102.744507 273.061646 C 1079.845093 273.061646 1060.017456 281.160187 1043.820435 297.636597 C 1027.623169 313.83374 1019.524658 333.661255 1019.524658 356.560699 L 1019.524658 412.133667 C 1019.524658 419.673767 1022.317261 426.375977 1027.623169 431.681946 C 1033.208374 437.267151 1039.63147 439.780518 1047.171509 439.780518 C 1054.711548 439.780518 1061.413818 436.987885 1066.719727 431.681946 C 1072.304932 426.096741 1074.818359 419.673767 1074.818359 411.85437 L 1074.818359 356.281433 C 1074.818359 348.741333 1077.610962 342.039093 1082.916992 336.733154 C 1088.2229 331.427216 1094.645874 328.634583 1102.46521 328.634583 L 1143.516602 328.634583 C 1151.056641 328.634583 1157.758911 325.84198 1163.064819 320.536011 C 1168.650024 314.950775 1171.163452 308.527771 1171.163452 300.987762 C 1171.442749 293.168396 1168.650024 286.745422 1163.344116 281.160187 Z"/>
            </g>
            <g id="g10">
                <path id="path7" fill="#46c8f5" stroke="none" d="M 534.448059 273.061646 L 493.396667 273.061646 C 470.497253 273.061646 450.669708 281.160187 434.472534 297.636597 C 418.275421 313.83374 410.176819 333.661255 410.176819 356.560699 L 410.176819 412.133667 C 410.176819 419.673767 412.969452 426.375977 418.275421 431.681946 C 423.860657 437.267151 430.28363 439.780518 437.8237 439.780518 C 445.363739 439.780518 452.06601 436.987885 457.371979 431.681946 C 462.957214 426.096741 465.470551 419.673767 465.470551 411.85437 L 465.470551 356.281433 C 465.470551 348.741333 468.263153 342.039093 473.569092 336.733154 C 478.875092 331.427216 485.298096 328.634583 493.117371 328.634583 L 534.168823 328.634583 C 541.708862 328.634583 548.411072 325.84198 553.717102 320.536011 C 559.302307 314.950775 561.815613 308.527771 561.815613 300.987762 C 561.815613 293.447662 559.02301 286.745422 553.717102 281.439484 C 548.690369 275.854248 542.267334 273.061646 534.448059 273.061646 Z"/>
            </g>
            <g id="g11">
                <path id="path8" fill="#46c8f5" stroke="none" d="M 911.450623 273.061646 C 820.411499 273.061646 822.087097 351.813232 822.087097 351.813232 C 822.087097 376.66745 828.789307 395.657288 846.382751 413.250671 C 863.976257 430.844177 886.317139 439.501221 909.775024 439.501221 C 974.842834 441.176819 997.463013 410.737366 994.67041 393.702393 C 991.598511 379.460083 977.635498 376.946747 968.419922 378.622314 C 955.01532 380.577179 944.682678 392.585388 921.783264 392.585388 C 880.452637 390.90979 883.524536 372.199341 883.524536 372.199341 L 975.122131 372.199341 C 995.508179 372.199341 1004.44458 365.497009 1004.44458 346.228027 C 1004.44458 321.932312 982.662231 273.061646 911.450623 273.061646 Z M 884.641541 334.77832 C 884.641541 315.509277 914.801697 315.509277 914.801697 315.509277 C 914.801697 315.509277 944.682678 315.509277 944.682678 334.77832 L 884.641541 334.77832 Z"/>
            </g>
        </g>
    </g>
</svg>
