<?xml version="1.0" encoding="UTF-8"?>
<!-- Generated by Pixelmator Pro 3.2.1 -->
<svg width="1200" height="800" viewBox="0 0 1200 800" xmlns="http://www.w3.org/2000/svg" xmlns:xlink="http://www.w3.org/1999/xlink">
    <g id="Group-copy">
        <path id="Path" fill="#bf1920" stroke="none" d="M 321.908325 335.314209 C 311.098511 329.260742 300.288696 325.369171 289.046509 323.423401 C 278.020477 321.693878 267.210693 321.693878 256.617065 323.639618 C 246.023438 325.585388 236.294617 329.476868 227.430573 334.881775 C 218.350342 340.502899 210.783478 347.421204 204.297592 356.069061 C 197.811691 364.500702 193.271561 374.44574 190.028625 385.687897 C 187.001892 396.930115 186.1371 409.253326 187.650467 422.441254 C 188.731445 432.386292 191.542007 441.68277 196.082123 450.330627 C 200.622238 458.978455 206.459549 466.761475 213.161621 473.247375 C 220.079895 479.949463 227.646759 485.35437 236.078415 489.678284 C 244.510071 494.002228 253.374115 496.596588 262.454346 497.461365 C 273.26416 498.758545 282.776794 498.542358 291.640839 496.596588 C 300.288696 494.866974 308.287964 492.056458 315.638641 488.381104 C 322.989288 484.705811 329.475189 480.16568 335.096283 474.976959 C 340.933594 469.788269 346.122284 464.167175 351.094788 458.546051 C 353.256775 461.356567 354.121582 463.950958 353.905365 466.545319 C 353.689148 469.139648 352.824371 471.734039 351.311005 473.895996 C 349.797638 476.27417 348.068054 478.21991 345.906097 480.16568 C 343.744141 482.11142 341.79837 483.841034 340.50119 485.138153 C 328.394196 495.947968 314.341431 503.947266 298.559143 509.568359 C 282.776794 515.189453 266.345886 518.216187 249.482574 518.864746 C 232.619293 519.513428 216.18837 517.567627 199.973663 513.459839 C 183.758942 509.135956 169.273788 502.433838 156.734406 493.137451 C 143.978836 483.841034 133.817612 472.166382 126.250748 458.113617 C 118.683876 444.060883 114.792343 427.630005 115.008545 408.604706 C 115.224731 393.038635 118.251488 379.201996 123.872581 366.878876 C 129.493683 354.555664 137.276749 343.962067 146.789383 335.314209 C 156.518219 326.450134 167.54422 319.315704 180.083603 313.69458 C 192.622986 308.073456 205.810959 304.398163 219.647507 302.236206 C 233.48407 300.074249 247.320618 299.641815 261.589569 300.722809 C 275.858521 301.803802 289.478882 304.830536 302.234467 309.370667 C 314.990051 313.910797 326.664612 320.180481 337.25827 328.179749 C 347.851868 335.962769 356.499695 345.475464 363.201813 356.717621 C 349.365234 366.230225 335.096283 374.878082 320.178741 382.661163 C 305.477417 390.444244 290.992249 399.092102 277.155701 408.604706 C 279.966248 402.767456 282.992981 396.713928 286.668335 390.444244 C 290.343658 384.174561 294.019012 377.904877 297.910522 371.635132 C 301.802063 365.365479 305.693604 359.095795 309.801331 352.826111 C 314.125244 347.204987 318.016785 341.15152 321.908325 335.314209 Z"/>
        <path id="path1" fill="#bf1920" stroke="none" d="M 551.076294 515.621826 L 495.297668 515.621826 L 488.379395 486.435333 C 481.677338 494.650848 474.759033 500.704315 467.408386 504.595825 C 460.057709 508.487396 453.571838 511.51413 447.302124 513.027527 C 440.167633 514.973267 433.033173 515.838013 426.114868 515.621826 C 419.412811 515.621826 413.359314 514.973267 408.38681 513.676086 C 403.19809 512.378906 398.874176 510.649353 394.982635 508.703583 C 391.307312 506.541626 388.064362 504.163452 385.470032 501.569092 C 382.875641 498.974762 380.713684 496.164185 378.984131 493.137451 C 375.09259 486.435333 372.49826 478.868469 371.417267 470.436829 C 371.417267 464.599518 372.282043 459.194611 373.79541 454.438324 C 375.308777 449.681976 377.470734 445.57428 380.281281 441.898926 C 383.091858 438.223602 386.118591 435.196869 389.361511 432.602509 C 392.820679 430.008118 396.279816 427.630005 399.738953 425.900391 C 408.170624 421.792694 417.683228 418.765961 428.493042 417.468781 C 436.059906 417.468781 442.545807 418.333527 447.950714 419.846924 C 453.355621 421.36026 457.895752 423.089874 461.571075 424.819427 C 465.678802 426.981384 469.354126 429.143341 472.38089 431.737732 L 461.138702 388.282288 L 392.820679 388.282288 C 409.251617 380.93161 422.439545 375.526703 432.816986 371.851349 C 443.194397 368.176056 451.193665 365.797882 457.463318 364.284485 C 464.381622 362.554932 469.78653 361.906311 473.461884 362.338745 C 482.109711 362.122528 489.244202 363.635925 494.649109 366.662659 C 500.270203 369.905609 504.594116 373.364746 508.053253 377.040039 C 511.728607 381.363983 514.971558 386.552734 517.133484 392.173798 L 551.076294 515.621826 Z M 452.923218 493.786011 C 460.706268 493.786011 467.192169 491.191681 472.597076 485.786774 C 478.001984 480.381866 480.596344 473.895996 480.596344 466.329132 C 480.596344 458.546051 478.001984 452.06015 472.597076 446.655243 C 467.192169 441.250336 460.706268 438.655975 452.923218 438.655975 C 445.356354 438.655975 438.870483 441.250336 433.465576 446.655243 C 428.060669 452.06015 425.466309 458.546051 425.466309 466.329132 C 425.466309 473.895996 428.060669 480.381866 433.465576 485.786774 C 438.870483 491.191681 445.356354 493.786011 452.923218 493.786011 Z"/>
        <path id="path2" fill="#bf1920" stroke="none" d="M 711.710083 390.228027 C 700.684082 383.742157 689.225708 380.499207 677.3349 380.715424 C 665.660339 380.93161 655.06665 383.958344 645.770264 389.795685 C 636.473816 395.632935 629.123108 403.632233 623.502075 414.22583 C 618.097168 424.819427 616.151367 436.926422 617.88092 450.979187 C 618.745728 457.897491 620.691467 464.383362 623.934387 470.436829 C 627.177368 476.490295 631.068909 481.895203 635.825195 486.435333 C 640.581543 490.975494 645.98645 494.866974 652.039917 497.893799 C 658.093445 500.920532 664.146912 502.866272 670.416626 503.298676 C 677.767273 504.163452 684.46936 503.947266 690.522888 502.650055 C 696.576355 501.352875 702.197449 499.407104 707.169983 496.812805 C 712.142517 494.218414 716.682556 491.191681 720.790344 487.516327 C 724.898071 483.841034 728.573364 480.16568 732.032532 476.27417 C 733.545898 478.21991 734.194458 479.949463 733.978271 481.679077 C 733.762146 483.4086 733.329712 485.138153 732.248718 486.867767 C 731.167725 488.597321 729.870544 490.110718 728.357239 491.407898 C 726.843811 492.705017 725.546631 493.786011 724.465637 494.650848 C 715.81781 502.217712 705.872742 507.838745 694.414368 511.730316 C 682.955994 515.621826 671.065247 517.783813 658.742004 518.216187 C 646.418823 518.64856 634.095642 517.35144 622.204895 514.324646 C 610.314087 511.297913 599.504272 506.541626 589.991638 500.055756 C 580.479004 493.569855 572.912109 485.570587 567.074829 475.625549 C 561.237488 465.680481 558.427002 454.222137 558.643188 441.034149 C 558.859375 426.549042 562.534729 414.009613 569.885376 403.632233 C 577.236084 393.254761 586.532471 385.039337 597.990845 378.769653 C 609.233093 372.499969 621.988647 368.392212 636.041443 366.446442 C 650.094177 364.500702 663.714478 364.500702 677.118713 366.662659 C 690.522888 368.824615 702.846008 373.148529 714.304504 379.418213 C 725.546631 385.687897 734.410706 394.119598 740.680359 404.280792 C 730.951538 410.98288 721.006531 417.252563 710.629089 422.657471 C 700.251709 428.278564 690.306702 434.332031 680.577881 440.817932 C 684.253174 432.602509 689.225708 424.170868 695.062988 415.090607 C 700.900269 406.875153 706.521423 398.443512 711.710083 390.228027 Z"/>
        <path id="path3" fill="#bf1920" stroke="none" d="M 866.722778 362.771149 C 872.776245 362.771149 877.532593 364.500702 880.775574 367.743652 C 884.018494 371.202789 886.396606 374.878082 888.126221 378.98587 C 890.07196 383.742157 891.369141 389.363251 891.801514 395.416718 L 889.855774 515.40564 L 834.509521 515.40564 L 834.509521 407.307526 C 834.725708 402.335022 834.077148 398.443512 832.779968 396.065369 C 831.482788 393.470978 829.753235 391.741425 827.807495 390.660461 C 825.429321 389.579468 823.051147 389.147064 820.240601 389.147064 C 816.781494 389.147064 814.40332 389.795685 812.889893 391.309021 C 811.376587 392.822418 810.079346 394.335754 809.2146 396.065369 C 808.349854 398.227325 807.917419 400.389282 807.917419 402.767456 L 807.917419 515.621826 L 752.787354 515.621826 L 752.571167 515.621826 L 752.571167 502.866272 L 752.571167 492.488892 L 753.435913 307.857269 L 717.547424 307.857269 C 728.573364 302.019989 738.302185 297.479858 746.301514 294.236938 C 754.300781 290.993988 761.002808 288.615814 766.407715 286.886292 C 772.677429 284.940491 777.86615 283.859558 782.190063 283.643311 C 784.135803 283.210876 786.081604 282.99469 788.24353 282.99469 C 789.973145 283.210876 791.702698 283.643311 793.648438 284.29187 C 795.594177 284.940491 797.323792 286.021484 799.053345 287.751038 L 803.809692 377.256256 C 809.430786 374.44574 815.916687 372.283783 823.267334 370.338013 C 830.617981 368.392212 837.320129 366.878876 843.805969 366.014099 C 851.156677 364.716888 858.939758 363.635925 866.722778 362.771149 Z"/>
        <path id="path4" fill="#bf1920" stroke="none" d="M 1013.52002 502.866272 C 1020.870667 503.731049 1027.572754 503.514832 1033.626221 502.217712 C 1039.67981 500.920532 1045.300781 498.974762 1050.273438 496.380371 C 1055.24585 493.786011 1059.786011 490.54306 1063.893677 486.867767 C 1068.001465 483.192413 1071.676758 479.300903 1075.135986 475.409332 C 1076.649292 477.355133 1077.297852 479.084686 1077.081665 481.030426 C 1077.081665 482.976196 1076.433105 484.705811 1075.352173 486.219147 C 1074.271118 487.732544 1072.973999 489.245941 1071.676758 490.54306 C 1070.16333 491.84024 1068.866211 493.137451 1068.001465 494.218414 C 1059.569824 501.569092 1049.624756 507.190186 1038.166382 511.297913 C 1026.708008 515.189453 1014.601013 517.567627 1002.277771 518 C 989.954651 518.432434 977.631409 517.135254 965.524414 514.108521 C 953.417419 511.081696 942.607605 506.325409 933.311218 499.839539 C 923.798584 493.353638 916.23175 485.138153 910.394409 475.409332 C 904.557129 465.680481 901.746582 454.222137 901.962769 440.817932 C 902.178955 430.008118 904.340942 420.063141 908.664856 411.631439 C 912.772583 402.983582 918.609924 395.632935 925.744324 389.363251 C 932.878784 383.093567 941.094299 378.121033 950.390686 374.44574 C 959.687195 370.770386 969.416016 367.959839 979.577209 366.446442 C 989.738464 364.933105 1000.115845 364.500702 1010.493286 365.365479 C 1020.870667 366.230225 1030.815674 368.176056 1040.112183 371.419006 C 1049.408569 374.661957 1058.056396 378.98587 1065.623291 384.390778 C 1073.190186 389.795685 1079.459839 396.497711 1084 404.280792 C 1080.324585 406.875153 1074.703491 411.631439 1067.352905 418.765961 C 1060.002197 425.900391 1051.786743 433.899689 1042.922729 442.763763 C 1034.058716 451.627747 1024.978394 460.924225 1015.682007 470.220642 C 1006.385498 479.51712 998.170105 487.732544 990.819397 494.650848 C 997.305298 499.190918 1005.088379 501.785278 1013.52002 502.866272 Z M 1054.813477 389.147064 C 1043.787476 382.661163 1032.329102 379.63443 1020.438232 379.850647 C 1008.763672 380.066833 998.170105 383.309784 988.873657 388.930847 C 979.577209 394.768158 972.226501 402.767456 966.821655 413.361053 C 961.416748 423.954651 959.470947 436.061646 960.768188 450.11441 C 961.849121 458.329834 964.443481 465.896698 968.551147 472.815002 C 972.658936 479.733246 977.847656 485.570587 983.901123 490.54306 C 987.360291 485.138153 991.467957 479.084686 996.008118 472.598816 C 1000.548218 466.112915 1005.088379 459.410828 1010.060852 452.70871 C 1014.8172 445.790497 1019.573486 439.088379 1024.329834 432.602509 C 1029.08606 425.900391 1033.410034 419.846924 1037.301636 414.22583 C 1041.193115 408.604706 1044.86853 403.416016 1047.895264 399.092102 C 1051.35437 394.551941 1053.516357 391.309021 1054.813477 389.147064 Z"/>
    </g>
</svg>
