<?xml version="1.0" encoding="UTF-8"?>
<!-- Generated by Pixelmator Pro 3.2.2 -->
<svg width="1280" height="640" viewBox="0 0 1280 640" xmlns="http://www.w3.org/2000/svg" xmlns:xlink="http://www.w3.org/1999/xlink">
    <g id="Group-copy">
        <path id="Path" fill="#bf1920" stroke="none" d="M 361.908325 255.314209 C 351.098511 249.260742 340.288696 245.369171 329.046509 243.423401 C 318.020477 241.693878 307.210693 241.693878 296.617065 243.639618 C 286.023438 245.585388 276.294617 249.476868 267.430573 254.881775 C 258.350342 260.502899 250.783478 267.421204 244.297592 276.069061 C 237.811691 284.500702 233.271561 294.44574 230.028625 305.687897 C 227.001892 316.930115 226.1371 329.253326 227.650467 342.441254 C 228.731445 352.386292 231.542007 361.68277 236.082123 370.330627 C 240.622238 378.978455 246.459549 386.761475 253.161621 393.247375 C 260.079895 399.949463 267.646759 405.35437 276.0784 409.678284 C 284.510071 414.002228 293.374115 416.596588 302.454346 417.461365 C 313.26416 418.758545 322.776794 418.542358 331.640839 416.596588 C 340.288696 414.866974 348.287964 412.056458 355.638641 408.381104 C 362.989288 404.705811 369.475189 400.16568 375.096283 394.976959 C 380.933594 389.788269 386.122284 384.167175 391.094788 378.546051 C 393.256775 381.356567 394.121582 383.950958 393.905365 386.545319 C 393.689148 389.139648 392.824371 391.734039 391.311005 393.895996 C 389.797638 396.27417 388.068054 398.21991 385.906097 400.16568 C 383.744141 402.11142 381.79837 403.841034 380.50119 405.138153 C 368.394196 415.947968 354.341431 423.947266 338.559143 429.568359 C 322.776794 435.189453 306.345886 438.216187 289.482574 438.864746 C 272.619293 439.513428 256.188354 437.567627 239.973663 433.459839 C 223.758942 429.135956 209.273788 422.433838 196.734406 413.137451 C 183.978836 403.841034 173.817612 392.166382 166.250748 378.113617 C 158.683868 364.060883 154.792343 347.630005 155.008545 328.604706 C 155.224731 313.038635 158.25148 299.201996 163.872574 286.878876 C 169.493683 274.555664 177.276749 263.962067 186.789383 255.314209 C 196.518219 246.450134 207.54422 239.315704 220.083603 233.69458 C 232.622986 228.073456 245.810959 224.398163 259.647491 222.236206 C 273.48407 220.074249 287.320618 219.641815 301.589569 220.722809 C 315.858521 221.803802 329.478882 224.830536 342.234467 229.370667 C 354.990051 233.910797 366.664612 240.180481 377.25827 248.179749 C 387.851868 255.962769 396.499695 265.475464 403.201813 276.717621 C 389.365234 286.230225 375.096283 294.878082 360.178741 302.661163 C 345.477417 310.444244 330.992249 319.092102 317.155701 328.604706 C 319.966248 322.767456 322.992981 316.713928 326.668335 310.444244 C 330.343658 304.174561 334.019012 297.904877 337.910522 291.635132 C 341.802063 285.365479 345.693604 279.095795 349.801331 272.826111 C 354.125244 267.204987 358.016785 261.15152 361.908325 255.314209 Z"/>
        <path id="path1" fill="#bf1920" stroke="none" d="M 591.076294 435.621826 L 535.297668 435.621826 L 528.379395 406.435333 C 521.677368 414.650848 514.759033 420.704315 507.408386 424.595825 C 500.057709 428.487396 493.571838 431.51413 487.302124 433.027527 C 480.167633 434.973267 473.033173 435.838013 466.114868 435.621826 C 459.412811 435.621826 453.359314 434.973267 448.38681 433.676086 C 443.19809 432.378906 438.874176 430.649353 434.982635 428.703583 C 431.307312 426.541626 428.064362 424.163452 425.470032 421.569092 C 422.875641 418.974762 420.713684 416.164185 418.984131 413.137451 C 415.09259 406.435333 412.49826 398.868469 411.417267 390.436829 C 411.417267 384.599518 412.282043 379.194611 413.79541 374.438324 C 415.308777 369.681976 417.470734 365.57428 420.281281 361.898926 C 423.091858 358.223602 426.118591 355.196869 429.361511 352.602509 C 432.820679 350.008118 436.279816 347.630005 439.738953 345.900391 C 448.170624 341.792694 457.683228 338.765961 468.493042 337.468781 C 476.059906 337.468781 482.545807 338.333527 487.950714 339.846924 C 493.355621 341.36026 497.895752 343.089874 501.571075 344.819427 C 505.678802 346.981384 509.354126 349.143341 512.38092 351.737732 L 501.138702 308.282288 L 432.820679 308.282288 C 449.251617 300.93161 462.439545 295.526703 472.816986 291.851349 C 483.194397 288.176056 491.193665 285.797882 497.463318 284.284485 C 504.381622 282.554932 509.78653 281.906311 513.461914 282.338745 C 522.109741 282.122528 529.244202 283.635925 534.649109 286.662659 C 540.270203 289.905609 544.594116 293.364746 548.053284 297.040039 C 551.728638 301.363983 554.971558 306.552734 557.133484 312.173798 L 591.076294 435.621826 Z M 492.923218 413.786011 C 500.706268 413.786011 507.192169 411.191681 512.597107 405.786774 C 518.002014 400.381866 520.596375 393.895996 520.596375 386.329132 C 520.596375 378.546051 518.002014 372.06015 512.597107 366.655243 C 507.192169 361.250336 500.706268 358.655975 492.923218 358.655975 C 485.356354 358.655975 478.870483 361.250336 473.465576 366.655243 C 468.060669 372.06015 465.466309 378.546051 465.466309 386.329132 C 465.466309 393.895996 468.060669 400.381866 473.465576 405.786774 C 478.870483 411.191681 485.356354 413.786011 492.923218 413.786011 Z"/>
        <path id="path2" fill="#bf1920" stroke="none" d="M 751.710083 310.228027 C 740.684082 303.742157 729.225708 300.499207 717.3349 300.715424 C 705.660339 300.93161 695.06665 303.958344 685.770264 309.795685 C 676.473816 315.632935 669.123108 323.632233 663.502075 334.22583 C 658.097168 344.819427 656.151367 356.926422 657.88092 370.979187 C 658.745728 377.897491 660.691467 384.383362 663.934387 390.436829 C 667.177368 396.490295 671.068909 401.895203 675.825195 406.435333 C 680.581543 410.975494 685.98645 414.866974 692.039917 417.893799 C 698.093445 420.920532 704.146912 422.866272 710.416626 423.298676 C 717.767273 424.163452 724.46936 423.947266 730.522888 422.650055 C 736.576355 421.352875 742.197449 419.407104 747.169983 416.812805 C 752.142517 414.218414 756.682556 411.191681 760.790344 407.516327 C 764.898071 403.841034 768.573364 400.16568 772.032532 396.27417 C 773.545898 398.21991 774.194458 399.949463 773.978271 401.679077 C 773.762146 403.4086 773.329712 405.138153 772.248718 406.867767 C 771.167725 408.597321 769.870544 410.110718 768.357239 411.407898 C 766.843811 412.705017 765.546631 413.786011 764.465637 414.650848 C 755.81781 422.217712 745.872742 427.838745 734.414368 431.730316 C 722.955994 435.621826 711.065247 437.783813 698.742004 438.216187 C 686.418823 438.64856 674.095642 437.35144 662.204895 434.324646 C 650.314087 431.297913 639.504272 426.541626 629.991638 420.055756 C 620.479004 413.569855 612.912109 405.570587 607.074829 395.625549 C 601.237488 385.680481 598.427002 374.222137 598.643188 361.034149 C 598.859375 346.549042 602.534729 334.009613 609.885376 323.632233 C 617.236084 313.254761 626.532471 305.039337 637.990845 298.769653 C 649.233093 292.499969 661.988647 288.392212 676.041443 286.446442 C 690.094177 284.500702 703.714478 284.500702 717.118713 286.662659 C 730.522888 288.824615 742.846008 293.148529 754.304504 299.418213 C 765.546631 305.687897 774.410706 314.119598 780.680359 324.280792 C 770.951538 330.98288 761.006531 337.252563 750.629089 342.657471 C 740.251709 348.278564 730.306702 354.332031 720.577881 360.817932 C 724.253174 352.602509 729.225708 344.170868 735.062988 335.090607 C 740.900269 326.875153 746.521423 318.443512 751.710083 310.228027 Z"/>
        <path id="path3" fill="#bf1920" stroke="none" d="M 906.722778 282.771149 C 912.776245 282.771149 917.532593 284.500702 920.775574 287.743652 C 924.018494 291.202789 926.396606 294.878082 928.126221 298.98587 C 930.07196 303.742157 931.369141 309.363251 931.801514 315.416718 L 929.855774 435.40564 L 874.509521 435.40564 L 874.509521 327.307526 C 874.725708 322.335022 874.077148 318.443512 872.779968 316.065369 C 871.482788 313.470978 869.753235 311.741425 867.807495 310.660461 C 865.429321 309.579468 863.051147 309.147064 860.240601 309.147064 C 856.781494 309.147064 854.40332 309.795685 852.889893 311.309021 C 851.376587 312.822418 850.079346 314.335754 849.2146 316.065369 C 848.349854 318.227325 847.917419 320.389282 847.917419 322.767456 L 847.917419 435.621826 L 792.787354 435.621826 L 792.571167 435.621826 L 792.571167 422.866272 L 792.571167 412.488892 L 793.435913 227.857269 L 757.547424 227.857269 C 768.573364 222.019989 778.302185 217.479858 786.301514 214.236938 C 794.300781 210.993988 801.002808 208.615814 806.407715 206.886292 C 812.677429 204.940491 817.86615 203.859558 822.190063 203.643311 C 824.135803 203.210876 826.081604 202.99469 828.24353 202.99469 C 829.973145 203.210876 831.702698 203.643311 833.648438 204.29187 C 835.594177 204.940491 837.323792 206.021484 839.053345 207.751038 L 843.809692 297.256256 C 849.430786 294.44574 855.916687 292.283783 863.267334 290.338013 C 870.617981 288.392212 877.320129 286.878876 883.805969 286.014099 C 891.156677 284.716888 898.939758 283.635925 906.722778 282.771149 Z"/>
        <path id="path4" fill="#bf1920" stroke="none" d="M 1053.52002 422.866272 C 1060.870728 423.731049 1067.572754 423.514832 1073.626221 422.217712 C 1079.67981 420.920532 1085.300781 418.974762 1090.273438 416.380371 C 1095.24585 413.786011 1099.786011 410.54306 1103.893677 406.867767 C 1108.001465 403.192413 1111.676758 399.300903 1115.135986 395.409332 C 1116.649292 397.355133 1117.297852 399.084686 1117.081665 401.030426 C 1117.081665 402.976196 1116.433105 404.705811 1115.352173 406.219147 C 1114.271118 407.732544 1112.973999 409.245941 1111.676758 410.54306 C 1110.16333 411.84024 1108.866211 413.137451 1108.001465 414.218414 C 1099.569824 421.569092 1089.624756 427.190186 1078.166382 431.297913 C 1066.708008 435.189453 1054.601074 437.567627 1042.277832 438 C 1029.954712 438.432434 1017.631409 437.135254 1005.524414 434.108521 C 993.417419 431.081696 982.607605 426.325409 973.311218 419.839539 C 963.798584 413.353638 956.23175 405.138153 950.394409 395.409332 C 944.557129 385.680481 941.746582 374.222137 941.962769 360.817932 C 942.178955 350.008118 944.340942 340.063141 948.664856 331.631439 C 952.772583 322.983582 958.609924 315.632935 965.744324 309.363251 C 972.878784 303.093567 981.094299 298.121033 990.390686 294.44574 C 999.687195 290.770386 1009.416016 287.959839 1019.577209 286.446442 C 1029.738525 284.933105 1040.115845 284.500702 1050.493286 285.365479 C 1060.870728 286.230225 1070.815674 288.176056 1080.112183 291.419006 C 1089.408569 294.661957 1098.056396 298.98587 1105.623291 304.390778 C 1113.190186 309.795685 1119.459839 316.497711 1124 324.280792 C 1120.324585 326.875153 1114.703491 331.631439 1107.352905 338.765961 C 1100.002197 345.900391 1091.786743 353.899689 1082.922729 362.763763 C 1074.058716 371.627747 1064.978394 380.924225 1055.682007 390.220642 C 1046.385498 399.51712 1038.170166 407.732544 1030.819458 414.650848 C 1037.305298 419.190918 1045.088379 421.785278 1053.52002 422.866272 Z M 1094.813477 309.147064 C 1083.787476 302.661163 1072.329102 299.63443 1060.438232 299.850647 C 1048.763672 300.066833 1038.170166 303.309784 1028.873657 308.930847 C 1019.577209 314.768158 1012.226501 322.767456 1006.821655 333.361053 C 1001.416748 343.954651 999.470947 356.061646 1000.768188 370.11441 C 1001.849121 378.329834 1004.443481 385.896698 1008.551147 392.815002 C 1012.658936 399.733246 1017.847656 405.570587 1023.901123 410.54306 C 1027.360352 405.138153 1031.468018 399.084686 1036.008179 392.598816 C 1040.548218 386.112915 1045.088379 379.410828 1050.060913 372.70871 C 1054.817261 365.790497 1059.573486 359.088379 1064.329834 352.602509 C 1069.08606 345.900391 1073.410034 339.846924 1077.301636 334.22583 C 1081.193115 328.604706 1084.86853 323.416016 1087.895264 319.092102 C 1091.35437 314.551941 1093.516357 311.309021 1094.813477 309.147064 Z"/>
    </g>
</svg>
