<?xml version="1.0" encoding="UTF-8"?>
<!-- Generated by Pixelmator Pro 2.4.1 -->
<svg width="1280" height="640" viewBox="0 0 1280 640" xmlns="http://www.w3.org/2000/svg" xmlns:xlink="http://www.w3.org/1999/xlink">
    <linearGradient id="linearGradient1" x1="642.141628" y1="474.680006" x2="642.141628" y2="156.680006" gradientUnits="userSpaceOnUse">
        <stop offset="0.000463" stop-color="#8721ff" stop-opacity="1"/>
        <stop offset="0.998778" stop-color="#00b6ff" stop-opacity="1"/>
    </linearGradient>
    <path id="Danky-cooper-copy" fill="url(#linearGradient1)" fill-rule="evenodd" stroke="none" d="M 966.419922 494 C 952.131165 494 941.798157 488.818695 935.419922 478.455078 C 930.491211 470.483246 929.518555 460.317505 932.503906 447.960938 C 934.975708 437.730225 939.44397 429.127747 945.908203 422.152344 C 952.372375 415.176849 959.080078 411.689453 966.03125 411.689453 C 972.982483 411.689453 977.812317 414.878204 980.519531 421.255859 C 981.840759 424.178864 982.565308 426.770569 982.695313 429.029297 C 982.825439 431.288025 982.635132 436.270294 982.125 443.976563 C 981.774597 449.822662 983.482788 452.744141 987.248047 452.744141 C 990.240784 452.744141 993.18396 450.950684 996.078125 447.363281 C 998.972229 443.775818 1001.061707 439.326355 1002.345703 434.011719 C 1003.854492 427.766968 1003.864441 417.335999 1002.375 402.720703 L 992.175781 300.480469 C 991.075012 289.851135 989.928528 283.208038 988.736328 280.550781 C 987.544006 277.893341 984.274048 274.638367 978.929688 270.785156 C 977.255432 269.72229 976.096619 267.628235 975.451172 264.505859 C 974.805603 261.383514 974.836731 258.362457 975.542969 255.439453 C 978.399841 243.61438 988.884338 235.575989 1007 231.324219 C 1019.066406 228.534058 1032.388428 227.138672 1046.966797 227.138672 C 1057.200439 227.138672 1064.908813 228.600342 1070.091797 231.523438 C 1077.077637 235.376648 1079.448242 241.953247 1077.201172 251.253906 C 1076.39856 254.575653 1074.341187 258.494293 1071.029297 263.011719 C 1067.878052 267.26358 1065.900269 271.051392 1065.097656 274.373047 C 1064.327271 277.56189 1064.03186 280.883331 1064.210938 284.337891 C 1064.390015 287.79245 1065.12561 293.637299 1066.417969 301.875 C 1067.8396 311.175659 1069.950195 315.826172 1072.75 315.826172 C 1075.743042 315.826172 1079.820435 311.741669 1084.980469 303.570313 C 1090.140625 295.399048 1093.63501 287.52655 1095.464844 279.953125 C 1096.941284 273.841309 1096.939697 268.85907 1095.457031 265.005859 C 1093.232788 259.026855 1092.632935 253.909973 1093.660156 249.658203 C 1095.297241 242.88208 1099.887451 237.468506 1107.431641 233.416016 C 1114.975708 229.363525 1124.251709 227.337891 1135.257813 227.337891 C 1155.725464 227.337891 1164.321289 234.113586 1161.046875 247.666016 C 1159.859131 252.582062 1157.866333 256.533997 1155.068359 259.523438 C 1152.270386 262.513 1147.799316 265.336884 1141.654297 267.994141 C 1136.442261 270.385773 1131.811279 274.372772 1127.759766 279.953125 C 1121.361084 288.855225 1112.938599 303.536652 1102.492188 323.998047 L 1065.896484 396.34375 C 1056.832153 414.280792 1048.539185 428.929047 1041.015625 440.289063 C 1033.492188 451.64917 1025.727051 461.315277 1017.71875 469.287109 C 1001.187561 485.762573 984.087585 494 966.419922 494 Z M 399.90625 429.826172 C 387.258942 429.826172 377.923004 426.104553 371.900391 418.664063 C 367.971222 413.747925 365.465759 407.337219 364.382813 399.431641 C 363.299896 391.526154 363.802124 383.255493 365.888672 374.619141 C 369.227112 360.800995 376.234283 348.578552 386.912109 337.949219 C 403.604095 321.208038 424.564728 312.769623 449.794922 312.636719 C 455.394592 312.636719 459.104523 311.873657 460.921875 310.345703 C 462.739227 308.817749 464.321716 305.263855 465.669922 299.683594 C 469.07251 285.599701 470.474335 275.40094 469.875 269.089844 C 469.275848 262.778625 466.561554 259.623047 461.734375 259.623047 C 458.837982 259.623047 455.967743 260.819305 453.121094 263.210938 C 450.274506 265.602478 446.390686 269.987671 441.470703 276.365234 C 428.801453 293.239319 417.784729 301.675781 408.419922 301.675781 C 403.689117 301.675781 400.292419 299.749695 398.230469 295.896484 C 396.168457 292.043365 395.891693 286.994751 397.400391 280.75 C 398.941193 274.372437 402.341736 267.994751 407.599609 261.617188 C 412.8573 255.239532 419.249756 249.658142 426.777344 244.875 C 447.333588 232.119781 467.121399 225.742188 486.140625 225.742188 C 502.939392 225.742188 515.76593 231.589081 524.623047 243.28125 C 529.293213 249.526001 531.888428 256.668518 532.408203 264.707031 C 532.92804 272.745483 531.486572 283.80484 528.083984 297.888672 L 520.621094 327.585938 C 515.645569 348.180237 513.481506 361.532623 514.128906 367.644531 C 514.48468 370.567627 515.047485 372.427429 515.820313 373.224609 C 516.593262 374.02182 518.444092 374.751648 521.373047 375.416016 C 524.302124 376.080231 525.17395 378.871033 523.986328 383.787109 C 522.445557 390.164673 518.981873 396.80777 513.595703 403.716797 C 508.209564 410.625916 502.008942 416.40625 494.996094 421.056641 C 486.342773 426.902832 478.059296 429.826172 470.142578 429.826172 C 460.005402 429.826172 453.146362 425.042908 449.568359 415.476563 C 448.375519 412.021912 446.911621 410.294922 445.173828 410.294922 C 443.243011 410.294922 440.283386 411.955627 436.294922 415.277344 C 424.29718 424.976532 412.16745 429.826172 399.90625 429.826172 Z M 561.955078 428.628906 C 535.115723 428.628906 523.540955 420.990631 527.232422 405.710938 C 528.002869 402.522095 528.99884 400.096313 530.220703 398.435547 C 531.442627 396.77478 533.969177 394.417328 537.796875 391.361328 C 540.917053 388.836792 543.207703 385.946777 544.669922 382.691406 C 546.132324 379.436218 548.692688 371.431091 552.353516 358.675781 C 556.688904 343.529022 560.862427 327.651123 564.875 311.042969 C 567.089966 301.875061 568.03656 295.862396 567.712891 293.005859 C 567.389343 290.1492 565.31073 286.661896 561.478516 282.542969 C 558.193726 278.955597 557.177734 274.572418 558.429688 269.390625 C 559.713684 264.075928 562.454712 259.72403 566.652344 256.335938 C 570.849976 252.947906 578.83606 248.662262 590.611328 243.480469 C 600.97113 238.963074 610.825073 235.143921 620.171875 232.021484 C 629.518738 228.899109 635.784729 227.337891 638.970703 227.337891 C 641.867004 227.337891 643.951599 228.799561 645.224609 231.722656 C 646.497559 234.645752 646.652527 238.100006 645.689453 242.085938 C 645.593201 242.484497 645.144531 244.145355 644.341797 247.068359 C 643.988403 248.131287 643.71405 249.060211 643.521484 249.857422 C 641.980713 256.234985 643.142151 259.423828 647.003906 259.423828 C 649.320984 259.423828 652.392334 256.900635 656.21875 251.851563 C 668.502136 235.376221 682.561157 227.138672 698.394531 227.138672 C 710.559204 227.138672 719.925598 231.523773 726.496094 240.292969 C 731.069641 246.537689 733.544678 253.877441 733.919922 262.314453 C 734.295227 270.751526 732.798767 283.141968 729.429688 299.484375 L 714.507813 369.636719 C 713.41687 374.951324 713.072693 378.871948 713.476563 381.396484 C 713.88031 383.920929 715.676819 388.770569 718.867188 395.945313 C 719.801697 398.071198 719.803955 401.060852 718.873047 404.914063 C 716.754517 413.683197 711.465515 419.793488 703.003906 423.248047 C 694.542236 426.702698 680.510742 428.429688 660.912109 428.429688 C 647.588928 428.429688 638.562744 426.835205 633.830078 423.646484 C 628.93634 420.324738 627.387878 414.944489 629.185547 407.503906 C 629.827454 404.846619 630.590393 402.887207 631.474609 401.625 C 632.358765 400.362793 635.035645 397.273499 639.505859 392.357422 C 644.715759 386.776978 651.141357 368.174805 658.78125 336.552734 C 663.211121 318.217102 664.939514 304.665649 663.96875 295.896484 C 663.159851 288.854523 659.37738 285.333984 652.619141 285.333984 C 646.150757 285.333984 641.018616 288.19104 637.224609 293.904297 C 633.430664 299.617584 629.721069 309.980225 626.09375 324.994141 L 616.560547 364.455078 C 614.666626 372.29422 613.72821 377.676453 613.746094 380.599609 C 613.763977 383.522705 614.789673 389.168579 616.822266 397.539063 C 617.306458 399.930603 617.177795 402.654938 616.439453 405.710938 C 614.545471 413.550049 609.192505 419.328461 600.376953 423.048828 C 591.561584 426.769043 578.754028 428.628906 561.955078 428.628906 Z M 771.939453 428.628906 C 752.630432 428.628906 740.352478 427.500916 735.105469 425.242188 C 732.144043 423.913513 729.994263 421.222321 728.65625 417.169922 C 727.318237 413.117371 727.195557 408.831879 728.287109 404.314453 C 729.506836 399.265381 732.593262 394.882385 737.546875 391.162109 C 741.760864 388.10611 744.541992 385.780029 745.892578 384.185547 C 747.243286 382.591248 748.627075 380.067932 750.041016 376.613281 C 756.755554 358.012085 764.750549 329.312592 774.027344 290.515625 L 784.572266 246.869141 C 788.167542 231.988037 789.906189 222.488098 789.791016 218.369141 C 789.675903 214.250305 787.54248 211.791351 783.390625 210.994141 C 775.827087 209.532654 772.961304 205.016754 774.791016 197.443359 C 776.010742 192.394379 778.848022 187.843506 783.302734 183.791016 C 787.757324 179.738525 794.423096 175.718353 803.302734 171.732422 C 831.711243 158.844299 851.999329 152.400391 864.164063 152.400391 C 869.667114 152.400391 871.535461 155.655548 869.769531 162.166016 L 853.394531 224.546875 C 851.789185 230.791626 849.526672 239.95993 846.605469 252.050781 C 843.363403 265.470367 841.596802 273.375946 841.308594 275.767578 C 840.668396 281.215118 842.038879 283.939453 845.417969 283.939453 C 848.31427 283.939453 853.37207 281.380981 860.59375 276.265625 C 867.815369 271.150208 871.731873 267.331177 872.341797 264.806641 C 872.694946 263.345215 872.275085 260.687103 871.082031 256.833984 C 870.211426 254.043793 870.081421 251.385773 870.691406 248.861328 C 874.158264 234.511719 888.731079 227.337891 914.412109 227.337891 C 927.735352 227.337891 937.810059 229.197571 944.634766 232.917969 C 947.371155 234.379395 949.319641 236.904785 950.480469 240.492188 C 951.641174 244.079651 951.723633 247.931824 950.728516 252.050781 C 949.284058 258.029785 946.195923 262.21579 941.466797 264.607422 C 940.469482 265.138885 937.461121 266.001526 932.441406 267.197266 C 927.936646 268.260132 921.559448 271.88031 913.308594 278.058594 C 905.0578 284.236877 900.595886 288.721466 899.921875 291.511719 C 899.472412 293.371796 901.439941 302.108978 905.826172 317.720703 C 910.212463 333.332428 914.533997 346.917023 918.789063 358.476563 C 921.497009 366.049896 923.76001 371.363922 925.580078 374.419922 C 927.400146 377.475922 930.162231 380.731018 933.865234 384.185547 C 939.564514 389.367371 941.610901 395.280457 940.005859 401.923828 C 938.304504 408.965759 934.777649 414.478882 929.421875 418.464844 C 924.06604 422.450806 917.574463 424.445313 909.947266 424.445313 L 863.025391 424.445313 C 857.168274 424.312408 853.305603 421.322754 851.435547 415.476563 L 837.652344 373.025391 C 833.976929 361.864502 831.694763 355.221497 830.808594 353.095703 C 829.922302 350.969818 828.996643 349.90625 828.03125 349.90625 C 826.872742 349.90625 825.811584 351.102448 824.847656 353.494141 C 823.883606 355.885681 822.599182 360.403412 820.994141 367.046875 C 819.549683 373.025879 818.981689 377.375885 819.289063 380.099609 C 819.596313 382.823486 821.02179 386.113586 823.566406 389.966797 C 825.402588 392.756897 825.663818 396.874634 824.347656 402.322266 C 822.100647 411.622864 816.907104 418.332397 808.767578 422.451172 C 800.628235 426.570129 788.352173 428.628906 771.939453 428.628906 Z M 241.376953 426.636719 L 224.046875 425.839844 L 209.130859 425.242188 C 197.577362 424.710632 187.360657 424.445313 178.478516 424.445313 L 168.050781 424.445313 C 161.96846 424.445313 155.066833 424.843414 147.34375 425.640625 C 142.484634 426.172089 139.137115 426.4375 137.302734 426.4375 C 130.834259 426.4375 126.069565 424.378723 123.009766 420.259766 C 119.949966 416.1409 119.22303 410.758545 120.828125 404.115234 C 121.951614 399.464813 123.718803 395.844788 126.130859 393.253906 C 128.542862 390.663025 131.970108 388.570892 136.410156 386.976563 C 140.593002 385.647888 143.721039 383.489441 145.794922 380.5 C 147.868805 377.510437 150.334503 371.696808 153.193359 363.060547 C 156.37326 353.09552 161.760193 333.697296 169.353516 304.865234 C 176.946838 276.033112 184.177429 247.400208 191.046875 218.966797 C 193.743317 207.805908 194.914902 200.364899 194.558594 196.644531 C 194.202332 192.924316 191.979111 189.936432 187.890625 187.677734 C 182.063644 184.223175 180.161331 178.309998 182.183594 169.939453 C 183.756546 163.428986 187.277451 158.34729 192.746094 154.693359 C 198.214737 151.03952 205.051498 149.212891 213.257813 149.212891 C 215.961029 149.212891 219.130981 149.279205 222.767578 149.412109 C 230.781006 149.81076 236.62233 150.009766 240.291016 150.009766 C 254.096909 150.009766 269.833008 149.410614 287.5 148.214844 C 291.23288 147.949127 295.850433 147.816406 301.353516 147.816406 C 323.46225 147.816406 340.102203 151.272522 351.273438 158.181641 C 367.885468 168.545319 378.066467 185.949005 381.814453 210.396484 C 385.206757 231.920929 383.307648 257.564026 376.117188 287.326172 C 372.489868 302.340088 367.261017 317.388306 360.431641 332.46875 C 353.602295 347.549133 346.152863 360.602966 338.082031 371.630859 C 321.48999 393.952515 302.254974 409.629089 280.376953 418.664063 C 267.507507 423.978699 254.507034 426.636719 241.376953 426.636719 Z M 433.912109 386.777344 C 441.635681 386.777344 447.662598 377.808105 451.996094 359.871094 C 453.761597 352.563416 454.394836 347.647583 453.894531 345.123047 C 453.394135 342.598602 451.615967 341.269623 448.558594 341.136719 C 444.310638 341.136719 440.03952 343.529266 435.746094 348.3125 C 431.45282 353.095673 428.503387 358.80777 426.898438 365.451172 C 425.357544 371.828735 425.224487 376.978851 426.498047 380.898438 C 427.771698 384.817993 430.243347 386.777344 433.912109 386.777344 Z M 235.173828 385.78125 C 263.364899 385.78125 284.587311 356.283783 298.839844 297.291016 C 306.704376 264.738647 309.520599 239.495575 307.289063 221.558594 C 304.831146 201.761444 294.961182 191.861328 277.679688 191.861328 C 273.045502 191.861328 269.482727 193.123901 266.990234 195.648438 C 264.497711 198.172882 262.528503 202.425385 261.083984 208.404297 L 223.816406 362.662109 C 221.794144 371.032654 221.659973 376.978973 223.416016 380.5 C 225.172073 384.020935 229.091461 385.78125 235.173828 385.78125 Z"/>
</svg>
