<?xml version="1.0" encoding="UTF-8"?>
<!-- Generated by Pixelmator Pro 3.3.6 -->
<svg width="1280" height="640" viewBox="0 0 1280 640" xmlns="http://www.w3.org/2000/svg">
    <linearGradient id="linearGradient1" x1="48" y1="320.52529" x2="1232" y2="320.52529" gradientUnits="userSpaceOnUse">
        <stop offset="0" stop-color="#00e97e" stop-opacity="1"/>
        <stop offset="1" stop-color="#2a97ff" stop-opacity="1"/>
    </linearGradient>
    <path id="Schwagerosidad" fill="url(#linearGradient1)" fill-rule="evenodd" stroke="none" d="M 48 406.33075 C 361.349487 397.381683 1165.870605 378.444519 1178.839478 378.381226 C 1210.805298 378.149475 1232 380.905518 1232 410.996536 C 1232 440.684006 1209.576538 444.415894 1180.131592 444.98819 C 1164.490845 445.458588 361.01947 426.560013 48 416.529678 Z M 159.868134 303.85565 C 172.910774 319.352438 193.452469 329.354658 216.550034 329.354658 C 242.740616 329.354658 263.45784 317.038832 263.45784 301.598295 C 263.45784 285.178221 242.547516 277.949568 216.746628 271.303648 C 194.660172 265.637114 165.731178 257.815123 165.731178 233.776671 C 165.731178 214.618223 187.076874 200.940046 216.550034 200.743498 C 234.985229 200.743498 251.952942 206.139555 265.413345 215.172834 L 265.413345 229.0511 C 253.125565 218.118528 235.771683 211.296949 216.550034 211.296949 C 193.877258 211.493498 177.45726 220.737486 177.45726 233.776671 C 177.45726 246.675383 195.24649 253.714399 220.067856 260.160231 C 243.523529 266.223402 275.183929 274.428206 275.183929 301.598295 C 275.183929 322.901762 249.579666 339.90811 216.550034 339.90811 C 194.646149 339.90811 174.715324 332.194914 159.868134 319.601706 Z M 354.134491 232.018004 C 366.366089 232.018004 379.366547 235.420103 392.440765 242.641691 L 392.440765 254.476652 C 378.931274 245.927916 365.804321 242.181883 354.134491 242.181883 C 328.091309 242.181883 309.568329 260.567946 309.568329 285.961531 C 309.568329 311.355101 328.091309 329.744703 354.134491 329.744703 C 365.804321 329.744703 378.931274 325.995138 392.440765 317.446402 L 392.440765 329.28475 C 379.366547 336.506491 366.366089 339.908438 354.134491 339.908438 C 321.515625 339.908438 298.235504 317.253225 298.235504 285.961531 C 298.235504 254.673201 321.515625 232.018004 354.134491 232.018004 M 425.067017 196.05377 L 436.403381 196.05377 L 436.403381 239.970335 C 447.704712 235.287031 461.733887 232.018477 474.906372 232.018477 C 498.256744 232.018477 515.168182 246.46533 515.168182 266.417219 L 515.168182 338.732664 L 503.831818 338.732664 L 503.831818 266.417219 C 503.831818 252.360075 491.849487 242.182203 475.296112 242.182203 C 461.821625 242.182203 446.514465 246.268782 436.403381 250.790739 L 436.403381 338.732664 L 425.067017 338.732664 Z M 659.939941 328.956251 L 699.664673 233.192152 L 710.414795 233.192152 L 666.635071 338.733793 L 651.777344 338.733793 L 621.854797 255.861342 L 591.774231 338.733793 L 576.920044 338.733793 L 533.333435 233.192152 L 545.256165 233.192152 L 584.805298 328.956251 L 618.551147 237.099546 L 626.36969 237.099546 Z M 803.823792 292.606794 L 751.835876 292.606794 C 740.724182 292.606794 732.680969 299.674101 732.680969 309.430586 C 732.680969 320.654524 746.078125 329.744062 762.585999 329.744062 C 777.24707 329.744062 793.814514 324.997442 803.823792 319.99095 Z M 803.823792 338.735235 L 803.823792 330.87451 C 792.048584 336.081083 776.769592 339.925306 762.585999 339.925306 C 739.81842 339.925306 721.344604 326.264814 721.344604 309.430586 C 721.344604 294.007567 734.148438 282.832624 751.835876 282.832624 L 778.075623 282.832624 L 803.823792 285.374449 L 803.823792 268.371794 C 803.823792 253.914167 790.16687 242.181089 773.33606 242.181089 C 758.478333 242.181089 741.401733 247.148848 731.508362 252.190367 L 730.725464 241.601881 C 742.567383 236.068892 758.088623 232.017347 772.746277 232.017347 C 796.15979 232.017347 815.160217 248.304045 815.160217 268.371794 L 815.160217 338.735235 Z M 898.40802 325.835074 C 913.514954 325.835074 926.599731 317.86907 934.179504 305.75334 L 934.179504 249.503264 C 924.205383 245.494001 910.643127 242.179792 898.40802 242.179792 C 873.695496 242.179792 855.800903 260.158613 855.800903 284.986967 C 855.800903 307.533217 874.889099 325.835074 898.40802 325.835074 M 898.40802 232.019438 C 910.509766 232.019438 923.404907 234.814055 934.242798 238.865599 L 934.569275 233.192152 L 945.515991 233.192152 L 945.515991 337.561239 C 945.515991 359.844244 924.851318 377.823057 899.387512 377.823057 C 884.729919 377.823057 869.008606 373.775053 857.170166 368.238539 L 857.953064 357.650045 C 867.846497 362.691412 884.922974 367.662703 899.777283 367.662703 C 918.76709 367.662703 934.179504 354.17787 934.179504 337.561239 L 934.179504 321.688871 C 924.763611 330.578154 912.219482 335.9988 898.40802 335.9988 C 868.632935 335.9988 844.464539 313.143507 844.464539 284.986967 C 844.464539 254.263868 867.123291 232.019438 898.40802 232.019438 M 1069.418335 276.97212 C 1069.418335 256.792036 1053.16333 242.180113 1030.718811 242.180113 C 1008.035461 242.180113 992.352722 256.34268 988.848938 276.97212 Z M 1030.718811 232.019758 C 1059.739014 232.019758 1080.754761 250.897444 1080.754761 276.97212 L 1080.754761 281.859205 L 1075.867676 286.74275 L 988.108215 286.74275 C 988.455811 312.350386 1005.816711 329.742933 1032.674377 329.742933 C 1045.639587 329.742933 1060.757141 325.631773 1077.106934 316.352751 L 1077.106934 327.969961 C 1061.340027 336.090567 1046.324219 339.906668 1032.674377 339.906668 C 999.662231 339.906668 976.771729 317.251616 976.771729 285.963301 C 976.771729 254.674971 998.296509 232.019758 1030.718811 232.019758 M 1112.793701 233.190702 L 1123.347168 233.190702 L 1124.101929 242.634779 C 1140.507935 235.079557 1155.463989 232.018004 1180.029053 232.018004 L 1178.498291 243.940718 C 1175.128052 243.329847 1171.743652 242.940123 1168.380249 242.940123 C 1151.844238 242.940123 1135.856201 247.651716 1124.130005 253.518171 L 1124.130005 338.732344 L 1112.793701 338.732344 Z"/>
</svg>
